<?xml version="1.0" encoding="utf-8"?>
<!-- Generator: Adobe Illustrator 15.0.0, SVG Export Plug-In . SVG Version: 6.00 Build 0)  -->
<!DOCTYPE svg PUBLIC "-//W3C//DTD SVG 1.1//EN" "http://www.w3.org/Graphics/SVG/1.1/DTD/svg11.dtd">
<svg version="1.1" id="Layer_1" xmlns="http://www.w3.org/2000/svg" xmlns:xlink="http://www.w3.org/1999/xlink" x="0px" y="0px"
	 width="605.28px" height="228.824px" viewBox="0 0 605.28 228.824" enable-background="new 0 0 605.28 228.824"
	 xml:space="preserve">
<g>
	<defs>
		<rect id="SVGID_1_" width="605.28" height="228.824"/>
	</defs>
	<clipPath id="SVGID_2_">
		<use xlink:href="#SVGID_1_"  overflow="visible"/>
	</clipPath>
	<path clip-path="url(#SVGID_2_)" fill="#FFFFFF" d="M143.868,154.509c-2.749,0-5.173-2.021-5.573-4.832
		c-0.457-3.087,1.688-5.958,4.766-6.402c14.9-2.168,26.127-15.183,26.127-30.254c0-16.867-13.72-30.587-30.582-30.587
		c-15.17,0-27.873,10.856-30.211,25.813c-0.485,3.082-3.396,5.183-6.454,4.71c-3.074-0.489-5.188-3.376-4.703-6.457
		c3.201-20.489,20.601-35.361,41.368-35.361c23.093,0,41.879,18.79,41.879,41.882c0,20.642-15.393,38.457-35.795,41.434
		C144.417,154.491,144.144,154.509,143.868,154.509"/>
	<path clip-path="url(#SVGID_2_)" fill="#FFFFFF" d="M144.293,154.539c-1.711,0.285,0.549,0.089,2.482-0.261
		c0.567-0.179,1.122-0.375,1.68-0.581C147.081,154.048,145.692,154.329,144.293,154.539"/>
	<path clip-path="url(#SVGID_2_)" fill="#FFFFFF" d="M153.521,152.136c1.473-0.651,2.906-1.375,4.278-2.178
		c-0.998,0.564-2.031,1.091-3.084,1.578c-3.602,1.352,0.419-0.33,1.682-1.035c-2.826,1.356-3.379,1.526-3.262,1.574
		C153.244,152.112,153.973,151.899,153.521,152.136"/>
	<path clip-path="url(#SVGID_2_)" fill="#FFFFFF" d="M161.8,147.598c2.521-1.769,1.725-1.384,0.668-0.651
		C162.34,147.113,160.701,148.288,161.8,147.598"/>
	<path clip-path="url(#SVGID_2_)" fill="#FFFFFF" d="M110.88,101.347c-0.352,0.769-0.697,1.714-0.684,1.57
		C109.954,103.842,109.829,104.002,110.88,101.347"/>
	<path clip-path="url(#SVGID_2_)" fill="#FFFFFF" d="M110.196,102.917l0.19-0.586l-0.189,0.541
		C110.183,102.926,110.197,102.895,110.196,102.917"/>
	<path clip-path="url(#SVGID_2_)" fill="#FFFFFF" d="M119.271,77.053c2.95-1.634,4.749-2.292,7.796-3.252
		c0.586-0.118,1.17-0.214,1.756-0.305c3.364-0.787,1.458-0.472,3.922-0.975c1.578-0.184,4.021-0.387,6.272-0.366
		c2.25,0,4.282,0.23,5.023,0.336c1.021,0.205-1.296-0.079-1.803-0.058c2.021,0.162,2.951,0.293,4.008,0.436
		c1.055,0.163,2.237,0.342,4.653,1.084l0.074,0.067c5.781,1.689,11.946,5.151,16.896,10.177c4.997,4.978,8.678,11.437,10.498,17.946
		c-0.235-0.884-0.15-0.669-0.213-1.017c2.118,6.82,2.403,14.79,0.569,21.903c-1.77,7.16-5.454,13.306-9.142,17.639
		c2.606-2.89,5.701-7.228,7.716-12.129c2.072-4.874,2.993-10.201,2.942-14.168c0.115-1.471,0.064-3.344-0.093-4.992
		c-0.145-1.65-0.385-3.066-0.412-3.681c-1.005-5.606-2.682-9.324-4.598-12.742c-1.978-3.396-4.268-6.581-8.215-10.323
		c-1.13-1.068-0.522-0.617-0.803-0.975c2.177,1.884,4.166,3.996,5.931,6.288c-1.054-1.412-2.173-2.776-3.393-4.054
		c0.824,0.791,2.154,2.252,3.228,3.655c1.094,1.383,1.944,2.687,2.183,2.919c-2.094-3.178-5.3-6.997-9.076-10.01
		c-3.736-3.052-7.958-5.221-11.068-6.332c2.879,1.171,6.35,2.951,9.3,5.146c1.296,0.975,3.151,2.652,2.975,2.609
		c-3.997-3.387-8.18-5.824-12.67-7.561c-4.479-1.711-9.304-2.73-14.659-2.741c-2.691-0.05-6.312,0.4-6.757,0.431
		c1.738-0.282,0.414-0.155,1.85-0.372c-1.886,0.256-1.971,0.372-2.257,0.466c-0.299,0.129-0.813,0.187-3.477,0.813l0.614-0.411
		c-1.031,0.382-2.66,0.794-4.456,1.422c-1.795,0.61-3.761,1.44-5.451,2.431c-1.278,0.609,0.927-0.796,3.735-1.942
		c-1.594,0.631-2.421,1.083-3.167,1.489c-0.743,0.418-1.388,0.814-2.564,1.51c0.692-0.511,1.419-1.002,2.149-1.471
		c-2.486,1.538-4.508,2.658-5.884,3.606c-0.105,0.175,1.161-0.676-1.688,1.612c-1.204,1.018-0.635,0.443-0.933,0.67
		c-0.106,0.182-1.053,1.104-2.692,2.879c-0.36,0.278,1.017-1.247,1.089-1.399c-1.295,1.29-2.247,2.434-3.134,3.431
		c-1.921,2.609,0.198-0.115-0.918,1.516c-2.859,4.05-0.506,0.255-1.67,1.689c0.98-1.613,2.247-3.369,3.51-4.846
		c1.255-1.484,2.483-2.695,3.215-3.398c-1.776,1.651-3.409,3.453-4.867,5.377c0.154-0.442-2.99,3.909-0.84,0.727
		c-2.181,2.9-4.143,6.454-5.502,10.19c-0.68,1.871-1.221,3.775-1.621,5.646c-0.204,0.934-0.362,1.867-0.504,2.779
		c-0.145,0.987-0.041,1.991,0.266,2.879c-0.353-1.026-0.253-2.413-0.198-2.184c-0.021,0.964,0.15,1.644,0.299,2.132
		c0.159,0.487,0.301,0.784,0.391,0.999c0.208,0.431,0.231,0.527,0.433,0.874c0.934,1.12,1.575,1.359,2.016,1.569
		c0.458,0.173,0.803,0.285,1.638,0.433c1.377,0.346,2.543,0.148,3.438-0.181c0.9-0.322,1.561-0.797,2.112-1.321
		c0.552-0.536,0.999-1.148,1.353-1.937c0.174-0.393,0.321-0.836,0.419-1.33c0.099-0.465,0.198-0.962,0.337-1.512l-0.205,0.248
		c0.384-1.575,0.617-2.471,0.87-3.394c0.268-0.917,0.561-1.875,1.321-3.448c0.103-0.163-0.424,1.066-0.751,2.083
		c0.523-1.447,0.873-2.076,1.199-2.688c0.336-0.612,0.669-1.215,1.414-2.511c-0.366,0.701-0.702,1.418-1.011,2.141
		c1.019-2.143,3.099-4.961,2.491-3.884c1.138-1.726,3.012-3.917,5.344-5.792c2.319-1.891,5.061-3.428,7.454-4.437l-0.268,0.257
		c1.199-0.604,3.545-1.423,5.928-1.858c2.382-0.464,4.759-0.548,5.936-0.625l0.388,0.061c1.79-0.017,3.574,0.116,5.349,0.414
		c2.368,0.543,1.504,0.585,1.713,0.564c5.157,1.36,8.791,3.678,11.38,5.882c0.376,0.212,1.672,1.202,3.102,2.709
		c1.444,1.482,2.979,3.515,4.097,5.465c2.665,4.696,4.069,10.208,3.931,15.73c-0.123,5.525-1.832,11.014-4.81,15.647
		c-2.966,4.644-7.183,8.428-11.962,10.85c-2.387,1.214-4.916,2.093-7.472,2.629c-0.646,0.145-1.278,0.227-1.936,0.355
		c-0.646,0.141-1.265,0.407-1.816,0.76c-1.11,0.701-1.944,1.795-2.348,3.007c-0.508,1.43-0.394,3.476,0.837,4.943
		c1.176,1.479,3.133,2.345,4.953,2.293c-1.114-0.021-1.953-0.313-2.619-0.624c-0.663-0.325-1.166-0.688-1.608-1.1
		c-0.438-0.411-0.828-0.887-1.156-1.544c-0.314-0.645-0.544-1.497-0.45-2.604c0.203-1.661,0.96-2.633,1.731-3.315
		c0.812-0.67,1.715-1.131,3.072-1.272c-0.477,0.012-0.922,0.082-1.384,0.207c0.504-0.213,0.939-0.323,1.332-0.383l1.03-0.185
		l1.281-0.245c0.664-0.145,1.231-0.24,2.966-0.888l-0.066,0.275l2.746-1.112c1.061-0.458,2.112-0.968,2.72-1.278
		c0.325-0.248,0.646-0.503,0.958-0.763c2.571-1.495,4.031-2.795,4.805-3.288l-0.318,0.085c0.463-0.328,2.543-2.306,3.918-4.132
		c1.407-1.799,2.288-3.268,1.453-1.696c0.438-0.744,0.817-1.438,1.721-3.111l0.267-0.193c1.241-2.462,2.092-5.413,2.359-6.164
		c-0.353,1.45-0.476,1.938-0.572,2.431c0.96-2.771,1.163-4.395,1.29-5.325c0.097-0.933,0.056-1.204,0.026-1.437
		c-0.045-0.23-0.082-0.409-0.076-1.185c0-0.763,0.097-2.116-0.075-4.659l0.106,0.112c-0.093-0.86-0.227-1.714-0.384-2.563
		c-0.103-0.897-0.236-1.796-0.412-2.69c-0.585-1.747-1.65-5.19-3.662-8.533c-1.945-3.37-4.833-6.522-7.318-8.347
		c-1.898-1.446-4.44-3.518-8.807-5.098l0.233,0.251c-0.857-0.359-2.327-0.901-4.16-1.331c-1.823-0.437-4.004-0.757-6.192-0.82
		c-2.188-0.086-4.374,0.084-6.222,0.362c-1.837,0.269-3.327,0.649-4.192,0.845c-3.306,1.29,0.353-0.116,0.326,0.052
		c-3.259,1.146-4.866,2.064-6.15,2.715c-1.258,0.681-2.175,1.163-3.648,2.231c-1.641,1.371-0.994,0.869-0.157,0.212
		c0.847-0.642,1.935-1.364,1.038-0.658c-2.655,1.906-3.518,2.95-4.525,4.06c-0.497,0.573-1.016,1.187-1.69,2.08
		c-0.67,0.881-1.517,2.037-2.534,3.766c-0.478,0.645,0.984-1.829,1.453-2.512c-1.571,2.345-3.512,5.957-4.587,10.232
		c-0.275,1.032-0.501,2.195-0.664,3.215c-0.184,0.908-0.641,1.753-1.295,2.409c-1.313,1.338-3.375,1.732-4.99,1.12
		c-0.923-0.335-1.791-1.004-2.36-1.924c-0.586-0.922-0.845-2.08-0.667-3.225c0.433-2.661,1.163-5.464,2.204-8.192
		c2.057-5.464,5.505-10.556,9.317-14.249l0.092-0.172c3.216-3.013,7.056-5.988,11.775-8.077
		C120.786,76.33,120.028,76.683,119.271,77.053"/>
	<path clip-path="url(#SVGID_2_)" fill="#FFFFFF" d="M175.459,92.474l-0.325-0.829c-0.885-1.438-1.841-2.828-2.886-4.149
		C173.387,89.204,174.076,90.016,175.459,92.474"/>
	<path clip-path="url(#SVGID_2_)" fill="#FFFFFF" d="M174.577,91.732c0.472,0.742,0.897,1.499,1.323,2.265
		c-0.648-1.26-1.36-2.482-2.131-3.663C174.051,90.8,174.32,91.256,174.577,91.732"/>
	<path clip-path="url(#SVGID_2_)" fill="#FFFFFF" d="M119.255,75.664l0.592-0.279c2.837-1.448,5.849-2.567,8.957-3.336
		C125.485,72.854,122.267,74.078,119.255,75.664"/>
	<path clip-path="url(#SVGID_2_)" fill="#FFFFFF" d="M110.864,101.72c-0.335,1.01-0.849,2.452-1.081,3.542
		c0.356-1.408,0.81-2.781,1.355-4.124L110.864,101.72z"/>
	<path clip-path="url(#SVGID_2_)" fill="#FFFFFF" d="M145.06,84.336c1.638,0.139,3.118,0.863,1.096,0.055
		C143.648,83.828,145.795,84.427,145.06,84.336"/>
	<path clip-path="url(#SVGID_2_)" fill="#FFFFFF" d="M154.104,87.646c-1.275-0.772-2.029-1.113-2.782-1.436
		C153.029,87.17,153.127,87.13,154.104,87.646"/>
	<path clip-path="url(#SVGID_2_)" fill="#FFFFFF" d="M138.101,129.438c9.262,0,16.769-7.505,16.769-16.757
		c0-9.264-7.507-16.772-16.769-16.772c-9.251,0-16.762,7.508-16.762,16.772C121.339,121.933,128.85,129.438,138.101,129.438"/>
	<path clip-path="url(#SVGID_2_)" fill="#FFFFFF" d="M133.633,129.346l0.053,0.017l0.195,0.057c0.218,0.007,0.654,0.13,1.245,0.243
		c0.006-0.01-0.045-0.032,0.162-0.004c0.93,0.163,0.463,0.073,1.149,0.115c-0.215-0.014-0.469-0.042-0.575-0.071
		c0.436,0.052,0.865,0.088,1.301,0.106c-0.178-0.038-0.324-0.077-0.099-0.077c-0.128-0.069,0.298-0.111,0.465-0.161
		c-0.236-0.015-0.415-0.03-0.501-0.045c0.028-0.02,0.252-0.02,0.525-0.014c-0.024-0.006-0.048-0.012-0.084-0.02
		c0.036,0.008,0.06,0.014,0.084,0.02l0.548,0.014c-0.102-0.014-0.197-0.02-0.152-0.031l-0.769-0.023
		c-0.019-0.007,0-0.007,0.051-0.007h-0.197l0.146,0.025c0.051,0.011-0.05,0.011-0.152,0.011c-0.204-0.008-0.262-0.02-0.355-0.036
		l-0.408-0.014c-0.16,0.03,1.071,0.117,0.4,0.099l-0.202-0.026c-0.311-0.022-0.719-0.072-0.932-0.078
		c-0.298-0.099-0.869-0.119-0.905-0.192c-1.157-0.26-2.656-0.707-3.692-1.286c-0.209-0.052-0.247,0.029-0.73-0.151
		c-0.091-0.059-0.224-0.144-0.178-0.125l-0.323-0.15c0.182,0.101,0.41,0.224,0.491,0.283c-0.516-0.25,0.209,0.158,0.16,0.153
		l-0.705-0.353l0.077,0.048c1.218,0.709,2.514,1.285,3.872,1.672L133.633,129.346z"/>
	<path clip-path="url(#SVGID_2_)" fill="#FFFFFF" d="M121.729,111.234l-0.05,0.008c0.198-2.865,1.255-5.957,3.279-8.587
		c1.992-2.629,4.941-4.759,8.347-5.77c3.399-1.02,7.213-0.902,10.6,0.399c3.395,1.283,6.315,3.733,8.173,6.748l-0.347-0.19
		c1.071,1.537,1.92,3.396,2.391,5.333c0.478,1.94,0.571,3.936,0.399,5.719c0.07-0.458,0.127-0.92,0.159-1.383
		c0.024,0.637-0.032,1.783-0.288,2.997c-0.254,1.21-0.71,2.47-1.163,3.372l0.038-0.196c1.038-2.57-0.075,0.165,0.227-0.921
		l0.143-0.457l-0.116,0.256l-0.157,0.456c-0.012-0.068-0.05-0.04,0.1-0.464l-0.241,0.587c-0.683,1.181-0.825,1.103-0.874,0.888
		c-0.161,0.308,0.191,0.085-0.626,1.328l0.057-0.183c-0.266,0.475-0.551,0.937-0.858,1.385c-0.165,0.178-0.337,0.354-0.509,0.524
		c-0.355,0.459-0.588,0.763-1.025,1.167l-0.059,0.201c-0.983,0.917-2.19,1.847-3.533,2.582c-1.336,0.732-2.792,1.272-4.131,1.523
		c-0.567,0.241-2.03,0.368-3.563,0.444l0.666,0.097c0.83,0.045,2.234-0.07,3.707-0.478c1.482-0.389,2.992-1.065,4.166-1.757
		l-0.06,0.104c-0.481,0.312-0.825,0.551-1.486,0.82l-0.124,0.174c0.625-0.077,1.747-0.659,2.713-1.412
		c0.977-0.735,1.778-1.609,2.141-1.94c0.778-0.717,0.577-0.438,0.268-0.057c-0.314,0.371-0.764,0.816-0.391,0.466
		c-0.827,0.832-0.411,0.567,0.296-0.019c0.713-0.584,1.623-1.58,1.972-1.953c0.946-1.057,2.176-3.018,2.845-5.328
		c0.714-2.29,0.831-4.828,0.633-6.686c-0.385-3.107-1.707-6.621-3.99-9.402c-2.244-2.801-5.362-4.745-8.14-5.575
		c-1.327-0.445-3.14-0.699-4.816-0.666c-1.677,0.007-3.207,0.266-4.101,0.303c-1.694,0.349-3.348,0.951-4.873,1.789l0.067-0.106
		c-2.233,1.227-4.272,3.075-5.748,5.252c-1.499,2.165-2.417,4.639-2.808,6.959c-0.314,2.039-0.097,2.668-0.265,3.597
		c-0.005,2.05,0.479,4.278,1.391,6.297c0.913,2.02,2.232,3.813,3.621,5.212c0.034-0.045,0.46,0.307-0.028-0.232
		c-1.482-1.396-2.53-3.506-2.416-3.633l0.359,0.651c-0.202-0.396-0.381-0.803-0.541-1.211c-0.146-0.248-0.281-0.494-0.41-0.75
		c-0.055-0.21-0.065-0.31-0.055-0.332c-0.504-1.358-0.738-2.604-0.874-4.085C121.637,114.077,121.523,112.865,121.729,111.234"/>
	<path clip-path="url(#SVGID_2_)" fill="#FFFFFF" d="M98.399,183.703c16.828,0,30.481-13.644,30.481-30.473
		c0-16.843-13.653-30.487-30.481-30.487c-16.848,0-30.495,13.645-30.495,30.487C67.904,170.06,81.551,183.703,98.399,183.703
		 M98.399,169.993c-9.261,0-16.772-7.51-16.772-16.766c0-9.263,7.511-16.771,16.772-16.771c9.247,0,16.763,7.508,16.763,16.771
		C115.163,162.483,107.646,169.993,98.399,169.993"/>
	<path clip-path="url(#SVGID_2_)" fill="#FFFFFF" d="M98.399,183.703c16.828,0,30.481-13.644,30.481-30.473
		c0-16.843-13.653-30.487-30.481-30.487c-16.848,0-30.495,13.645-30.495,30.487C67.904,170.06,81.551,183.703,98.399,183.703
		 M98.399,169.993c-9.261,0-16.772-7.51-16.772-16.766c0-9.263,7.511-16.771,16.772-16.771c9.247,0,16.763,7.508,16.763,16.771
		C115.163,162.483,107.646,169.993,98.399,169.993"/>
	<path clip-path="url(#SVGID_2_)" fill="#FFFFFF" d="M100.934,170.492c0.908-0.16,1.726-0.387,2.424-0.641
		c1.91-0.512,3.245-1.251,4.478-2.107c1.223-0.881,2.375-1.88,3.718-3.403c1.158-1.387,1.939-2.743,2.554-4.128
		c0.612-1.394,1.054-2.844,1.332-4.554c-0.064-0.58,0.142-2.243-0.019-4.1c-0.134-1.852-0.687-3.848-1.294-4.976
		c-0.726-1.554-1.343-2.261-0.755-1.113c-0.548-1.031-0.789-1.395-0.981-1.732c-0.191-0.333-0.368-0.629-1.005-1.373l0.49,0.448
		c-0.371-0.528-0.801-1.11-1.424-1.707c-0.252-0.199-0.506-0.396-0.77-0.581c-0.839-0.817-1.611-1.338-2.421-1.805
		c-0.826-0.469-1.693-0.887-2.864-1.374c1.503,0.667-0.728-0.227-0.586-0.061c-0.34-0.182-1.815-0.588-1.31-0.478
		c-2.078-0.569-4.078-0.403-5.29-0.465c-0.256,0.035-0.516,0.07-0.779,0.122c-1.314,0.225-2.369,0.381-3.536,0.757l-0.151,0.115
		c-0.755,0.288-2.102,0.912-2.736,1.231c-1.9,1.018-3.86,2.922-5.075,4.741c-0.668,0.87-0.786,1.161-0.898,1.417
		c-0.113,0.267-0.198,0.506-0.617,1.39c-0.607,1.096-1.137,3.18-1.329,3.911c0.371-1.677,0.292-1.968,1.019-3.651
		c-0.165,0.312,0.126-0.409,0.422-1.002c0.296-0.584,0.568-1.062,0.119-0.373c-0.815,1.582-1.501,3.456-1.818,5.377
		c-0.331,1.918-0.298,3.851,0.029,5.438c-0.094-0.106,0.012,0.896,0.344,2.074c0.327,1.177,0.933,2.476,1.282,3.096l0.002,0.105
		c0.573,1.078,1.026,1.888,2.346,3.332c1.552,1.748,3.464,3.065,5.197,3.997c1.287,0.688,2.833,1.186,4.198,1.394
		c1.376,0.218,2.548,0.179,3.169,0.128c-3.509-0.113-6.807-1.106-8.853-2.729c1.012,0.655,1.609,0.919,2.135,1.142
		c0.533,0.21,1.018,0.373,1.908,0.614c-0.306-0.116-0.608-0.234-0.901-0.362c0.249,0.076,0.496,0.154,0.757,0.225
		c-0.373-0.174,0.633,0.091,0.541,0c-0.914-0.267-1.802-0.603-2.648-1.011c1.366,0.674,0.422,0.323-0.008,0.189
		c-0.442-0.223-0.874-0.463-1.297-0.723c0.28,0.202,1.077,0.668,0.113,0.167c-0.513-0.31-1.194-0.719-1.686-1.152
		c0.334,0.208,0.679,0.398,1.023,0.576c-1.552-0.927-2.415-2.016-3.636-3.311l-0.244-0.503c-0.345-0.444-0.663-0.902-0.955-1.379
		l0.131,0.14c-0.35-0.577-0.671-1.168-0.941-1.774c-0.477-0.97-0.554-1.12-0.667-1.283c-0.303-0.786-0.524-1.571-0.568-1.907
		c0.102,0.306,0.206,0.622,0.322,0.925c-0.082-0.284-0.143-0.582-0.205-0.879c0.115,0.607-0.22-0.711-0.269-0.929
		c-0.155-1.002-0.158-1.36-0.179-1.628c-0.005-0.26-0.007-0.428,0.021-1.061c-0.081-1.32,0.276-2.889,0.2-2.977
		c0.473-2.344,1.518-4.713,2.856-6.529c0.181-0.284,0.364-0.562,0.567-0.827c0.892-1.021,1.606-1.68,2.368-2.324
		c0.762-0.627,1.573-1.233,2.826-1.874l-0.191,0.12c0.446-0.258,0.899-0.5,1.363-0.716c0.992-0.366,1.696-0.588,2.448-0.781
		c0.757-0.188,1.572-0.361,2.805-0.383c2.65-0.046,3.837,0.195,4.716,0.236c1.291,0.225,2.799,0.919,3.818,1.486
		c-0.233-0.107-0.466-0.207-0.704-0.306c0.286,0.154,0.566,0.312,0.838,0.484c0.736,0.397,1.096,0.643,1.509,0.934
		c0.41,0.29,0.882,0.611,1.705,1.322c1.07,1.035,1.469,1.524,1.784,1.808c0.31,0.293,0.494,0.406,0.894,0.921
		c0.504,0.817,0.944,1.673,1.294,2.563v-0.07c0.419,0.743,0.546,1.058,0.738,1.639c0.173,0.589,0.488,1.468,0.729,3.48l0.063-0.193
		c0.034,1.365,0.207,1.953,0.056,3.713c-0.044,0.43-0.2,1.298-0.453,2.217c-0.244,0.926-0.602,1.903-0.858,2.614
		c-0.66,1.401-1.247,2.384-1.851,3.303c-0.612,0.907-1.263,1.742-2.275,2.627c-1.232,1.021-2.15,1.737-2.485,1.771l0.246-0.147
		l-0.578,0.181l-0.013,0.129c-0.848,0.459-2.103,1.052-2.911,1.198c-0.686,0.305-1.392,0.556-2.112,0.759
		c0.537-0.118,1.135-0.254,1.716-0.426l-0.065-0.007c0.565-0.163,1.875-0.7,2.482-0.977c-0.231,0.126-0.473,0.246-0.713,0.366
		c0.851-0.366,0.171,0.005-0.069,0.128c-1.76,0.634-1.255,0.544-2.631,0.952c-0.324,0.066-0.928,0.178-0.71,0.09
		c-0.825,0.245-3.068,0.307-3.138,0.373l-0.158-0.01C98.677,170.324,99.653,170.511,100.934,170.492"/>
	<path clip-path="url(#SVGID_2_)" fill="#FFFFFF" d="M94.063,182.711c-1.57-0.203-2.999-0.51-4.221-0.827
		c-3.23-1.059-5.544-2.202-7.769-3.56c-2.197-1.38-4.329-3.006-6.61-5.725c-2.035-2.403-3.436-4.737-4.534-7.153
		c-1.09-2.426-1.864-4.971-2.266-7.967c-0.301-0.949-0.638-3.923-0.274-7.182c0.299-3.267,1.384-6.706,2.196-8.807
		c0.575-1.398,1.095-2.448,1.304-2.906c0.217-0.453,0.08-0.343-0.491,0.676c0.98-1.868,1.482-2.485,1.873-3.052
		c0.427-0.551,0.766-1.05,1.86-2.425c-0.23,0.321-0.444,0.653-0.66,0.983c0.723-0.896,1.595-1.821,2.646-2.908
		c0.381-0.418,0.769-0.839,1.167-1.245c1.604-1.335,2.92-2.296,4.334-3.203c1.418-0.891,2.936-1.734,5.065-2.509
		c-2.777,1.011,1.238-0.558,0.916-0.487c0.659-0.219,3.32-0.874,2.417-0.611c3.729-0.924,7.315-1.142,9.486-0.83
		c0.47,0.017,0.938,0.039,1.402,0.086c2.404,0.217,4.264,0.744,6.355,1.474l0.304,0.045c1.408,0.426,3.846,1.583,4.92,2.285
		c3.34,1.904,7.107,5.038,9.501,8.263c1.136,1.628,1.412,2.119,1.715,2.538c0.299,0.421,0.6,0.787,1.409,2.399
		c0.478,1.043,1.089,2.488,1.525,3.876c0.448,1.377,0.743,2.692,0.829,3.382c-0.309-1.559-0.618-2.416-0.923-3.286
		c-0.315-0.869-0.645-1.757-1.305-3.288c0.233,0.596-0.327-0.694-0.919-1.741c-0.579-1.044-1.103-1.874-0.402-0.577
		c1.632,2.753,2.907,6.166,3.483,9.635c0.606,3.479,0.54,6.965,0.143,9.884c-0.05-0.23-0.303,1.584-0.923,3.698
		c-0.587,2.126-1.612,4.507-2.219,5.642l-0.114,0.12c-1.087,1.923-1.918,3.357-4.181,6.062c-2.787,3.163-6.228,5.64-9.472,7.095
		c-2.372,1.097-5.098,2.008-7.543,2.492c-2.442,0.521-4.568,0.647-5.688,0.702c3.21,0.078,6.335-0.463,9.103-1.338
		c2.787-0.874,5.218-2.073,7.316-3.245c-1.918,1.159-3.007,1.66-3.968,2.119c-0.97,0.441-1.824,0.836-3.462,1.393
		c0.593-0.16,1.172-0.34,1.741-0.535c-0.456,0.182-0.92,0.356-1.39,0.515c0.742-0.177-1.121,0.456-0.898,0.432
		c1.743-0.491,3.446-1.134,5.071-1.927c-2.67,1.162-0.934,0.323-0.203-0.086c0.842-0.403,1.663-0.836,2.464-1.299
		c-0.564,0.312-2.079,1.115-0.326,0.092c0.971-0.546,2.197-1.394,3.201-2.118c-0.565,0.483-1.146,0.946-1.739,1.379
		c2.76-1.961,4.863-3.532,7.001-6.206l0.753-0.744c0.649-0.851,1.266-1.741,1.83-2.666l-0.157,0.337
		c0.694-1.096,1.331-2.221,1.884-3.399c0.852-1.926,0.85-2.254,0.959-2.611c0.548-1.521,0.91-3.028,1.079-3.659
		c-0.119,0.609-0.247,1.22-0.398,1.826c0.175-0.545,0.322-1.11,0.462-1.667c-0.287,1.15,0.288-1.418,0.301-1.846
		c0.325-1.918,0.329-2.604,0.387-3.113c0.036-0.506,0.09-0.82,0.127-2.042c0-2.529-0.417-5.603-0.564-5.722
		c-0.737-4.548-2.756-9.156-5.362-12.67c-0.384-0.515-0.801-1.006-1.219-1.487c-1.634-2.013-3.038-3.303-4.528-4.491
		c-1.505-1.175-3.108-2.272-5.505-3.489l0.395,0.168c-0.887-0.431-1.793-0.817-2.713-1.163c-1.858-0.781-3.228-1.144-4.677-1.47
		c-1.452-0.302-2.998-0.576-5.342-0.75c-2.521-0.151-4.366,0.047-5.75,0.26c-1.392,0.227-2.336,0.49-3.112,0.75
		c-2.358,0.603-5.263,1.636-7.192,2.678c0.408-0.239,0.835-0.466,1.259-0.681c-0.554,0.24-1.105,0.512-1.65,0.782
		c-1.38,0.776-2.077,1.239-2.861,1.778c-0.772,0.551-1.653,1.17-3.166,2.565c-2.079,1.911-2.758,2.913-3.225,3.544
		c-0.445,0.652-0.624,1-1.271,1.994c-1.037,1.448-1.96,2.985-2.735,4.6l0.076-0.092c-0.576,1.476-0.762,2.057-1.142,3.14
		c-0.319,1.098-0.959,2.704-1.394,6.432l0.127-0.325c-0.191,1.241-0.225,2.145-0.215,3.135c0.009,0.988,0.056,2.072,0.215,3.683
		c0.087,0.78,0.264,2.387,0.677,4.104c0.39,1.725,1.026,3.535,1.64,4.791c1.114,2.628,2.297,4.404,3.522,5.987
		c1.238,1.58,2.541,2.981,4.343,4.602c2.153,1.986,4.043,2.925,4.435,3.343l-0.448-0.278c0.28,0.233,0.568,0.463,0.865,0.686
		l0.159-0.02c1.5,0.933,3.841,1.931,5.232,2.504c1.319,0.383,2.653,0.676,4.004,0.884c-0.991-0.178-2.066-0.451-3.126-0.799
		l0.106,0.064c-1.027-0.289-3.45-1.207-4.511-1.819c0.443,0.206,0.894,0.409,1.351,0.59c-1.533-0.72-0.234-0.17,0.212,0
		c1.549,0.67,2.138,0.84,2.637,0.977c0.498,0.139,0.9,0.24,2.148,0.536c0.556,0.16,1.645,0.375,1.242,0.336
		c0.738,0.142,2.1,0.372,3.306,0.472c1.21,0.106,2.248,0.104,2.312,0.059l0.307,0.015C97.88,183.368,96.184,183.189,94.063,182.711"
		/>
	<path clip-path="url(#SVGID_2_)" fill="#FFFFFF" d="M180.574,79.456c4.479,0,8.121-3.623,8.121-8.109
		c0-4.481-3.642-8.119-8.121-8.119c-4.486,0-8.117,3.638-8.117,8.119C172.457,75.833,176.088,79.456,180.574,79.456"/>
	<path clip-path="url(#SVGID_2_)" fill="#FFFFFF" d="M186.692,75.833c-0.149,0.058-0.246,0.088-0.398,0.115
		c-0.387,0.262-1.049,0.729-1.337,0.678c-0.024-0.067,0.262-0.639,0.355-0.693c0.82-0.676,1.506-0.824,2.208-1.965
		c0.067-0.09,0.048-0.536,0.041-0.923l-0.136,0.218c0.032-0.53,0.26-1.299,0.178-1.938c-0.056,0.133-0.056,0.133-0.113,0.21
		c0.303-0.494,0.113-1.601-0.15-2.335c-0.025-0.151-0.025-0.273-0.03-0.391c-0.313-0.651-0.573-1.326-1.225-1.913
		c-0.497-0.508-1.192-1.313-2.061-1.728c-0.701-0.415-1.507-0.794-2.363-0.951c-0.847-0.16-1.733-0.113-2.423,0.227
		c-0.228,0.109-0.667,0.206-1.111,0.218c-0.367,0.36-0.917,0.696-1.463,1.11c-0.559,0.398-1.112,0.877-1.518,1.355
		c-0.282,0.353-0.596,0.515-0.798,0.623c-0.49,1.171-0.673,2.489-0.634,3.738c0.076,1.615,0.679,3.149,1.771,4.574
		c0.147,0.198,0.541,0.482,0.767,0.579l0.188,0.287c0.862,0.613,1.819,0.809,2.655,1.078c1.161,0.354,1.327,0.761,1.479,1.205
		c-0.751,0.133-1.558,0.303-2.479,0.216c-0.912-0.094-1.959-0.452-2.843-1.353c-0.468-0.499-1.298-1.13-1.844-1.836
		c-0.506-0.572-0.668-1.386-1.137-1.901c-0.008-0.499-0.085-1.292-0.085-2.155c-0.012-0.863,0.077-1.774,0.164-2.564
		c0.069-0.119,0.069,0.03,0.158-0.179c0.171-2.24,1.853-4.487,4.126-5.736c1.126-0.684,2.684-0.984,4.304-1.057
		c0.157-0.027,0.837,0.133,1.267,0.203h0.473c1.121,0.275,2.376,0.836,2.952,1.459c0.717,0.663,1.367,1.256,1.795,1.975
		c0.321,0.538,0.748,1.227,1.036,1.966c0.286,0.743,0.406,1.512,0.327,2.039c-0.017,0.126,0.053,0.544,0.049,0.82
		c-0.032,0.126-0.066,0.26-0.107,0.38c-0.006,0.27,0.141,0.458,0.115,0.733c-0.121,0.884-0.393,1.856-0.828,2.622
		c-0.43,0.768-0.97,1.322-1.412,1.481C186.683,76.197,186.95,75.736,186.692,75.833"/>
	<path clip-path="url(#SVGID_2_)" fill="#FFFFFF" d="M181.006,78.045c0.052-0.067-0.171-0.076-0.307-0.058
		c0.128,0.064,0.204,0.155,0.466,0.198c-0.133,0-0.273,0.003-0.407,0c-0.212,0.166,0.407,0.029,0.167,0.106
		c-0.231-0.016-0.406-0.037-0.294-0.122c0.032,0.04,0.127,0.016,0.261,0.025c0.018-0.112-0.198-0.151-0.318-0.225
		c0.206,0,0.411,0,0.613-0.015L181.006,78.045z"/>
	<path clip-path="url(#SVGID_2_)" fill="#FFFFFF" d="M182.424,78.006l-0.131,0.019c-0.046,0.081,0.094,0.094,0.229,0.1
		c-0.591,0.044-0.052-0.197-0.411-0.23C182.111,77.955,182.465,77.928,182.424,78.006"/>
	<path clip-path="url(#SVGID_2_)" fill="#FFFFFF" d="M181.743,78.47c-0.274-0.096-0.524,0.045-0.593-0.122
		c0.225,0.039,0.451,0.064,0.688,0.077L181.743,78.47z"/>
	<path clip-path="url(#SVGID_2_)" fill="#FFFFFF" d="M185.659,76.39c0.097-0.182,0.054-0.085,0.286-0.317
		c-0.105,0.114-0.223,0.226-0.334,0.338L185.659,76.39z"/>
	<path clip-path="url(#SVGID_2_)" fill="#FFFFFF" d="M186.818,67.52c0.058,0.279,0.082,0.515,0.236,0.902
		C186.876,68.044,186.837,67.62,186.818,67.52"/>
	<path clip-path="url(#SVGID_2_)" fill="#FFFFFF" d="M183.861,64.211c0.034-0.045-0.099-0.125,0.102-0.062
		c0.08,0.074-0.102,0.128,0.228,0.216C184.078,64.308,183.972,64.253,183.861,64.211"/>
	<path clip-path="url(#SVGID_2_)" fill="#FFFFFF" d="M183.617,63.794l-0.169-0.18C183.441,63.634,183.501,63.703,183.617,63.794"/>
	<polygon clip-path="url(#SVGID_2_)" fill="#FFFFFF" points="186.727,74.176 186.763,74.166 186.775,74.105 	"/>
	<path clip-path="url(#SVGID_2_)" fill="#FFFFFF" d="M187.047,73.645c-0.083,0.124-0.179,0.239-0.264,0.357l-0.008,0.103
		C186.917,73.853,186.971,73.977,187.047,73.645"/>
	<path clip-path="url(#SVGID_2_)" fill="#FFFFFF" d="M186.837,74.144l-0.074,0.022c-0.071,0.381-0.321,0.427-0.563,0.889
		C186.51,74.799,186.715,74.44,186.837,74.144"/>
	<path clip-path="url(#SVGID_2_)" fill="#FFFFFF" d="M186.755,74.588l-0.019,0.167c-0.086,0.111-0.132,0.077-0.143,0.054
		c-0.045,0.088-0.08,0.17-0.125,0.262c0.041,0.163,0.513-0.594,0.609-0.81C186.971,74.377,186.868,74.492,186.755,74.588"/>
	<polygon clip-path="url(#SVGID_2_)" fill="#FFFFFF" points="185.686,77.413 185.693,77.403 185.678,77.413 	"/>
	<path clip-path="url(#SVGID_2_)" fill="#FFFFFF" d="M186.565,76.964l-0.113-0.172c-0.282,0.321-0.43,0.282-0.759,0.61l-0.008,0.011
		C185.938,77.456,186.222,77.097,186.565,76.964"/>
	<path clip-path="url(#SVGID_2_)" fill="#FFFFFF" d="M187.4,73.214c-0.104,0.357-0.213,0.619-0.154,0.772
		c0.103-0.215,0.196-0.432,0.273-0.655C187.363,73.565,187.449,73.287,187.4,73.214"/>
	<path clip-path="url(#SVGID_2_)" fill="#FFFFFF" d="M187.892,72.718c-0.014,0.118-0.037,0.227-0.064,0.343l0.097-0.134
		C187.904,72.906,187.892,72.842,187.892,72.718"/>
	<path clip-path="url(#SVGID_2_)" fill="#FFFFFF" d="M187.925,72.927c0.024,0.018,0.072-0.027,0.101-0.154L187.925,72.927z"/>
	<path clip-path="url(#SVGID_2_)" fill="#FFFFFF" d="M187.892,73.65c0.184-0.185,0.048-0.209,0.168-0.589
		C187.939,72.996,187.959,73.453,187.892,73.65"/>
	<polygon clip-path="url(#SVGID_2_)" fill="#FFFFFF" points="188.286,72.021 188.393,71.896 188.258,71.857 	"/>
	<path clip-path="url(#SVGID_2_)" fill="#FFFFFF" d="M187.4,69.218c0.215,0.309,0.063-0.243,0.106-0.297L187.4,69.218z"/>
	<path clip-path="url(#SVGID_2_)" fill="#FFFFFF" d="M188.622,71.589l-0.132,0.125l0.067,0.071
		c-0.012,0.106-0.014,0.271-0.077,0.357C188.622,72.243,188.594,71.794,188.622,71.589"/>
	<path clip-path="url(#SVGID_2_)" fill="#FFFFFF" d="M188.193,70.02c0.005-0.133,0.012-0.262,0.005-0.402"/>
	<path clip-path="url(#SVGID_2_)" fill="#FFFFFF" d="M188.988,72.618c0.059,0.027,0.318-0.597,0.164,0.13
		c0.058-0.278,0.101-0.684,0.18-0.416c0.047-0.465-0.137-0.05-0.175-0.36C189.22,72.234,189.047,72.412,188.988,72.618"/>
	<path clip-path="url(#SVGID_2_)" fill="#FFFFFF" d="M189.21,71.525c0.043-0.224,0.073-0.5,0.016-0.626
		C189.226,71.131,189.127,71.324,189.21,71.525"/>
	<polygon clip-path="url(#SVGID_2_)" fill="#FFFFFF" points="189.53,71.319 189.417,71.64 189.562,71.449 	"/>
	<line clip-path="url(#SVGID_2_)" fill="#FFFFFF" x1="187.533" y1="67.342" x2="187.376" y2="67.438"/>
	<path clip-path="url(#SVGID_2_)" fill="#FFFFFF" d="M189.433,69.954c0.049,0.282,0.085,0.556,0.109,0.838
		c0.013-0.257,0.013-0.515,0-0.767c-0.157-0.44-0.16-0.21-0.163,0.119C189.385,70.051,189.401,69.974,189.433,69.954"/>
	<path clip-path="url(#SVGID_2_)" fill="#FFFFFF" d="M189.295,70.855l0.061,0.246c0.036,0.007,0.023-0.361,0.016-0.687
		C189.359,70.632,189.339,70.826,189.295,70.855"/>
	<path clip-path="url(#SVGID_2_)" fill="#FFFFFF" d="M189.372,70.414l0.007-0.27C189.372,70.22,189.372,70.314,189.372,70.414"/>
	<path clip-path="url(#SVGID_2_)" fill="#FFFFFF" d="M186.381,65.925c0.147,0.172,0.285,0.348,0.422,0.536
		C186.684,66.228,186.548,66.067,186.381,65.925"/>
	<path clip-path="url(#SVGID_2_)" fill="#FFFFFF" d="M189.479,69.324l-0.029-0.127h-0.144
		C189.384,69.43,189.448,69.318,189.479,69.324"/>
	<path clip-path="url(#SVGID_2_)" fill="#FFFFFF" d="M189.449,68.246c0.011-0.239-0.254-0.645-0.342-0.809
		c0.024,0.301,0.152,0.588,0.232,0.936C189.254,68.025,189.392,68.249,189.449,68.246"/>
	<path clip-path="url(#SVGID_2_)" fill="#FFFFFF" d="M189.197,67.176c0.108,0.235,0.21,0.466,0.295,0.702
		C189.586,67.68,189.346,67.463,189.197,67.176"/>
	<path clip-path="url(#SVGID_2_)" fill="#FFFFFF" d="M188.545,66.139c-0.036-0.042-0.049,0.018-0.146-0.079
		c0.013,0.125,0.173,0.321,0.25,0.497C188.63,66.412,188.587,66.283,188.545,66.139"/>
	<path clip-path="url(#SVGID_2_)" fill="#FFFFFF" d="M188.645,72.191c0.008-0.184,0.024-0.365,0.018-0.53
		c-0.044,0.261-0.09,0.515-0.153,0.772C188.557,72.358,188.608,72.284,188.645,72.191"/>
	<path clip-path="url(#SVGID_2_)" fill="#FFFFFF" d="M177.82,77.368c-0.722-0.028-1.836-0.771-2.334-1.305
		c-0.795-0.863-1.784-2.097-2.059-3.56l0.053,0.002c-0.127-1.116-0.144-2.62,0.337-3.798l-0.099,0.036
		c-0.089,0.195-0.173,0.462-0.211,0.273c0.111-0.267,0.294-0.603,0.382-0.66l-0.006-0.245c0.143-0.134,0.287,0.102,0.465-0.361
		c-0.085-0.408,0.766-0.811,0.529-1.013c0.271-0.031,0.451-0.496,0.651-0.655l-0.226,0.015c0.43-0.324,0.947-0.448,1.124-0.611
		c0.494-0.406,1.264-0.812,1.905-1.083c0.193,0.102-0.678,0.244-0.204,0.259c0.552-0.372,1.36-0.523,2.168-0.496
		c0.821,0.015,1.637,0.203,2.397,0.351c-0.035-0.024-0.163-0.075-0.054-0.075c0.248,0.214,0.685,0.22,1.103,0.519
		c-0.011-0.141-0.625-0.426-0.849-0.504c0.241-0.203,0.11,0.09,0.731,0.275c-0.038-0.03-0.112-0.099-0.1-0.117
		c0.621,0.22,0.17,0.26,0.621,0.444c-0.065-0.075-0.129-0.142-0.195-0.206c0.418,0.24,0.16,0.027,0.663,0.272
		c-0.152,0.085,0.01,0.322,0.105,0.415c0.096-0.024,0.464,0.334,0.502,0.191c0.291,0.648,0.688,0.507,0.866,1.166
		c0.262,0.129-0.049-0.294,0.047-0.339c0.473,0.448,0.008,0.255,0.121,0.462c0.168,0.116,0.675,0.788,0.712,1.173l0.112-0.034
		c0.15,0.542,0.38,1.408,0.247,1.637c0.211,0.178,0.119-0.232,0.017-0.596c0.054-0.102,0.214,0.26,0.228,0.455
		c-0.018-0.098,0.041-0.142-0.041-0.234c0.087-0.054,0.102,0.228,0.144,0.33c0.101,0.658-0.111-0.238-0.117,0.042
		c0.097,0.227,0.153,0.852,0.26,0.575c0.07,0.531-0.13,0.225-0.171,0.495c0.08-0.416-0.169-0.522-0.089-0.843
		c-0.072-0.086-0.106-0.041-0.13,0.092c0.13,0.421,0.032,1.228,0.178,1.213l-0.113,0.21l0.107,0.214l-0.042,0.085
		c0.176-0.188,0.26-0.609,0.393-0.774c0.063-0.037,0.049,0.256,0.049,0.404l-0.128,0.112c-0.054,0.376,0.23,0.315,0.105,0.839
		c-0.105-0.344-0.322,0.545-0.549,0.848c0.162,0.458,0.233,0.008,0.362,0.417c-0.115,0.376-0.301,0.987-0.62,1.365
		c0.536-1.012-0.43,0.389-0.098-0.462c-0.113,0.155-0.153,0.306-0.25,0.47c-0.265,0.008-0.015-0.322-0.283-0.201l0.093,0.145
		c-0.242,0.155-0.451,0.198-0.795,0.544c0.023,0.086-0.07,0.334-0.254,0.468c-0.136-0.03-0.175-0.028-0.506,0.268
		c-0.23,0.391-0.005,0.338,0.331,0.164c0.328-0.172,0.727-0.499,0.889-0.492c0.443-0.506,0.783-0.704,1.168-0.973
		c0.36-0.265,0.781-0.61,1.11-1.501c-0.026-0.318-0.062-0.221-0.009-0.769c-0.17-0.405-0.342,0.756-0.615,1.005
		c0.008-0.166,0.012-0.33,0.097-0.46l-0.218,0.113c0.129-0.804,0.371-0.371,0.416-1.115l0.015,0.166c0-0.143,0.007-0.281,0-0.426
		l-0.037,0.096c0.014-0.259-0.105-0.339-0.037-0.732l0.102,0.336c-0.076-0.225,0.127-0.282,0.062-0.609
		c0.065,0.179,0.162,0.236,0.153,0.352c0.079-0.487,0.071-0.934,0.019-1.354c-0.304-1.432-0.835-2.736-1.628-3.939l0.058,0.172
		c-0.187-0.174-0.245-0.335-0.285-0.499c-0.155-0.214-0.33-0.426-0.508-0.632c-0.458-0.374-0.845-0.642-1.458-1.023
		c0.018-0.085,0.074-0.087,0.15-0.052c-0.237-0.115-0.381-0.166-0.204,0.034c-0.401-0.197-0.544-0.354-0.846-0.497
		c0.25,0.058,0.502,0.122,0.749,0.203c-0.261-0.203-0.328-0.034-0.699-0.269c-0.649-0.209,0.223,0.248,0.085,0.333
		c-0.075-0.042-0.157-0.088-0.232-0.124c0.062,0.085,0.127,0.179,0.182,0.269c-0.499-0.282-0.73-0.499-0.941-0.668
		c0.125,0.056,0.251,0.129,0.383,0.19c0.218-0.14-0.665-0.249-0.823-0.391h0.057c-0.65-0.157,0.115,0.131-0.33,0.052
		c-0.245-0.103-0.496-0.201-0.756-0.282l0.117,0.143c-0.458,0.012-1.34-0.225-2.131-0.149c-0.444,0.022-1.005,0.239-1.527,0.439
		c0.108-0.006,0.326-0.036,0.271,0.018c-0.319,0.082-0.984,0.354-0.802,0.134c-0.137,0.091-0.259,0.199-0.386,0.284
		c-0.153,0.078-0.28,0.122-0.389,0.145l0.146-0.009c-0.164,0.097-0.325,0.209-0.467,0.315c-0.01-0.028-0.223,0.033,0.014-0.125
		c-0.627,0.204-1.118,0.894-1.819,1.551l0.154-0.26c-0.322,0.49-0.531,0.385-0.854,0.947l0.16-0.055
		c-0.243,0.379-0.766,1.047-0.776,0.906c0.187,0.172-0.191,0.199-0.117,0.542l-0.323,0.163c-0.053,0.299-0.125,0.585,0.058,0.443
		c-0.261,0.393-0.384,0.761-0.295,1.053c0,0,0.003,0.006,0.003,0.011l0.003,0.009l-0.003-0.002
		c-0.011,0.106-0.129,0.533,0.003,0.361c-0.144,1.016-0.319,0.517-0.352,1.521l0.178,0.04c-0.048,0.765,0.212,1.498,0.463,2.004
		l-0.118,0.109c0.149,0.36,0.104-0.109,0.322,0.452c0,0.084-0.021,0.172-0.057,0.168c0.212,0.546,0.458,1.294,0.972,2.023
		c-0.025,0.008-0.11-0.073-0.162-0.112c0.225,0.314,0.666,0.762,1.014,1.038c0.523,0.903,1.734,1.965,3.119,2.352
		c1.147,0.013,1.845-0.363,1.961-0.744C179.644,78.388,178.741,78.037,177.82,77.368"/>
	<path clip-path="url(#SVGID_2_)" fill="#FFFFFF" d="M144.573,176.795c-2.868,0-5.318-2.169-5.608-5.076
		c-0.316-3.106,1.936-5.873,5.04-6.195c27.014-2.734,47.389-25.312,47.389-52.503c0-7.024-1.36-13.848-4.03-20.273
		c-1.197-2.88,0.164-6.185,3.046-7.385c2.882-1.195,6.182,0.166,7.382,3.047c3.249,7.812,4.892,16.084,4.892,24.611
		c0,33.009-24.736,60.412-57.536,63.745C144.953,176.783,144.764,176.795,144.573,176.795"/>
	<path clip-path="url(#SVGID_2_)" fill="#FFFFFF" d="M200.965,131.235c0.544-1.88,1.312-5.146,1.327-4.568l0.163-0.373
		c-0.163,0.819-0.647,2.921-1.111,4.368C200.902,132.109,200.573,132.918,200.965,131.235"/>
	<path clip-path="url(#SVGID_2_)" fill="#FFFFFF" d="M200.229,131.501c0.518-1.588,0.197-0.357,0.162-0.058
		c-0.216,0.735-0.465,1.468-0.709,2.195C199.395,134.278,199.987,132.434,200.229,131.501"/>
	<path clip-path="url(#SVGID_2_)" fill="#FFFFFF" d="M199.224,130.203l-0.217,0.626c0.217-0.626,0.504-1.562,0.648-2.176
		c0.081-0.033-0.144,1.177-0.552,2.427C199.134,130.791,199.47,129.556,199.224,130.203"/>
	<path clip-path="url(#SVGID_2_)" fill="#FFFFFF" d="M201.167,97.454c-0.336-0.43-0.068,1.766,0.207,4.502l-0.536-0.957
		c-0.192-2.061-1.28-6.054-2.392-9.084c-0.472-1.14,0.871,2.863-0.239-0.104c-0.072-0.354,0.105-0.136-0.104-0.775
		c-0.529-1.32-0.768-1.59-1.103-2.256c-0.165-0.3-0.361-0.653-0.775-1.152c-0.419-0.484-1.09-1.149-2.329-1.547
		c-0.535-0.221-1.123-0.339-1.729-0.349c-1.149,0.1-2.269,0.628-3.077,1.472c-0.798,0.835-1.278,1.979-1.327,3.139
		c-0.021,0.58,0.064,1.162,0.248,1.708c0.087,0.257,0.223,0.559,0.358,0.896c0.127,0.314,0.269,0.636,0.39,0.959
		c0.508,1.287,0.957,2.597,1.364,3.911c1.615,5.273,2.327,10.756,2.169,15.954c0.081,0.927,0.055,2.737-0.126,4.705
		c-0.173,1.974-0.5,4.097-0.782,5.694l-0.119,0.052c-0.187,1.869-1.238,4.876-2.007,7.035c-0.271,0.645-0.535,1.279-0.834,1.901
		c-0.227,0.336,0.323-1.039,0.727-2.316c0.42-1.274,0.719-2.443,0.322-1.601c-1.493,4.109-2.404,7.028-4.405,10.23
		c-1.888,3.132-1.616,2.807-2.844,4.723c-0.252,0.533,0.504-0.547,0.467-0.284c-2.358,3.388-3.958,4.899-5.436,6.291
		c-1.514,1.365-2.944,2.632-5.752,4.883c-0.124,0.258-4.7,3.827-0.261,0.754c0.662-0.548,1.308-1.11,1.94-1.693
		c0.471-0.341,0.941-0.692,1.395-1.054c-1.451,1.37-4.389,3.546-3.982,3.393c-1.155,0.63-3.944,2.608-6.036,3.801
		c-2.091,1.187-3.321,1.812-0.985,0.307c3.036-1.51,3.839-2.106,5.576-3.46c-6.336,4.311-12.778,6.645-18.876,8.001
		c-0.594,0.185-1.187,0.376-1.774,0.538c-0.082-0.07-0.88,0-2.034,0.119l-1.946,0.179c-0.726,0.045-1.347,0.133-1.997,0.396
		c-1.109,0.455-2.094,1.646-1.775,1.432c-0.06,0.125,0.273-0.314,0.941-0.769c0.675-0.47,1.657-0.829,2.664-0.871
		c2.122-0.204,3.657-0.379,1.003,0.153l-1.305,0.13c-0.359,0.037-0.719,0.11-1.064,0.229c-0.692,0.229-1.327,0.628-1.848,1.141
		c-1.056,1.027-1.562,2.535-1.42,3.926c0.118,1.387,0.936,2.608,1.941,3.379c1.007,0.789,2.184,1.16,3.197,1.222
		c-1.501,0.007-2.771-0.559-3.764-1.399c-0.99-0.853-1.793-2.045-1.944-3.694c-0.071-1.387,0.448-2.82,1.419-3.867
		c0.973-1.072,2.377-1.704,3.853-1.796c2.957-0.335,5.913-0.917,8.788-1.746c5.75-1.637,11.154-4.311,15.647-7.629
		c0.42-0.126,2.817-1.877,2.182-1.246c0.902-0.548,3.027-2.492,3.7-2.91c3.146-3.026,6.202-6.675,8.675-10.589
		c2.488-3.902,4.385-8.047,5.605-11.784c-0.493,0.987-0.138-0.148,0.32-1.819c0.47-1.668,0.954-3.897,1.088-4.982
		c0.529-1.993,0.912-5.529,0.954-8.129c-0.034-0.288-0.052-1.901-0.138-1.514c0.023,1.925-0.079,2.619-0.27,4.581
		c-0.14-0.813,0.326-4.215,0.182-7.143c0.064,0.507,0.13,1.013,0.17,1.524c-0.026-2.444-0.149-5.126-0.507-7.733
		c-0.345-2.6-0.925-5.109-1.687-7.193c0.298,1.227,0.568,2.447,0.768,3.683c-0.652-2.646-1.551-5.561-2.622-8.232
		c-0.54-1.356-0.501-2.839-0.075-4.06c0.433-1.238,1.221-2.197,2.033-2.84c-0.782,0.511-1.544,1.364-1.995,2.39
		c-0.459,1.02-0.589,2.189-0.444,3.19c0.135,1.02,0.554,1.814,0.732,2.386c0.203,0.57,0.271,0.921,0.203,0.921
		c-0.059-0.035-0.191-0.31-0.374-0.728c-0.179-0.427-0.433-0.921-0.672-1.641c-0.47-1.4-0.226-3.174,0.267-4.147
		c0.988-2.149,3.095-3.476,5.181-3.623c2.1-0.172,4.165,0.781,5.366,2.388c0.299,0.397,0.553,0.833,0.749,1.289l0.535,1.27
		c0.345,0.852,0.673,1.707,0.958,2.579C200.327,93.821,200.815,95.604,201.167,97.454"/>
	<path clip-path="url(#SVGID_2_)" fill="#FFFFFF" d="M197.235,86.001c-1.5-1.468-2.897-1.713-3.75-1.817
		c-0.89-0.076-1.398,0.031-1.858,0.149c-0.472,0.132-0.925,0.267-1.653,0.637c-0.697,0.377-1.794,0.979-2.759,2.602
		c0.191-0.445-0.299,0.064-0.706,1.144c-0.429,1.062-0.487,2.75-0.023,3.985c0.963,2.076,1.735,4.507,2.252,6.38
		c0.284,1.282,0.107,1.132-0.629-1.313c-0.378-1.532-0.919-3.121-1.585-4.737c-0.791-1.878-0.632-4.184,0.487-5.967
		c1.081-1.798,3.079-2.976,5.094-3.103C194.132,83.803,196.067,84.682,197.235,86.001"/>
	<path clip-path="url(#SVGID_2_)" fill="#FFFFFF" d="M199.224,92.174c-0.599-1.674-0.73-2.219-0.855-2.761
		c-0.07-0.263-0.137-0.527-0.28-0.933c-0.135-0.395-0.368-0.984-0.977-1.676c0.568,0.536,0.836,1.031,1.082,1.708l1.109,3.083
		c-0.238-0.581-0.508-1.15-0.755-1.728C198.78,90.636,199.021,91.402,199.224,92.174"/>
	<path clip-path="url(#SVGID_2_)" fill="#FFFFFF" d="M189.195,99.764c0.297,1.074,0.698,2.906,0.912,4.499
		c0.224,1.585,0.278,2.936,0.185,3.02c0.015,0.331-0.139-0.218,0.015,1.033c-0.05-0.996-0.247-2.916-0.527-4.702
		C189.504,101.835,189.169,100.206,189.195,99.764"/>
	<path clip-path="url(#SVGID_2_)" fill="#FFFFFF" d="M187.289,90.041c-0.042,0.601,0.004,1.213,0.175,1.874
		c0.171,0.634,0.554,1.392,0.884,2.31l-0.828-1.926C187.273,91.621,187.167,90.835,187.289,90.041"/>
	<path clip-path="url(#SVGID_2_)" fill="#FFFFFF" d="M190.238,102.545c0.077-0.466,0.4,1.887,0.483,2.529l0.125,1.346
		C190.656,105.16,190.365,103.581,190.238,102.545"/>
	<path clip-path="url(#SVGID_2_)" fill="#FFFFFF" d="M190.066,121.885c-0.617,3.204,0.366-3.376-0.307,0.44
		c0.121-0.729,0.232-1.472,0.319-2.205l0.353-0.788C190.329,120.188,190.208,121.037,190.066,121.885"/>
	<path clip-path="url(#SVGID_2_)" fill="#FFFFFF" d="M188.788,126.704c-0.185,0.902-0.434,1.827-1,3.362l0.2-0.877
		C188.137,128.6,188.46,127.94,188.788,126.704"/>
	<path clip-path="url(#SVGID_2_)" fill="#FFFFFF" d="M190.273,122.653c-0.245,1.568-0.327,1.315-0.601,2.279
		C189.78,124.354,190.533,121.075,190.273,122.653"/>
	<path clip-path="url(#SVGID_2_)" fill="#FFFFFF" d="M186.442,138.209c0.539-1.434,1.975-4.164,2.896-6.974
		C188.369,134.017,187.989,135.229,186.442,138.209"/>
	<path clip-path="url(#SVGID_2_)" fill="#FFFFFF" d="M190.307,152.6c-0.878,1.056-1.884,2.321-2.464,3.08l0.517-0.501
		C189.035,154.338,189.671,153.471,190.307,152.6"/>
	<path clip-path="url(#SVGID_2_)" fill="#FFFFFF" d="M199.951,135.216c0.269-1.483-0.425,1.002-1.696,3.474
		c-1.487,3.345-3.139,6.813-5.157,9.867c-0.377,0.639-0.744,1.278-1.14,1.904c1.291-1.755,2.954-4.282,4.414-7.038
		C197.851,140.667,199.128,137.686,199.951,135.216"/>
	<path clip-path="url(#SVGID_2_)" fill="#FFFFFF" d="M199.758,132.226c-0.887,2.527-2.014,5.812-2.855,7.578
		c1.431-2.959,2.847-6.975,3.46-9.189C200.39,130.324,199.989,131.593,199.758,132.226"/>
	<path clip-path="url(#SVGID_2_)" fill="#FFFFFF" d="M162.462,173.712c2.158-0.843,4.699-1.956,7.187-3.286
		c2.497-1.347,4.928-2.913,6.909-4.52c-1.967,1.298-2.018,1.325-5.187,3.164c2.211-1.643,4.812-2.95,7.413-4.997
		c-2.176,1.588,0.577-0.632,2.277-2.166c1.671-1.387,3.719-3.317,5.734-5.555c2.024-2.231,3.994-4.765,5.63-7.229
		c0.682-1.082,2.15-3.391,3.208-5.386c1.073-1.989,1.772-3.642,1.391-3.154c1.469-3.279,1.84-3.667,2.819-6.171
		c1.145-3.822,2.148-7.253,2.9-10.846c0.744-3.587,1.198-7.359,0.919-11.665c0.222,0.526,0.054-3.757-0.141-5.425
		c-0.155-1.819-0.605-4.869-1.144-7.183c-0.543-2.313-1.097-3.906-0.995-2.946c0.464,2.425,1.782,7.288,1.839,11.112
		c0.039,3.267-0.066,1.563-0.319-0.947c-0.257-2.515-0.891-5.812-1.056-5.833c0.214,0.918,0.098,1.468,0.565,4.302
		c-0.474-3.02-0.501-2.371-0.42-1.372c0.048,1.008,0.141,2.367-0.161,0.839c0.361,3.457,0.337,5.037,0.321,6.17
		c-0.028,1.15-0.106,1.87-0.321,3.613c-0.079,4.132,0.181,2.999,0.248,4.199c-0.241,4.43-1.24,7.812-2.167,11.517
		c0.142-1.458-0.315,0.082-1.101,2.462c-0.781,2.389-2.035,5.587-3.009,7.613c-1.273,2.606-1.464,3.062-1.62,3.58
		c-0.18,0.517-0.335,1.086-1.999,3.689c-0.926,1.235-0.126-0.115,0.562-1.382c0.68-1.261,1.25-2.44,0.147-0.758
		c-0.458,0.819-0.93,1.635-1.417,2.44c-0.845,1.601-1.497,2.917-2.727,4.708c-0.799,1.022-2.056,2.501-2.147,2.489
		c1.58-1.988,0.961-1.475-0.862,0.444c-0.775,0.964-0.972,1.206-1.336,1.671c1.954-1.734,1.06-0.702-0.693,1.058
		c-1.761,1.761-4.502,4.073-5.882,5.304c-2.048,1.725-3.474,2.668-4.485,3.296c-1.018,0.626-1.663,0.917-2.298,1.193
		c-1.289,0.529-2.489,1.15-7.225,3.401c1.562-0.456,0.009,0.343-2.379,1.29c-2.391,0.978-5.66,1.931-7.319,2.422
		c-2.848,0.689-3.923,0.736-5.951,0.94c-0.784,0.179-3.022,0.472-3.353,0.583c1.642,0.385,8.639,0.329,17.245-2.492
		C162.283,173.809,162.479,173.724,162.462,173.712"/>
	<path clip-path="url(#SVGID_2_)" fill="#FFFFFF" d="M80.483,112.685c-0.194,0-0.382-0.004-0.568-0.025
		c-3.109-0.316-5.371-3.083-5.055-6.188c3.331-32.801,30.733-57.537,63.746-57.537c8.771,0,17.282,1.75,25.295,5.198
		c2.869,1.229,4.189,4.55,2.961,7.418c-1.233,2.857-4.556,4.186-7.422,2.953c-6.593-2.839-13.602-4.277-20.834-4.277
		c-27.193,0-49.773,20.374-52.507,47.386C85.799,110.519,83.346,112.685,80.483,112.685"/>
	<path clip-path="url(#SVGID_2_)" fill="#FFFFFF" d="M84.794,107.989c0.042-0.145,0.073-0.294,0.092-0.433l0.077-0.513l0.138-0.937
		c0.098-0.569,0.172-1.024,0.262-1.396c0.167-0.753,0.287-1.171,0.399-1.46c0.219-0.577,0.337-0.638,0.675-1.788
		c-0.202,1.078-0.386,2.159-0.533,3.248c-0.093,0.535-0.181,1.108-0.273,1.695c-0.092,0.59-0.144,1.235-0.268,1.709
		c-0.262,1.025-0.924,1.9-1.618,2.452c-0.701,0.564-1.406,0.828-1.825,0.937c-0.429,0.097-0.581,0.082-0.341-0.042
		c0.155-0.063,0.846-0.317,1.569-0.914C83.876,109.953,84.561,108.996,84.794,107.989"/>
	<path clip-path="url(#SVGID_2_)" fill="#FFFFFF" d="M80.613,112.287c0.559-0.06,0.66-0.054,1.206-0.208
		c-0.5,0.238-1.055,0.393-1.622,0.474C80.342,112.467,80.475,112.384,80.613,112.287"/>
	<path clip-path="url(#SVGID_2_)" fill="#FFFFFF" d="M87.59,96.751c0.301-0.978,0.629-1.952,0.983-2.909
		c0.278-0.656-0.297,0.987-0.231,0.911c0.42-1.071,0.882-2.128,1.366-3.169c-0.977,2.125-1.297,3.242-1.524,3.89
		C87.975,96.133,87.876,96.334,87.59,96.751"/>
	<path clip-path="url(#SVGID_2_)" fill="#FFFFFF" d="M113.239,67.224c2.048-0.964-1.428,1.022-2.125,1.624
		c-1.606,0.984-3.043,1.851-1.856,0.903C111.337,68.365,112.193,67.828,113.239,67.224"/>
	<path clip-path="url(#SVGID_2_)" fill="#FFFFFF" d="M95.732,80.752c-0.272,0.529-1.411,2.137-2.316,3.627
		c-0.923,1.48-1.613,2.821-1.359,2.573c0.215-0.209,0.433-0.419,0.896-1.084c0.535-0.984,1.103-1.958,1.7-2.902
		c2.486-3.412,2.074-2.61,1.388-1.609c-0.652,1.036-1.484,2.349,0.248,0.135l1.388-1.861c1.681-2.176,1.137-1.607,0.016-0.453
		c2.572-3.079,3.642-3.772,4.288-4.219c0.674-0.434,0.993-0.565,2.625-1.978c2.25-1.924,2.693-2.297,2.616-2.409
		c-0.058-0.106-0.591,0.127-0.05-0.352c0.089,0.17,2.326-1.356,5.695-3.109c3.346-1.753,7.884-3.602,12.105-4.68
		c7.837-2.264,17.267-2.367,26.751-0.148c2.008,0.548,4.292,1.302,6.656,2.301l0.887,0.384c0.322,0.142,0.669,0.261,1.017,0.339
		c0.702,0.178,1.453,0.221,2.186,0.131c1.468-0.18,2.896-0.915,3.895-2.056c0.009,0.015,0.034,0.015,0.041,0.036
		c0.083-0.124,0.127-0.208,0.112-0.218c0.752-0.815,1.47-2.246,1.462-3.912c0.023-1.643-0.738-3.402-1.975-4.54
		c-0.599-0.572-1.319-1.005-1.98-1.277l-1.714-0.719c-1.014-0.435-1.731-0.747-1.93-0.925l-0.958-0.298
		c-4.758-1.476,0.054-0.162-2.663-1.085c-2.22-0.628-4.823-1.299-7.191-1.73c-2.356-0.436-4.483-0.65-5.68-0.566
		c-0.367-0.057,0.126-0.031-0.248-0.087c-1.243-0.07-2.491-0.109-3.729-0.112c-0.261,0.078-1.009,0.172-0.392,0.269
		c-0.865-0.018-1.615,0.09-2.846,0.09c-3.104,0.128-0.376-0.172-1.5-0.191c-3.913,0.243-8.082,0.861-12.117,1.845
		c-4.042,0.978-7.933,2.316-11.375,3.772c-0.055-0.137-2.061,0.675-4.367,1.904c-2.315,1.211-4.883,2.888-6.357,3.954
		c-3.045,1.971-6.02,4.558-8.57,7.229c-2.565,2.655-4.697,5.391-6.425,7.525c0.886-1.371,2.273-3.112,3.528-4.522
		c1.257-1.42,2.345-2.536,2.494-2.83c-0.376,0.329-0.744,0.668-1.111,1.013c-1.19,1.205-2.68,2.828-3.933,4.421
		c-1.277,1.58-2.32,3.121-2.787,4.013c1.156-1.482,1.343-1.507,1.77-1.964c-0.826,1.25-0.911,1.502-1.912,3.082
		c-1.486,2.303-2.918,4.931-3.046,4.858c0.648-1.356,1.503-2.74,2.223-3.908c0.061-0.255-0.555,0.644-1.268,1.81
		c-0.699,1.162-1.49,2.595-1.866,3.319c0.817-1.205,0.408-0.073,0.263,0.498c-0.126,0.585-0.104,0.552,1.838-2.763
		c-0.663,1.235-1.278,2.5-1.859,3.781c-0.515,1.53,0.948-1.538,2.464-3.985c1.514-2.445,2.89-4.352,1.133-1.198
		c-0.279,0.688,0.286-0.1-0.834,2.065c0.75-1.115,2.138-3.398,2.69-4.347c0.621-0.688,2.095-2.803,3.615-4.632
		c1.518-1.838,3.037-3.409,3.262-3.367c2.258-2.603,4.219-4.262,6.189-5.73c1.981-1.468,3.982-2.755,6.652-4.383
		c3.432-2.008,4.062-2.301,4-2.386c-0.049-0.076-0.76,0.148,0.225-0.469c3.598-1.732,7.277-3.306,9.576-4.117
		c2.082-0.663,3.416-0.83,2.02-0.413c7.914-2.052,16.24-2.615,24.371-1.637c4.065,0.481,8.078,1.372,11.963,2.622
		c1.945,0.627,3.856,1.347,5.728,2.16c1.489,0.616,2.522,2.099,2.615,3.688c0.039,1.285-0.507,2.528-1.399,3.357
		c-0.895,0.833-2.154,1.254-3.352,1.12c-0.641-0.066-1.051-0.244-1.911-0.617c-0.764-0.324-1.544-0.632-2.321-0.929
		c-1.559-0.596-3.138-1.151-4.777-1.69l1.087,0.37c0.144,0.088-0.706-0.139-1.375-0.284c1.068,0.354,2.098,0.728,3.056,1.122
		c-1.908-0.65-3.882-1.174-5.85-1.552c-1.113-0.089-3.935-0.581-6.879-0.76c-2.933-0.215-5.957-0.1-7.357,0.154
		c-2.769,0.17-4.55,0.439-5.828,0.633c-1.286,0.202-2.087,0.351-2.889,0.5c-0.797,0.157-1.598,0.326-2.87,0.662
		c-1.274,0.336-3.02,0.849-5.645,1.886c-5.534,2.389-11.627,6.331-16.729,11.292c-1.861,1.784-3.481,3.503-3.256,3.139
		c-2.047,2.338-4.638,5.973-6.197,8.791C85.732,98.662,92.251,84.59,95.732,80.752"/>
	<path clip-path="url(#SVGID_2_)" fill="#FFFFFF" d="M119.749,50.307c0.434-0.321-2.833,0.628-3.917,0.972l-1.393,0.587
		c-3.468,1.499-3.483,1.765-1.265,0.897c0.379-0.227,1.491-0.728,2.783-1.22C117.252,51.061,118.721,50.587,119.749,50.307"/>
	<path clip-path="url(#SVGID_2_)" fill="#FFFFFF" d="M149.786,48.406l-0.524,0.088c1.532,0.224,3.045,0.524,4.554,0.859
		C153.731,49.208,151.521,48.715,149.786,48.406"/>
	<path clip-path="url(#SVGID_2_)" fill="#FFFFFF" d="M76.388,96.85c0.558-2.085,1.056-3.51,1.588-4.949
		c0.547-1.437,1.112-2.893,2.005-4.989l-0.625,0.664c-1.864,4.028-3.517,8.479-4.468,13.74c-0.147,1.804,0.161,0.219,0.576-1.568
		C75.878,97.952,76.467,95.97,76.388,96.85"/>
	<path clip-path="url(#SVGID_2_)" fill="#FFFFFF" d="M79.885,88.212c-1.383,3.651-2.69,7.679-3.534,11.685
		c-0.433,1.992-0.737,3.977-0.926,5.873c-0.134,0.984-0.12,1.764,0.163,2.555c0.264,0.766,0.718,1.429,1.258,1.922
		c-0.136-0.415-0.671-1.181-0.902-2.304c-0.055-0.279-0.092-0.584-0.096-0.891c0-0.162,0.007-0.317,0.02-0.486l0.067-0.611
		c0.09-0.828,0.193-1.713,0.313-2.619c0.445-3.632,1.366-7.611,2.246-9.935c0.966-3.125,1.567-4.981,3.302-8.735
		C83.036,81.883,80.668,86.28,79.885,88.212"/>
	<path clip-path="url(#SVGID_2_)" fill="#FFFFFF" d="M78.144,111.679c0.71,0.405,1.637,0.578,2.094,0.596
		c0.313,0,0.048-0.048-0.314-0.131c-0.372-0.082-0.878-0.263-1.175-0.411c-0.359-0.145-0.982-0.463-1.272-0.632
		C77.207,110.921,77.158,111.056,78.144,111.679"/>
	<path clip-path="url(#SVGID_2_)" fill="#FFFFFF" d="M243.801,75.969h15.826c8.938,0,11.732,6.019,11.732,10.579
		c0,6.754-5.231,9.436-7.665,9.737v0.127c4.806,0.981,8.519,3.591,8.519,10.271c0,10.778-10.648,11.746-13.139,11.746h-15.273
		V75.969z M253.419,93.238h2.432c5.714,0,5.896-4.437,5.896-5.228c0-1.511-0.852-5.092-5.719-5.092h-2.609V93.238z M253.419,111.256
		h2.792c1.339,0,6.393,0,6.393-5.481c0-3.711-2.071-5.592-5.353-5.592h-3.832V111.256z"/>
	<path clip-path="url(#SVGID_2_)" fill="#FFFFFF" d="M312.175,75.97h15.572c6.993,0,12.962,3.1,12.962,10.952
		c0,1.769-0.244,8.761-8.457,10.393v0.127c3.107,0.369,4.32,2.075,5.905,7.115l4.368,13.872h-10.453l-3.295-11.371
		c-1.637-5.772-2.967-5.772-6.621-5.772v17.143h-9.981V75.97z M321.796,94.099h3.098c3.826,0,5.839-2.557,5.839-5.597
		c0-1.764-0.552-5.355-5.896-5.355h-3.041V94.099z"/>
	<path clip-path="url(#SVGID_2_)" fill="#FFFFFF" d="M403.915,108.938h-13.323l-2.921,9.49h-9.611l14.11-42.459h10.952
		l13.614,42.459h-10.214L403.915,108.938z M397.588,84.119h-0.13l-5.04,17.647h9.549L397.588,84.119z"/>
	<polygon clip-path="url(#SVGID_2_)" fill="#FFFFFF" points="447.712,75.97 458.417,75.97 465.902,106.927 466.015,106.927
		473.678,75.97 483.894,75.97 471.06,118.429 460.362,118.429 	"/>
	<rect x="521.86" y="75.97" clip-path="url(#SVGID_2_)" fill="#FFFFFF" width="9.977" height="42.459"/>
	<path clip-path="url(#SVGID_2_)" fill="#FFFFFF" d="M242.147,159.289l2.232-0.195c0.106,0.895,0.352,1.628,0.739,2.202
		c0.386,0.573,0.986,1.037,1.799,1.39c0.813,0.355,1.728,0.532,2.745,0.532c0.902,0,1.7-0.135,2.391-0.403
		c0.691-0.268,1.206-0.636,1.543-1.104c0.337-0.468,0.506-0.979,0.506-1.531c0-0.562-0.163-1.051-0.488-1.471
		c-0.325-0.417-0.862-0.771-1.61-1.055c-0.48-0.187-1.541-0.479-3.184-0.873c-1.643-0.395-2.794-0.766-3.452-1.115
		c-0.854-0.447-1.491-1.002-1.909-1.664c-0.419-0.665-0.629-1.405-0.629-2.228c0-0.902,0.256-1.746,0.769-2.53
		c0.512-0.786,1.26-1.382,2.244-1.788c0.984-0.406,2.079-0.609,3.283-0.609c1.325,0,2.494,0.213,3.506,0.64
		c1.013,0.428,1.791,1.055,2.336,1.886c0.545,0.829,0.838,1.768,0.879,2.816l-2.269,0.172c-0.122-1.131-0.535-1.984-1.238-2.562
		c-0.704-0.577-1.743-0.865-3.117-0.865c-1.432,0-2.475,0.262-3.129,0.785c-0.655,0.524-0.982,1.157-0.982,1.898
		c0,0.643,0.231,1.17,0.695,1.586c0.455,0.415,1.645,0.84,3.568,1.273c1.924,0.437,3.243,0.816,3.959,1.141
		c1.041,0.481,1.809,1.089,2.305,1.824c0.496,0.736,0.744,1.585,0.744,2.544c0,0.951-0.272,1.848-0.817,2.69
		c-0.545,0.841-1.328,1.496-2.348,1.964c-1.021,0.467-2.17,0.701-3.447,0.701c-1.618,0-2.974-0.237-4.067-0.707
		c-1.095-0.472-1.953-1.183-2.575-2.13S242.18,160.484,242.147,159.289"/>
	<path clip-path="url(#SVGID_2_)" fill="#FFFFFF" d="M280.882,156.325c0-2.97,0.797-5.293,2.392-6.972
		c1.593-1.679,3.651-2.521,6.173-2.521c1.65,0,3.138,0.395,4.464,1.184c1.325,0.789,2.336,1.89,3.032,3.3
		c0.694,1.412,1.043,3.012,1.043,4.801c0,1.813-0.367,3.437-1.099,4.868s-1.768,2.515-3.111,3.251
		c-1.342,0.735-2.789,1.104-4.342,1.104c-1.684,0-3.188-0.406-4.514-1.22c-1.326-0.812-2.33-1.923-3.013-3.33
		C281.223,159.383,280.882,157.894,280.882,156.325 M283.322,156.362c0,2.154,0.579,3.852,1.739,5.092
		c1.158,1.24,2.612,1.859,4.361,1.859c1.781,0,3.246-0.625,4.398-1.877c1.15-1.252,1.726-3.03,1.726-5.331
		c0-1.456-0.246-2.727-0.739-3.812c-0.491-1.088-1.212-1.928-2.159-2.525c-0.948-0.598-2.011-0.897-3.19-0.897
		c-1.676,0-3.116,0.576-4.324,1.727C283.926,151.747,283.322,153.67,283.322,156.362"/>
	<polygon clip-path="url(#SVGID_2_)" fill="#FFFFFF" points="323.143,165.035 323.143,147.151 335.208,147.151 335.208,149.262
		325.51,149.262 325.51,154.801 333.902,154.801 333.902,156.91 325.51,156.91 325.51,165.035 	"/>
	<polygon clip-path="url(#SVGID_2_)" fill="#FFFFFF" points="364.817,165.035 364.817,149.262 358.926,149.262 358.926,147.151
		373.102,147.151 373.102,149.262 367.185,149.262 367.185,165.035 	"/>
	<path clip-path="url(#SVGID_2_)" fill="#FFFFFF" d="M400.637,165.035l-4.746-17.884h2.429l2.72,11.723
		c0.293,1.229,0.545,2.449,0.757,3.659c0.455-1.909,0.724-3.013,0.805-3.305l3.403-12.077h2.855l2.562,9.051
		c0.642,2.246,1.105,4.354,1.391,6.331c0.228-1.129,0.524-2.427,0.89-3.891l2.807-11.491h2.379l-4.904,17.884h-2.281l-3.77-13.627
		c-0.316-1.139-0.504-1.838-0.561-2.098c-0.188,0.82-0.362,1.52-0.524,2.098l-3.794,13.627H400.637z"/>
	<path clip-path="url(#SVGID_2_)" fill="#FFFFFF" d="M440.189,165.035l6.868-17.884h2.55l7.319,17.884h-2.696l-2.086-5.417h-7.478
		l-1.965,5.417H440.189z M445.351,157.69h6.062l-1.866-4.952c-0.569-1.505-0.992-2.74-1.269-3.709
		c-0.228,1.146-0.548,2.285-0.964,3.416L445.351,157.69z"/>
	<path clip-path="url(#SVGID_2_)" fill="#FFFFFF" d="M480.84,165.035v-17.884h7.928c1.596,0,2.808,0.16,3.637,0.481
		s1.492,0.889,1.99,1.702c0.494,0.812,0.743,1.712,0.743,2.695c0,1.269-0.41,2.339-1.233,3.208c-0.821,0.871-2.09,1.424-3.805,1.659
		c0.625,0.302,1.101,0.599,1.426,0.892c0.692,0.634,1.347,1.427,1.965,2.379l3.111,4.867h-2.978l-2.366-3.721
		c-0.691-1.073-1.261-1.896-1.708-2.465c-0.447-0.568-0.848-0.968-1.202-1.195c-0.354-0.227-0.713-0.387-1.08-0.477
		c-0.268-0.057-0.707-0.085-1.316-0.085h-2.745v7.942H480.84z M483.206,155.044h5.088c1.081,0,1.927-0.111,2.537-0.335
		c0.609-0.225,1.073-0.583,1.391-1.073c0.317-0.493,0.476-1.027,0.476-1.605c0-0.846-0.308-1.541-0.921-2.086
		c-0.614-0.544-1.584-0.817-2.91-0.817h-5.66V155.044z"/>
	<polygon clip-path="url(#SVGID_2_)" fill="#FFFFFF" points="520.88,165.035 520.88,147.151 533.811,147.151 533.811,149.262
		523.247,149.262 523.247,154.739 533.14,154.739 533.14,156.837 523.247,156.837 523.247,162.925 534.226,162.925 534.226,165.035
			"/>
</g>
</svg>
