<?xml version="1.0" encoding="utf-8"?>
<!-- Generator: Adobe Illustrator 16.0.0, SVG Export Plug-In . SVG Version: 6.00 Build 0)  -->
<!DOCTYPE svg PUBLIC "-//W3C//DTD SVG 1.1//EN" "http://www.w3.org/Graphics/SVG/1.1/DTD/svg11.dtd">
<svg version="1.1" id="Layer_1" xmlns="http://www.w3.org/2000/svg" xmlns:xlink="http://www.w3.org/1999/xlink" x="0px" y="0px"
	 width="544.311px" height="159.348px" viewBox="0 0 544.311 159.348" enable-background="new 0 0 544.311 159.348"
	 xml:space="preserve">
<g>
	<g>
		<g>
			<path fill="#FFFFFF" d="M89.124,125.023c-3.225,0-6.069-2.373-6.538-5.67c-0.536-3.621,1.98-6.99,5.592-7.512
				c17.481-2.543,30.653-17.812,30.653-35.497c0-19.789-16.098-35.886-35.88-35.886c-17.799,0-32.703,12.737-35.445,30.286
				c-0.569,3.616-3.985,6.081-7.572,5.526c-3.607-0.574-6.087-3.961-5.519-7.576c3.756-24.039,24.171-41.487,48.536-41.487
				c27.094,0,49.134,22.046,49.134,49.138c0,24.219-18.06,45.12-41.996,48.614C89.77,125.001,89.448,125.023,89.124,125.023z"/>
			<g>
				<path fill="#FFFFFF" d="M89.624,125.058c-2.008,0.334,0.644,0.104,2.912-0.307c0.665-0.209,1.315-0.439,1.971-0.682
					C92.894,124.482,91.266,124.812,89.624,125.058z"/>
				<path fill="#FFFFFF" d="M100.45,122.238c1.728-0.764,3.409-1.613,5.02-2.555c-1.172,0.662-2.384,1.279-3.618,1.852
					c-4.227,1.586,0.491-0.387,1.974-1.215c-3.316,1.592-3.966,1.791-3.828,1.848C100.125,122.21,100.98,121.96,100.45,122.238z"/>
				<path fill="#FFFFFF" d="M110.164,116.914c2.957-2.074,2.023-1.623,0.784-0.764C110.797,116.345,108.875,117.724,110.164,116.914
					z"/>
				<path fill="#FFFFFF" d="M50.421,62.649c-0.412,0.902-0.817,2.011-0.802,1.843C49.335,65.577,49.188,65.765,50.421,62.649z"/>
				<path fill="#FFFFFF" d="M49.619,64.492l0.223-0.688l-0.222,0.635C49.604,64.503,49.62,64.466,49.619,64.492z"/>
				<path fill="#FFFFFF" d="M60.266,34.146c3.461-1.917,5.571-2.689,9.146-3.815c0.688-0.138,1.373-0.251,2.061-0.358
					c3.946-0.923,1.711-0.554,4.602-1.144c1.852-0.217,4.718-0.455,7.358-0.43c2.64,0,5.023,0.269,5.894,0.394
					c1.197,0.241-1.521-0.092-2.115-0.067c2.371,0.189,3.462,0.344,4.702,0.512c1.237,0.19,2.625,0.401,5.459,1.271l0.087,0.078
					c6.782,1.982,14.016,6.044,19.823,11.94c5.863,5.84,10.182,13.418,12.316,21.056c-0.275-1.038-0.176-0.785-0.249-1.193
					c2.484,8.001,2.819,17.351,0.667,25.697c-2.077,8.4-6.398,15.611-10.726,20.695c3.058-3.391,6.688-8.48,9.053-14.23
					c2.431-5.719,3.511-11.969,3.452-16.624c0.135-1.726,0.075-3.924-0.109-5.856c-0.171-1.936-0.452-3.598-0.483-4.319
					c-1.18-6.577-3.146-10.939-5.395-14.949c-2.321-3.984-5.008-7.722-9.639-12.111c-1.326-1.253-0.612-0.724-0.942-1.144
					c2.555,2.209,4.888,4.688,6.959,7.377c-1.236-1.656-2.55-3.257-3.981-4.756c0.968,0.928,2.527,2.642,3.788,4.288
					c1.283,1.623,2.28,3.153,2.561,3.425c-2.456-3.728-6.218-8.209-10.648-11.744c-4.383-3.581-9.337-6.126-12.985-7.429
					c3.378,1.374,7.45,3.463,10.911,6.037c1.521,1.145,3.697,3.112,3.49,3.062c-4.689-3.974-9.597-6.833-14.864-8.871
					c-5.255-2.007-10.917-3.204-17.199-3.215c-3.157-0.06-7.406,0.469-7.928,0.505c2.039-0.331,0.485-0.182,2.171-0.437
					c-2.213,0.301-2.312,0.437-2.648,0.547c-0.351,0.151-0.954,0.219-4.08,0.955l0.721-0.483c-1.209,0.448-3.12,0.931-5.228,1.668
					c-2.105,0.715-4.413,1.689-6.396,2.853c-1.5,0.714,1.088-0.934,4.383-2.278c-1.871,0.74-2.842,1.27-3.716,1.746
					c-0.872,0.491-1.629,0.955-3.009,1.772c0.812-0.6,1.665-1.176,2.521-1.727c-2.917,1.805-5.289,3.119-6.904,4.231
					c-0.123,0.206,1.362-0.793-1.98,1.892c-1.412,1.193-0.744,0.519-1.094,0.785c-0.125,0.214-1.235,1.296-3.159,3.377
					c-0.422,0.327,1.193-1.463,1.277-1.641c-1.519,1.514-2.636,2.856-3.676,4.025c-2.254,3.062,0.232-0.135-1.077,1.779
					c-3.354,4.752-0.594,0.299-1.96,1.981c1.15-1.893,2.637-3.952,4.118-5.686c1.473-1.74,2.914-3.162,3.772-3.986
					c-2.084,1.937-4,4.05-5.71,6.309c0.18-0.519-3.509,4.586-0.985,0.853c-2.56,3.402-4.861,7.572-6.456,11.955
					c-0.798,2.195-1.433,4.43-1.901,6.624c-0.239,1.097-0.425,2.19-0.592,3.261c-0.17,1.158-0.048,2.336,0.312,3.378
					c-0.414-1.204-0.296-2.831-0.231-2.562c-0.024,1.131,0.176,1.928,0.351,2.501c0.187,0.571,0.354,0.92,0.459,1.172
					c0.244,0.505,0.271,0.618,0.508,1.025c1.096,1.313,1.848,1.595,2.366,1.841c0.536,0.203,0.941,0.334,1.921,0.508
					c1.615,0.405,2.983,0.174,4.033-0.213c1.057-0.377,1.832-0.935,2.479-1.549c0.647-0.629,1.172-1.348,1.587-2.272
					c0.205-0.462,0.377-0.981,0.492-1.562c0.116-0.545,0.232-1.128,0.396-1.773l-0.241,0.291c0.451-1.848,0.725-2.898,1.021-3.982
					c0.314-1.076,0.658-2.199,1.55-4.045c0.121-0.191-0.497,1.25-0.882,2.443c0.614-1.697,1.024-2.436,1.407-3.153
					c0.395-0.718,0.785-1.425,1.658-2.946c-0.429,0.822-0.823,1.664-1.186,2.512c1.196-2.514,3.637-5.82,2.923-4.557
					c1.335-2.024,3.533-4.596,6.27-6.795c2.721-2.219,5.938-4.022,8.746-5.206l-0.314,0.302c1.406-0.709,4.159-1.669,6.954-2.181
					c2.795-0.543,5.584-0.643,6.965-0.732l0.455,0.072c2.101-0.021,4.193,0.135,6.276,0.486c2.778,0.636,1.765,0.686,2.01,0.662
					c6.051,1.595,10.313,4.315,13.352,6.901c0.44,0.248,1.962,1.41,3.64,3.178c1.694,1.738,3.494,4.124,4.807,6.412
					c3.127,5.51,4.773,11.977,4.611,18.455c-0.144,6.483-2.148,12.922-5.643,18.36c-3.48,5.447-8.428,9.887-14.035,12.729
					c-2.8,1.424-5.767,2.455-8.766,3.084c-0.758,0.17-1.5,0.266-2.271,0.418c-0.759,0.164-1.484,0.477-2.131,0.891
					c-1.303,0.822-2.281,2.105-2.755,3.527c-0.596,1.678-0.462,4.078,0.981,5.801c1.38,1.734,3.677,2.75,5.812,2.689
					c-1.308-0.025-2.291-0.367-3.073-0.732c-0.777-0.381-1.368-0.807-1.886-1.289c-0.515-0.482-0.972-1.041-1.356-1.812
					c-0.369-0.756-0.639-1.756-0.528-3.055c0.238-1.949,1.126-3.09,2.031-3.891c0.952-0.785,2.012-1.326,3.604-1.492
					c-0.56,0.014-1.082,0.096-1.624,0.244c0.591-0.252,1.102-0.381,1.562-0.451l1.208-0.217l1.504-0.287
					c0.778-0.17,1.443-0.281,3.479-1.041l-0.078,0.322l3.223-1.305c1.245-0.537,2.478-1.135,3.19-1.5
					c0.382-0.291,0.758-0.59,1.124-0.895c3.018-1.754,4.73-3.279,5.638-3.857l-0.373,0.1c0.544-0.385,2.983-2.705,4.598-4.848
					c1.65-2.111,2.684-3.834,1.704-1.99c0.514-0.873,0.959-1.688,2.02-3.65l0.312-0.227c1.457-2.889,2.455-6.352,2.769-7.232
					c-0.415,1.701-0.559,2.273-0.671,2.852c1.126-3.25,1.364-5.156,1.514-6.248c0.113-1.094,0.064-1.413,0.029-1.686
					c-0.053-0.27-0.096-0.48-0.089-1.389c0-0.896,0.114-2.482-0.088-5.467l0.124,0.132c-0.109-1.009-0.266-2.011-0.45-3.007
					c-0.121-1.053-0.277-2.107-0.483-3.156c-0.687-2.049-1.936-6.09-4.296-10.012c-2.283-3.953-5.671-7.651-8.586-9.793
					c-2.228-1.696-5.209-4.126-10.333-5.98l0.273,0.294c-1.006-0.422-2.73-1.057-4.882-1.562c-2.138-0.512-4.697-0.889-7.264-0.963
					c-2.567-0.1-5.133,0.1-7.301,0.426c-2.155,0.315-3.903,0.761-4.918,0.991c-3.879,1.513,0.414-0.136,0.383,0.061
					c-3.824,1.345-5.71,2.422-7.216,3.186c-1.477,0.798-2.552,1.364-4.279,2.618c-1.926,1.608-1.167,1.02-0.186,0.248
					c0.994-0.753,2.271-1.6,1.219-0.771c-3.115,2.235-4.128,3.461-5.31,4.764c-0.583,0.672-1.191,1.393-1.982,2.44
					c-0.786,1.033-1.78,2.39-2.974,4.418c-0.561,0.757,1.155-2.146,1.705-2.947c-1.844,2.751-4.12,6.989-5.381,12.005
					c-0.323,1.211-0.588,2.575-0.779,3.771c-0.216,1.066-0.752,2.057-1.521,2.827c-1.539,1.569-3.959,2.032-5.854,1.313
					c-1.083-0.393-2.102-1.178-2.77-2.258c-0.688-1.081-0.991-2.439-0.782-3.783c0.508-3.122,1.364-6.41,2.585-9.611
					c2.414-6.41,6.46-12.385,10.933-16.718l0.107-0.202c3.772-3.535,8.278-7.025,13.814-9.476
					C62.043,33.298,61.154,33.712,60.266,34.146z"/>
				<path fill="#FFFFFF" d="M126.189,52.239l-0.381-0.973c-1.039-1.688-2.16-3.318-3.387-4.867
					C123.758,48.403,124.565,49.354,126.189,52.239z"/>
				<path fill="#FFFFFF" d="M125.154,51.369c0.554,0.87,1.053,1.759,1.552,2.657c-0.76-1.479-1.595-2.912-2.499-4.298
					C124.537,50.275,124.853,50.811,125.154,51.369z"/>
				<path fill="#FFFFFF" d="M60.247,32.517l0.694-0.328c3.329-1.698,6.862-3.011,10.509-3.914
					C67.557,29.22,63.781,30.655,60.247,32.517z"/>
				<path fill="#FFFFFF" d="M50.402,63.087c-0.394,1.186-0.996,2.877-1.269,4.155c0.418-1.651,0.95-3.263,1.59-4.838L50.402,63.087z
					"/>
				<path fill="#FFFFFF" d="M90.523,42.692c1.922,0.163,3.658,1.013,1.285,0.065C88.867,42.095,91.386,42.799,90.523,42.692z"/>
				<path fill="#FFFFFF" d="M101.134,46.575c-1.496-0.906-2.381-1.306-3.265-1.685C99.873,46.017,99.988,45.97,101.134,46.575z"/>
			</g>
		</g>
		<g>
			<path fill="#FFFFFF" d="M82.358,95.607c10.867,0,19.674-8.805,19.674-19.66c0-10.869-8.807-19.678-19.674-19.678
				c-10.854,0-19.666,8.809-19.666,19.678C62.692,86.802,71.505,95.607,82.358,95.607z"/>
			<g>
				<path fill="#FFFFFF" d="M77.116,95.5l0.062,0.02l0.229,0.066c0.256,0.008,0.768,0.152,1.461,0.285
					c0.007-0.012-0.054-0.037,0.189-0.006c1.092,0.193,0.544,0.088,1.349,0.137c-0.252-0.016-0.551-0.049-0.675-0.084
					c0.511,0.061,1.015,0.104,1.526,0.125c-0.209-0.045-0.38-0.09-0.116-0.09c-0.15-0.082,0.35-0.131,0.545-0.189
					C81.41,95.746,81.2,95.728,81.1,95.71c0.033-0.023,0.296-0.023,0.616-0.016c-0.029-0.008-0.057-0.014-0.099-0.023
					c0.042,0.01,0.069,0.016,0.099,0.023l0.643,0.016c-0.12-0.016-0.23-0.023-0.178-0.037l-0.902-0.027
					c-0.022-0.008,0-0.008,0.06-0.008h-0.231l0.172,0.029c0.06,0.014-0.06,0.014-0.179,0.014c-0.239-0.01-0.308-0.023-0.417-0.043
					l-0.479-0.018c-0.188,0.037,1.257,0.139,0.47,0.117l-0.237-0.031c-0.365-0.025-0.844-0.086-1.094-0.092
					c-0.35-0.115-1.02-0.141-1.062-0.225c-1.357-0.307-3.116-0.83-4.332-1.51c-0.245-0.061-0.289,0.035-0.856-0.178
					c-0.106-0.068-0.263-0.168-0.209-0.146l-0.378-0.176c0.213,0.117,0.48,0.262,0.575,0.332c-0.604-0.293,0.245,0.186,0.188,0.18
					l-0.827-0.414l0.091,0.057c1.429,0.832,2.949,1.508,4.543,1.961L77.116,95.5z"/>
				<path fill="#FFFFFF" d="M63.149,74.25l-0.059,0.01c0.232-3.362,1.472-6.989,3.848-10.075c2.336-3.084,5.797-5.584,9.792-6.77
					c3.988-1.197,8.463-1.059,12.438,0.468c3.982,1.505,7.408,4.38,9.589,7.917l-0.407-0.223c1.257,1.803,2.253,3.984,2.805,6.257
					c0.561,2.276,0.671,4.618,0.468,6.71c0.083-0.537,0.15-1.08,0.188-1.623c0.027,0.748-0.037,2.092-0.338,3.516
					c-0.298,1.42-0.833,2.899-1.364,3.958l0.044-0.23c1.218-3.016-0.088,0.193,0.267-1.08l0.168-0.537l-0.136,0.301l-0.185,0.535
					c-0.015-0.08-0.059-0.047,0.117-0.545l-0.283,0.689c-0.802,1.385-0.968,1.293-1.025,1.041c-0.188,0.361,0.224,0.1-0.734,1.559
					l0.067-0.215c-0.312,0.557-0.646,1.1-1.007,1.625c-0.193,0.209-0.396,0.416-0.598,0.615c-0.416,0.539-0.689,0.895-1.202,1.369
					l-0.069,0.236c-1.153,1.076-2.569,2.166-4.146,3.029c-1.566,0.859-3.275,1.492-4.847,1.787
					c-0.665,0.283-2.382,0.432-4.181,0.521l0.782,0.113c0.974,0.053,2.621-0.082,4.349-0.561c1.739-0.455,3.511-1.25,4.888-2.061
					l-0.07,0.121c-0.564,0.365-0.968,0.646-1.743,0.963l-0.146,0.203c0.733-0.09,2.05-0.773,3.183-1.656
					c1.146-0.863,2.087-1.889,2.513-2.277c0.912-0.84,0.677-0.514,0.314-0.066c-0.368,0.436-0.896,0.959-0.459,0.547
					c-0.971,0.977-0.481,0.666,0.348-0.021c0.837-0.686,1.904-1.854,2.313-2.291c1.109-1.24,2.553-3.541,3.338-6.252
					c0.838-2.686,0.976-5.665,0.742-7.844c-0.451-3.645-2.003-7.769-4.681-11.03c-2.633-3.287-6.291-5.567-9.551-6.541
					c-1.557-0.522-3.684-0.821-5.649-0.782c-1.969,0.008-3.764,0.312-4.812,0.355c-1.987,0.409-3.928,1.116-5.717,2.1l0.078-0.125
					c-2.62,1.439-5.012,3.608-6.743,6.162c-1.76,2.54-2.836,5.442-3.295,8.165c-0.368,2.392-0.114,3.13-0.311,4.22
					c-0.007,2.405,0.562,5.02,1.631,7.389c1.071,2.369,2.62,4.475,4.249,6.115c0.04-0.053,0.539,0.359-0.033-0.273
					c-1.738-1.637-2.968-4.113-2.834-4.262l0.421,0.764c-0.237-0.465-0.446-0.941-0.635-1.42c-0.171-0.291-0.329-0.58-0.48-0.881
					c-0.065-0.246-0.077-0.363-0.065-0.389c-0.591-1.594-0.866-3.057-1.024-4.793C63.041,77.585,62.909,76.163,63.149,74.25z"/>
			</g>
		</g>
		<path fill="#FFFFFF" d="M35.778,159.275c19.743,0,35.763-16.008,35.763-35.752c0-19.762-16.02-35.77-35.763-35.77
			C16.012,87.753,0,103.761,0,123.523C0,143.267,16.012,159.275,35.778,159.275z M35.778,143.189
			c-10.865,0-19.678-8.811-19.678-19.67c0-10.867,8.812-19.676,19.678-19.676c10.849,0,19.667,8.809,19.667,19.676
			C55.445,134.378,46.627,143.189,35.778,143.189z"/>
		<g>
			<path fill="#FFFFFF" d="M35.778,159.275c19.743,0,35.763-16.008,35.763-35.752c0-19.762-16.02-35.77-35.763-35.77
				C16.012,87.753,0,103.761,0,123.523C0,143.267,16.012,159.275,35.778,159.275z M35.778,143.189
				c-10.865,0-19.678-8.811-19.678-19.67c0-10.867,8.812-19.676,19.678-19.676c10.849,0,19.667,8.809,19.667,19.676
				C55.445,134.378,46.627,143.189,35.778,143.189z"/>
			<g>
				<path fill="#FFFFFF" d="M38.752,143.775c1.065-0.188,2.025-0.453,2.845-0.752c2.24-0.6,3.807-1.467,5.254-2.473
					c1.434-1.033,2.786-2.205,4.361-3.992c1.358-1.627,2.274-3.219,2.997-4.844c0.718-1.635,1.236-3.336,1.562-5.342
					c-0.075-0.682,0.167-2.633-0.022-4.811c-0.157-2.172-0.806-4.514-1.518-5.838c-0.853-1.822-1.576-2.652-0.886-1.307
					c-0.644-1.209-0.926-1.635-1.152-2.031c-0.224-0.391-0.431-0.738-1.179-1.611l0.575,0.525c-0.436-0.619-0.94-1.303-1.671-2.002
					c-0.296-0.234-0.594-0.465-0.903-0.682c-0.984-0.959-1.89-1.57-2.841-2.119c-0.969-0.549-1.985-1.039-3.359-1.611
					c1.763,0.783-0.854-0.266-0.688-0.07c-0.399-0.213-2.13-0.689-1.537-0.561c-2.438-0.668-4.784-0.473-6.207-0.545
					c-0.3,0.041-0.605,0.082-0.914,0.143c-1.542,0.264-2.778,0.447-4.148,0.889l-0.178,0.135c-0.885,0.338-2.465,1.07-3.209,1.445
					c-2.229,1.193-4.529,3.428-5.955,5.562c-0.783,1.02-0.922,1.361-1.053,1.662c-0.133,0.312-0.232,0.594-0.725,1.631
					c-0.712,1.285-1.334,3.73-1.559,4.588c0.435-1.967,0.342-2.309,1.195-4.283c-0.193,0.365,0.147-0.48,0.495-1.176
					c0.347-0.686,0.666-1.246,0.14-0.438c-0.956,1.855-1.761,4.055-2.133,6.309c-0.389,2.25-0.351,4.518,0.033,6.379
					c-0.109-0.125,0.015,1.053,0.404,2.434c0.384,1.381,1.095,2.904,1.504,3.633l0.002,0.123c0.673,1.266,1.204,2.215,2.753,3.91
					c1.82,2.051,4.064,3.596,6.098,4.689c1.51,0.807,3.323,1.391,4.926,1.635c1.614,0.256,2.988,0.209,3.718,0.15
					c-4.117-0.133-7.986-1.299-10.387-3.203c1.187,0.77,1.888,1.078,2.504,1.34c0.626,0.246,1.194,0.438,2.239,0.721
					c-0.359-0.137-0.713-0.275-1.058-0.426c0.293,0.09,0.582,0.182,0.889,0.264c-0.438-0.203,0.742,0.107,0.635,0
					c-1.073-0.312-2.114-0.707-3.106-1.186c1.602,0.791,0.494,0.379-0.011,0.223c-0.519-0.262-1.024-0.543-1.521-0.848
					c0.329,0.236,1.264,0.783,0.134,0.195c-0.603-0.363-1.401-0.844-1.979-1.352c0.392,0.244,0.796,0.467,1.2,0.676
					c-1.821-1.088-2.834-2.365-4.267-3.885l-0.286-0.59c-0.404-0.521-0.777-1.059-1.12-1.617l0.153,0.164
					c-0.41-0.678-0.787-1.371-1.104-2.082c-0.56-1.139-0.65-1.314-0.782-1.506c-0.356-0.922-0.615-1.844-0.667-2.238
					c0.119,0.359,0.242,0.73,0.378,1.086c-0.097-0.334-0.168-0.684-0.24-1.031c0.135,0.713-0.258-0.834-0.316-1.09
					c-0.182-1.176-0.185-1.596-0.21-1.91c-0.005-0.305-0.008-0.502,0.025-1.244c-0.096-1.549,0.323-3.389,0.234-3.492
					c0.555-2.75,1.78-5.529,3.351-7.66c0.213-0.334,0.428-0.66,0.666-0.971c1.046-1.199,1.884-1.971,2.777-2.727
					c0.895-0.736,1.846-1.447,3.315-2.199l-0.224,0.141c0.523-0.303,1.055-0.586,1.599-0.84c1.165-0.43,1.99-0.689,2.873-0.916
					c0.888-0.221,1.844-0.424,3.29-0.449c3.109-0.055,4.503,0.229,5.534,0.277c1.515,0.264,3.283,1.078,4.479,1.742
					c-0.272-0.125-0.546-0.242-0.826-0.357c0.336,0.182,0.664,0.367,0.983,0.568c0.864,0.467,1.286,0.754,1.771,1.096
					c0.481,0.34,1.035,0.717,2.001,1.551c1.255,1.215,1.724,1.787,2.093,2.121c0.363,0.344,0.579,0.477,1.049,1.08
					c0.592,0.959,1.108,1.963,1.519,3.008v-0.082c0.491,0.871,0.641,1.24,0.866,1.922c0.202,0.691,0.572,1.723,0.855,4.084
					l0.073-0.227c0.039,1.602,0.243,2.291,0.065,4.355c-0.052,0.504-0.234,1.523-0.531,2.602c-0.286,1.086-0.706,2.232-1.006,3.066
					c-0.775,1.645-1.464,2.797-2.173,3.875c-0.718,1.064-1.481,2.045-2.668,3.082c-1.446,1.197-2.523,2.037-2.916,2.078l0.288-0.174
					l-0.678,0.213l-0.016,0.15c-0.995,0.539-2.467,1.234-3.415,1.406c-0.805,0.357-1.634,0.652-2.478,0.891
					c0.629-0.139,1.331-0.299,2.013-0.5l-0.076-0.008c0.663-0.191,2.2-0.822,2.912-1.146c-0.271,0.148-0.555,0.289-0.836,0.43
					c0.998-0.43,0.2,0.006-0.082,0.15c-2.064,0.744-1.472,0.639-3.087,1.117c-0.379,0.078-1.088,0.209-0.833,0.105
					c-0.968,0.287-3.599,0.359-3.682,0.438l-0.185-0.012C36.104,143.578,37.249,143.796,38.752,143.775z"/>
			</g>
			<g>
				<path fill="#FFFFFF" d="M30.691,158.111c-1.843-0.238-3.519-0.598-4.952-0.971c-3.79-1.242-6.505-2.584-9.115-4.176
					c-2.577-1.619-5.079-3.527-7.756-6.717c-2.388-2.82-4.031-5.559-5.319-8.393c-1.278-2.846-2.187-5.832-2.659-9.348
					c-0.353-1.113-0.747-4.602-0.32-8.426c0.351-3.832,1.624-7.867,2.576-10.332c0.675-1.641,1.284-2.873,1.53-3.41
					c0.255-0.531,0.094-0.402-0.576,0.793c1.149-2.191,1.738-2.916,2.197-3.58c0.501-0.646,0.898-1.232,2.183-2.846
					c-0.271,0.377-0.521,0.768-0.774,1.154c0.848-1.051,1.871-2.137,3.104-3.412c0.447-0.49,0.902-0.984,1.37-1.461
					c1.882-1.566,3.426-2.693,5.084-3.758c1.664-1.045,3.445-2.035,5.942-2.943c-3.258,1.186,1.453-0.654,1.075-0.572
					c0.773-0.256,3.896-1.025,2.836-0.717c4.375-1.084,8.582-1.34,11.13-0.975c0.551,0.02,1.101,0.047,1.645,0.102
					c2.82,0.254,5.003,0.873,7.456,1.729l0.357,0.053c1.651,0.5,4.512,1.857,5.771,2.682c3.919,2.234,8.339,5.91,11.147,9.693
					c1.333,1.91,1.657,2.486,2.012,2.979c0.351,0.494,0.704,0.924,1.653,2.814c0.562,1.225,1.277,2.92,1.789,4.549
					c0.525,1.615,0.872,3.158,0.973,3.967c-0.362-1.828-0.725-2.834-1.083-3.855c-0.369-1.02-0.757-2.061-1.53-3.857
					c0.273,0.699-0.385-0.814-1.079-2.043c-0.679-1.225-1.294-2.199-0.472-0.678c1.915,3.23,3.411,7.234,4.087,11.305
					c0.711,4.082,0.634,8.172,0.168,11.596c-0.059-0.27-0.355,1.859-1.083,4.34c-0.688,2.494-1.892,5.287-2.604,6.619l-0.134,0.141
					c-1.275,2.256-2.25,3.939-4.905,7.111c-3.27,3.711-7.308,6.617-11.113,8.324c-2.783,1.287-5.981,2.355-8.85,2.924
					c-2.865,0.611-5.36,0.76-6.674,0.824c3.767,0.092,7.433-0.543,10.681-1.57c3.27-1.025,6.121-2.432,8.583-3.807
					c-2.25,1.359-3.528,1.947-4.655,2.486c-1.138,0.518-2.14,0.98-4.062,1.633c0.696-0.188,1.375-0.398,2.044-0.627
					c-0.536,0.213-1.08,0.418-1.632,0.604c0.871-0.207-1.315,0.535-1.053,0.506c2.045-0.574,4.042-1.33,5.949-2.26
					c-3.133,1.363-1.097,0.379-0.238-0.102c0.988-0.473,1.951-0.98,2.891-1.523c-0.661,0.365-2.438,1.309-0.382,0.107
					c1.139-0.641,2.577-1.635,3.755-2.484c-0.662,0.566-1.345,1.109-2.04,1.617c3.238-2.301,5.706-4.145,8.214-7.281l0.883-0.873
					c0.763-0.998,1.486-2.043,2.147-3.127l-0.184,0.395c0.813-1.285,1.562-2.605,2.21-3.988c1-2.26,0.997-2.645,1.125-3.064
					c0.644-1.783,1.068-3.553,1.267-4.291c-0.14,0.713-0.29,1.43-0.468,2.141c0.205-0.639,0.378-1.303,0.542-1.955
					c-0.337,1.35,0.339-1.664,0.354-2.166c0.38-2.25,0.385-3.055,0.453-3.652c0.042-0.594,0.105-0.963,0.149-2.396
					c0-2.967-0.49-6.572-0.662-6.713c-0.864-5.336-3.233-10.742-6.291-14.865c-0.45-0.604-0.939-1.18-1.43-1.744
					c-1.918-2.361-3.565-3.875-5.312-5.27c-1.766-1.379-3.646-2.666-6.459-4.094l0.464,0.197c-1.041-0.506-2.104-0.959-3.184-1.365
					c-2.181-0.916-3.787-1.342-5.487-1.723c-1.704-0.355-3.518-0.678-6.268-0.881c-2.958-0.178-5.122,0.055-6.746,0.305
					c-1.633,0.266-2.741,0.576-3.651,0.879c-2.767,0.707-6.175,1.92-8.438,3.143c0.479-0.281,0.98-0.547,1.478-0.799
					c-0.65,0.281-1.297,0.6-1.937,0.918c-1.618,0.91-2.436,1.453-3.355,2.086c-0.906,0.646-1.939,1.373-3.715,3.01
					c-2.439,2.242-3.235,3.418-3.784,4.158c-0.521,0.766-0.731,1.174-1.491,2.34c-1.217,1.699-2.299,3.502-3.209,5.396l0.089-0.107
					c-0.675,1.73-0.894,2.412-1.339,3.684c-0.375,1.287-1.125,3.172-1.636,7.547l0.148-0.383c-0.224,1.457-0.264,2.516-0.252,3.678
					c0.011,1.16,0.065,2.432,0.252,4.32c0.103,0.916,0.31,2.801,0.794,4.814c0.458,2.023,1.205,4.148,1.925,5.621
					c1.307,3.084,2.695,5.168,4.133,7.025c1.452,1.854,2.98,3.498,5.096,5.398c2.525,2.33,4.743,3.432,5.202,3.922l-0.525-0.326
					c0.329,0.273,0.667,0.543,1.015,0.805l0.187-0.023c1.761,1.094,4.507,2.266,6.139,2.938c1.548,0.449,3.113,0.793,4.697,1.037
					c-1.162-0.207-2.423-0.529-3.667-0.938l0.124,0.076c-1.204-0.34-4.047-1.416-5.292-2.135c0.52,0.242,1.049,0.48,1.585,0.691
					c-1.799-0.844-0.274-0.199,0.249,0c1.817,0.787,2.509,0.986,3.093,1.146c0.585,0.162,1.057,0.281,2.521,0.629
					c0.651,0.188,1.93,0.439,1.457,0.395c0.866,0.166,2.464,0.436,3.878,0.553c1.42,0.125,2.639,0.121,2.713,0.068l0.36,0.018
					C35.17,158.882,33.178,158.673,30.691,158.111z"/>
			</g>
		</g>
		<g>
			<path fill="#FFFFFF" d="M132.19,36.966c5.256,0,9.527-4.25,9.527-9.514c0-5.257-4.271-9.526-9.527-9.526
				c-5.264,0-9.523,4.269-9.523,9.526C122.667,32.715,126.927,36.966,132.19,36.966z"/>
			<g>
				<path fill="#FFFFFF" d="M139.368,32.715c-0.175,0.068-0.288,0.103-0.468,0.135c-0.453,0.308-1.229,0.855-1.568,0.795
					c-0.028-0.078,0.308-0.749,0.417-0.813c0.962-0.793,1.768-0.966,2.59-2.305c0.079-0.106,0.058-0.629,0.049-1.083l-0.159,0.255
					c0.037-0.621,0.305-1.523,0.208-2.274c-0.065,0.157-0.065,0.157-0.132,0.247c0.355-0.579,0.132-1.878-0.176-2.739
					c-0.03-0.177-0.03-0.32-0.036-0.458c-0.367-0.764-0.672-1.555-1.438-2.244c-0.582-0.597-1.398-1.542-2.418-2.027
					c-0.822-0.487-1.768-0.932-2.771-1.116c-0.994-0.188-2.033-0.132-2.843,0.267c-0.268,0.128-0.783,0.242-1.304,0.255
					c-0.431,0.422-1.076,0.817-1.717,1.303c-0.656,0.466-1.305,1.028-1.781,1.589c-0.33,0.415-0.698,0.604-0.936,0.731
					c-0.575,1.375-0.79,2.92-0.744,4.386c0.089,1.894,0.797,3.694,2.078,5.367c0.173,0.231,0.635,0.565,0.899,0.679L127.34,34
					c1.012,0.718,2.134,0.949,3.115,1.264c1.362,0.416,1.557,0.893,1.735,1.414c-0.882,0.156-1.828,0.355-2.908,0.253
					c-1.07-0.11-2.299-0.53-3.336-1.587c-0.549-0.584-1.523-1.325-2.164-2.153c-0.593-0.672-0.783-1.626-1.334-2.23
					c-0.009-0.585-0.1-1.516-0.1-2.529c-0.014-1.013,0.091-2.081,0.192-3.008c0.081-0.139,0.081,0.036,0.186-0.209
					c0.2-2.629,2.175-5.265,4.841-6.73c1.321-0.803,3.149-1.154,5.05-1.239c0.185-0.033,0.981,0.156,1.486,0.237
					c0.189,0,0.366,0,0.556,0c1.314,0.323,2.787,0.98,3.463,1.712c0.841,0.778,1.604,1.474,2.106,2.317
					c0.376,0.632,0.878,1.44,1.215,2.307c0.336,0.872,0.477,1.774,0.384,2.392c-0.02,0.148,0.062,0.639,0.058,0.962
					c-0.038,0.148-0.077,0.305-0.126,0.446c-0.007,0.316,0.166,0.537,0.136,0.859c-0.143,1.037-0.461,2.178-0.972,3.077
					c-0.505,0.901-1.138,1.551-1.657,1.737C139.357,33.142,139.671,32.602,139.368,32.715z"/>
				<path fill="#FFFFFF" d="M132.697,35.311c0.062-0.078-0.2-0.088-0.359-0.067c0.149,0.074,0.239,0.182,0.546,0.232
					c-0.156,0-0.32,0.003-0.477,0c-0.25,0.194,0.477,0.034,0.195,0.124c-0.271-0.018-0.477-0.043-0.345-0.143
					c0.037,0.047,0.149,0.02,0.306,0.03c0.021-0.132-0.232-0.178-0.373-0.264c0.242,0,0.482,0,0.719-0.018L132.697,35.311z"/>
				<path fill="#FFFFFF" d="M134.361,35.265l-0.154,0.022c-0.054,0.095,0.11,0.11,0.269,0.117c-0.692,0.052-0.061-0.231-0.481-0.269
					C133.994,35.205,134.409,35.173,134.361,35.265z"/>
				<path fill="#FFFFFF" d="M133.562,35.809c-0.322-0.113-0.615,0.053-0.696-0.143c0.265,0.045,0.53,0.075,0.808,0.089
					L133.562,35.809z"/>
				<path fill="#FFFFFF" d="M138.156,33.369c0.114-0.213,0.063-0.1,0.336-0.373c-0.123,0.134-0.262,0.265-0.393,0.397
					L138.156,33.369z"/>
				<path fill="#FFFFFF" d="M139.517,22.962c0.067,0.327,0.096,0.604,0.276,1.058C139.584,23.577,139.538,23.08,139.517,22.962z"/>
				<path fill="#FFFFFF" d="M136.047,19.08c0.04-0.053-0.116-0.146,0.12-0.072c0.094,0.086-0.12,0.149,0.268,0.253
					C136.302,19.193,136.178,19.13,136.047,19.08z"/>
				<path fill="#FFFFFF" d="M135.761,18.591l-0.198-0.211C135.554,18.402,135.624,18.483,135.761,18.591z"/>
				<polygon fill="#FFFFFF" points="139.409,30.771 139.451,30.759 139.466,30.688 				"/>
				<path fill="#FFFFFF" d="M139.785,30.148c-0.097,0.146-0.21,0.281-0.31,0.419l-0.01,0.12
					C139.631,30.392,139.696,30.538,139.785,30.148z"/>
				<path fill="#FFFFFF" d="M139.538,30.733l-0.087,0.025c-0.083,0.448-0.376,0.501-0.66,1.043
					C139.154,31.503,139.396,31.082,139.538,30.733z"/>
				<path fill="#FFFFFF" d="M139.442,31.255l-0.021,0.195c-0.102,0.131-0.155,0.09-0.168,0.063
					c-0.053,0.104-0.095,0.199-0.146,0.308c0.048,0.19,0.601-0.697,0.714-0.95C139.696,31.006,139.575,31.142,139.442,31.255z"/>
				<polygon fill="#FFFFFF" points="138.188,34.569 138.196,34.557 138.178,34.569 				"/>
				<path fill="#FFFFFF" d="M139.22,34.043l-0.133-0.203c-0.33,0.377-0.505,0.332-0.891,0.717l-0.009,0.012
					C138.483,34.619,138.817,34.199,139.22,34.043z"/>
				<path fill="#FFFFFF" d="M140.199,29.643c-0.121,0.419-0.25,0.726-0.181,0.906c0.121-0.252,0.23-0.507,0.32-0.768
					C140.156,30.054,140.257,29.728,140.199,29.643z"/>
				<path fill="#FFFFFF" d="M140.775,29.061c-0.017,0.139-0.043,0.266-0.075,0.402l0.114-0.157
					C140.79,29.281,140.775,29.206,140.775,29.061z"/>
				<path fill="#FFFFFF" d="M140.814,29.306c0.028,0.021,0.085-0.032,0.118-0.181L140.814,29.306z"/>
				<path fill="#FFFFFF" d="M140.775,30.154c0.216-0.217,0.057-0.246,0.197-0.692C140.832,29.387,140.855,29.923,140.775,30.154z"/>
				<polygon fill="#FFFFFF" points="141.238,28.244 141.364,28.098 141.206,28.051 				"/>
				<path fill="#FFFFFF" d="M140.199,24.955c0.252,0.362,0.074-0.285,0.125-0.348L140.199,24.955z"/>
				<path fill="#FFFFFF" d="M141.633,27.736l-0.155,0.146l0.078,0.084c-0.013,0.125-0.016,0.318-0.089,0.419
					C141.633,28.503,141.6,27.977,141.633,27.736z"/>
				<path fill="#FFFFFF" d="M141.129,25.896c0.006-0.156,0.015-0.308,0.006-0.472"/>
				<path fill="#FFFFFF" d="M142.062,28.943c0.069,0.032,0.373-0.7,0.192,0.153c0.068-0.326,0.119-0.802,0.211-0.488
					c0.056-0.546-0.16-0.06-0.204-0.422C142.334,28.493,142.131,28.702,142.062,28.943z"/>
				<path fill="#FFFFFF" d="M142.322,27.662c0.051-0.263,0.086-0.587,0.019-0.735C142.341,27.199,142.226,27.426,142.322,27.662z"/>
				<polygon fill="#FFFFFF" points="142.698,27.419 142.565,27.796 142.735,27.572 				"/>
				<line fill="#FFFFFF" x1="140.354" y1="22.753" x2="140.172" y2="22.865"/>
				<path fill="#FFFFFF" d="M142.584,25.818c0.058,0.331,0.101,0.653,0.128,0.983c0.016-0.301,0.016-0.604,0-0.899
					c-0.185-0.517-0.188-0.247-0.191,0.14C142.527,25.932,142.547,25.841,142.584,25.818z"/>
				<path fill="#FFFFFF" d="M142.422,26.875l0.071,0.289c0.043,0.008,0.027-0.423,0.02-0.806
					C142.497,26.614,142.474,26.841,142.422,26.875z"/>
				<path fill="#FFFFFF" d="M142.513,26.357l0.008-0.316C142.513,26.13,142.513,26.24,142.513,26.357z"/>
				<path fill="#FFFFFF" d="M139.004,21.09c0.173,0.202,0.334,0.408,0.495,0.629C139.359,21.446,139.2,21.257,139.004,21.09z"/>
				<path fill="#FFFFFF" d="M142.638,25.079l-0.034-0.149h-0.169C142.527,25.203,142.603,25.072,142.638,25.079z"/>
				<path fill="#FFFFFF" d="M142.603,23.814c0.013-0.28-0.298-0.757-0.401-0.949c0.028,0.353,0.179,0.69,0.272,1.098
					C142.374,23.555,142.536,23.817,142.603,23.814z"/>
				<path fill="#FFFFFF" d="M142.308,22.558c0.127,0.276,0.246,0.547,0.346,0.824C142.764,23.15,142.482,22.895,142.308,22.558z"/>
				<path fill="#FFFFFF" d="M141.543,21.342c-0.042-0.05-0.058,0.021-0.171-0.092c0.015,0.146,0.202,0.376,0.293,0.583
					C141.643,21.662,141.592,21.51,141.543,21.342z"/>
				<path fill="#FFFFFF" d="M141.659,28.442c0.01-0.216,0.028-0.429,0.021-0.622c-0.051,0.306-0.105,0.604-0.179,0.906
					C141.556,28.639,141.617,28.552,141.659,28.442z"/>
				<path fill="#FFFFFF" d="M128.959,34.516c-0.847-0.033-2.154-0.905-2.739-1.531c-0.933-1.012-2.092-2.461-2.415-4.177
					l0.062,0.002c-0.149-1.31-0.17-3.075,0.395-4.456l-0.115,0.042c-0.104,0.229-0.203,0.543-0.248,0.32
					c0.131-0.312,0.346-0.707,0.448-0.774l-0.007-0.288c0.168-0.157,0.336,0.12,0.546-0.423c-0.101-0.479,0.898-0.952,0.62-1.189
					c0.318-0.036,0.529-0.583,0.765-0.769l-0.266,0.018c0.504-0.38,1.11-0.525,1.318-0.717c0.579-0.476,1.482-0.952,2.235-1.271
					c0.226,0.12-0.796,0.287-0.239,0.305c0.647-0.436,1.596-0.615,2.543-0.582c0.964,0.018,1.921,0.238,2.812,0.412
					c-0.041-0.029-0.19-0.089-0.063-0.089c0.291,0.251,0.804,0.259,1.295,0.609c-0.014-0.166-0.733-0.5-0.996-0.591
					c0.282-0.238,0.128,0.105,0.857,0.322c-0.045-0.034-0.132-0.116-0.118-0.137c0.729,0.259,0.199,0.306,0.729,0.521
					c-0.076-0.088-0.15-0.167-0.229-0.242c0.491,0.281,0.188,0.032,0.777,0.319c-0.178,0.1,0.013,0.377,0.124,0.487
					c0.112-0.027,0.544,0.392,0.589,0.224c0.342,0.76,0.808,0.595,1.016,1.368c0.308,0.152-0.057-0.345,0.056-0.397
					c0.555,0.525,0.01,0.299,0.142,0.542c0.197,0.135,0.793,0.924,0.836,1.375l0.132-0.04c0.176,0.637,0.445,1.652,0.289,1.921
					c0.248,0.208,0.14-0.273,0.02-0.699c0.063-0.12,0.252,0.305,0.268,0.533c-0.021-0.115,0.048-0.167-0.048-0.274
					c0.103-0.064,0.119,0.267,0.169,0.387c0.118,0.771-0.13-0.28-0.137,0.049c0.113,0.267,0.179,0.999,0.305,0.675
					c0.082,0.623-0.152,0.263-0.201,0.58c0.095-0.487-0.197-0.611-0.104-0.988c-0.085-0.102-0.124-0.049-0.152,0.107
					c0.152,0.494,0.037,1.441,0.208,1.423l-0.132,0.247l0.125,0.251l-0.049,0.099c0.206-0.22,0.305-0.714,0.461-0.908
					c0.074-0.044,0.058,0.3,0.058,0.474l-0.15,0.132c-0.063,0.441,0.27,0.37,0.123,0.984c-0.123-0.405-0.378,0.639-0.644,0.994
					c0.189,0.537,0.273,0.009,0.425,0.489c-0.136,0.441-0.354,1.159-0.729,1.602c0.629-1.188-0.504,0.456-0.114-0.543
					c-0.133,0.182-0.18,0.36-0.294,0.551c-0.311,0.01-0.018-0.377-0.332-0.235l0.109,0.17c-0.284,0.181-0.529,0.232-0.933,0.638
					c0.027,0.102-0.082,0.393-0.298,0.55c-0.16-0.036-0.205-0.033-0.594,0.314c-0.27,0.459-0.006,0.396,0.389,0.192
					c0.385-0.202,0.853-0.586,1.042-0.578c0.521-0.593,0.92-0.825,1.371-1.141c0.423-0.311,0.916-0.716,1.303-1.761
					c-0.031-0.374-0.073-0.259-0.011-0.902c-0.199-0.476-0.401,0.887-0.722,1.179c0.009-0.195,0.014-0.387,0.113-0.54l-0.255,0.133
					c0.15-0.943,0.435-0.435,0.487-1.308l0.019,0.195c0-0.168,0.008-0.331,0-0.501l-0.044,0.113
					c0.016-0.304-0.123-0.397-0.044-0.859l0.12,0.395c-0.09-0.264,0.148-0.331,0.072-0.715c0.076,0.209,0.19,0.277,0.18,0.413
					c0.093-0.572,0.084-1.095,0.022-1.588c-0.357-1.68-0.979-3.21-1.91-4.621l0.068,0.202c-0.22-0.205-0.287-0.394-0.335-0.585
					c-0.182-0.252-0.387-0.5-0.596-0.742c-0.537-0.439-0.991-0.753-1.71-1.201c0.021-0.1,0.086-0.103,0.176-0.061
					c-0.279-0.135-0.447-0.195-0.24,0.039c-0.47-0.23-0.638-0.415-0.992-0.582c0.294,0.067,0.59,0.142,0.879,0.238
					c-0.306-0.238-0.385-0.04-0.82-0.316c-0.761-0.245,0.262,0.291,0.1,0.391c-0.088-0.049-0.185-0.103-0.271-0.146
					c0.072,0.1,0.148,0.21,0.213,0.316c-0.585-0.33-0.856-0.585-1.104-0.784c0.147,0.067,0.295,0.152,0.45,0.223
					c0.256-0.164-0.78-0.292-0.966-0.458h0.067c-0.763-0.185,0.135,0.154-0.388,0.061c-0.288-0.121-0.582-0.235-0.887-0.331
					l0.137,0.167c-0.537,0.014-1.572-0.264-2.5-0.175c-0.521,0.026-1.179,0.281-1.791,0.515c0.126-0.006,0.382-0.042,0.317,0.022
					c-0.374,0.096-1.154,0.415-0.941,0.157c-0.16,0.106-0.303,0.234-0.452,0.333c-0.18,0.092-0.329,0.143-0.456,0.17l0.171-0.01
					c-0.192,0.114-0.381,0.245-0.548,0.369c-0.012-0.032-0.262,0.039,0.017-0.146c-0.736,0.239-1.312,1.049-2.135,1.82l0.182-0.306
					c-0.378,0.576-0.624,0.452-1.002,1.112l0.187-0.064c-0.284,0.445-0.898,1.229-0.91,1.063c0.22,0.202-0.224,0.233-0.137,0.635
					l-0.379,0.192c-0.062,0.351-0.147,0.686,0.068,0.519c-0.307,0.461-0.451,0.894-0.347,1.235c0,0,0.004,0.007,0.004,0.014
					l0.003,0.01l-0.003-0.002c-0.014,0.124-0.152,0.625,0.003,0.423c-0.169,1.192-0.374,0.607-0.413,1.785l0.209,0.046
					c-0.057,0.898,0.249,1.758,0.544,2.351l-0.139,0.128c0.174,0.422,0.121-0.128,0.377,0.53c0,0.099-0.024,0.202-0.066,0.198
					c0.249,0.64,0.537,1.518,1.14,2.373c-0.028,0.01-0.129-0.085-0.189-0.131c0.264,0.368,0.781,0.895,1.189,1.217
					c0.614,1.06,2.034,2.306,3.66,2.76c1.346,0.015,2.165-0.427,2.3-0.874C131.099,35.712,130.04,35.301,128.959,34.516z"/>
			</g>
		</g>
		<g>
			<path fill="#FFFFFF" d="M89.952,151.169c-3.365,0-6.239-2.545-6.58-5.955c-0.37-3.645,2.271-6.891,5.913-7.268
				c31.695-3.209,55.6-29.699,55.6-61.602c0-8.24-1.595-16.246-4.729-23.785c-1.404-3.379,0.192-7.257,3.574-8.664
				c3.382-1.403,7.253,0.195,8.661,3.574c3.812,9.166,5.739,18.871,5.739,28.875c0,38.729-29.021,70.879-67.504,74.79
				C90.398,151.156,90.177,151.169,89.952,151.169z"/>
			<g>
				<path fill="#FFFFFF" d="M156.114,97.716c0.639-2.205,1.54-6.035,1.557-5.359l0.191-0.438c-0.191,0.961-0.759,3.428-1.303,5.125
					C156.04,98.742,155.654,99.691,156.114,97.716z"/>
				<path fill="#FFFFFF" d="M155.25,98.029c0.607-1.863,0.231-0.42,0.189-0.068c-0.253,0.863-0.545,1.723-0.831,2.576
					C154.271,101.287,154.967,99.123,155.25,98.029z"/>
				<path fill="#FFFFFF" d="M154.071,96.505l-0.255,0.734c0.255-0.734,0.591-1.832,0.76-2.553c0.096-0.039-0.169,1.381-0.647,2.848
					C153.965,97.195,154.359,95.746,154.071,96.505z"/>
				<path fill="#FFFFFF" d="M156.352,58.082c-0.395-0.505-0.08,2.071,0.243,5.282l-0.629-1.123
					c-0.226-2.418-1.502-7.104-2.807-10.658c-0.554-1.337,1.022,3.359-0.28-0.121c-0.085-0.416,0.123-0.16-0.122-0.91
					c-0.621-1.549-0.9-1.865-1.295-2.646c-0.192-0.352-0.423-0.767-0.909-1.352c-0.491-0.568-1.278-1.348-2.732-1.814
					c-0.627-0.26-1.316-0.399-2.027-0.41c-1.349,0.117-2.662,0.736-3.61,1.727c-0.938,0.98-1.5,2.322-1.558,3.684
					c-0.024,0.68,0.075,1.363,0.291,2.004c0.103,0.301,0.262,0.655,0.42,1.051c0.149,0.368,0.315,0.746,0.458,1.125
					c0.596,1.51,1.123,3.047,1.601,4.589c1.895,6.187,2.729,12.619,2.545,18.718c0.095,1.088,0.064,3.211-0.148,5.52
					c-0.203,2.316-0.587,4.807-0.917,6.682l-0.14,0.061c-0.22,2.193-1.452,5.721-2.354,8.254c-0.318,0.756-0.628,1.502-0.979,2.23
					c-0.267,0.395,0.378-1.219,0.853-2.717c0.492-1.496,0.844-2.867,0.378-1.879c-1.752,4.822-2.82,8.246-5.168,12.004
					c-2.216,3.674-1.896,3.293-3.338,5.541c-0.295,0.625,0.592-0.643,0.549-0.334c-2.767,3.975-4.644,5.748-6.378,7.381
					c-1.776,1.602-3.454,3.088-6.749,5.729c-0.146,0.303-5.514,4.49-0.306,0.885c0.776-0.643,1.534-1.303,2.275-1.986
					c0.554-0.4,1.104-0.812,1.637-1.236c-1.701,1.607-5.149,4.16-4.671,3.98c-1.355,0.738-4.628,3.061-7.083,4.459
					c-2.452,1.393-3.896,2.125-1.155,0.359c3.562-1.771,4.504-2.471,6.542-4.059c-7.433,5.057-14.991,7.795-22.146,9.387
					c-0.697,0.217-1.393,0.441-2.082,0.631c-0.096-0.082-1.032,0-2.386,0.141l-2.284,0.209c-0.851,0.053-1.58,0.156-2.342,0.465
					c-1.302,0.533-2.458,1.932-2.083,1.68c-0.071,0.146,0.32-0.369,1.104-0.902c0.792-0.551,1.944-0.973,3.126-1.021
					c2.489-0.24,4.29-0.445,1.177,0.18l-1.531,0.152c-0.421,0.043-0.844,0.129-1.248,0.27c-0.812,0.268-1.558,0.736-2.168,1.338
					c-1.239,1.205-1.833,2.975-1.667,4.605c0.139,1.627,1.099,3.061,2.277,3.965c1.182,0.926,2.562,1.361,3.752,1.434
					c-1.762,0.008-3.252-0.656-4.417-1.643c-1.161-1-2.104-2.398-2.28-4.334c-0.084-1.627,0.525-3.309,1.665-4.537
					c1.141-1.258,2.788-2,4.521-2.105c3.469-0.395,6.938-1.076,10.311-2.051c6.745-1.92,13.086-5.057,18.357-8.949
					c0.493-0.148,3.306-2.203,2.561-1.463c1.058-0.643,3.551-2.924,4.341-3.414c3.691-3.551,7.276-7.832,10.178-12.424
					c2.919-4.578,5.146-9.441,6.576-13.826c-0.578,1.16-0.161-0.174,0.376-2.135c0.551-1.957,1.118-4.572,1.276-5.846
					c0.62-2.338,1.07-6.486,1.119-9.538c-0.04-0.338-0.062-2.23-0.162-1.775c0.027,2.258-0.093,3.072-0.316,5.374
					c-0.165-0.955,0.382-4.945,0.213-8.379c0.075,0.594,0.152,1.188,0.199,1.787c-0.03-2.867-0.174-6.014-0.594-9.072
					c-0.405-3.051-1.086-5.995-1.979-8.439c0.35,1.439,0.666,2.871,0.901,4.32c-0.766-3.104-1.82-6.524-3.077-9.657
					c-0.633-1.592-0.588-3.331-0.088-4.764c0.508-1.452,1.433-2.578,2.386-3.332c-0.918,0.598-1.812,1.599-2.341,2.803
					c-0.539,1.197-0.691,2.568-0.521,3.743c0.159,1.196,0.65,2.128,0.859,2.799c0.238,0.669,0.318,1.08,0.238,1.08
					c-0.069-0.04-0.225-0.362-0.438-0.853c-0.211-0.502-0.509-1.082-0.789-1.926c-0.552-1.643-0.266-3.725,0.313-4.865
					c1.159-2.521,3.631-4.078,6.079-4.251c2.464-0.202,4.886,0.916,6.295,2.802c0.352,0.465,0.649,0.977,0.879,1.512l0.628,1.49
					c0.405,1,0.789,2.003,1.124,3.025C155.365,53.819,155.938,55.911,156.352,58.082z"/>
				<path fill="#FFFFFF" d="M151.738,44.646c-1.76-1.723-3.399-2.01-4.399-2.131c-1.045-0.089-1.641,0.036-2.181,0.174
					c-0.553,0.156-1.085,0.313-1.938,0.747c-0.818,0.443-2.105,1.149-3.237,3.054c0.224-0.522-0.352,0.074-0.828,1.342
					c-0.504,1.246-0.572,3.227-0.027,4.675c1.13,2.437,2.035,5.288,2.643,7.486c0.333,1.504,0.125,1.328-0.738-1.541
					c-0.444-1.797-1.078-3.662-1.86-5.558c-0.928-2.203-0.741-4.909,0.572-7.001c1.269-2.109,3.612-3.492,5.977-3.64
					C148.098,42.067,150.368,43.097,151.738,44.646z"/>
				<path fill="#FFFFFF" d="M154.071,51.888c-0.703-1.965-0.856-2.604-1.004-3.239c-0.082-0.31-0.16-0.618-0.328-1.095
					c-0.158-0.464-0.432-1.154-1.146-1.967c0.666,0.629,0.981,1.21,1.27,2.004l1.302,3.617c-0.279-0.682-0.597-1.349-0.886-2.027
					C153.55,50.083,153.833,50.981,154.071,51.888z"/>
				<path fill="#FFFFFF" d="M142.305,60.792c0.349,1.261,0.818,3.41,1.07,5.278c0.263,1.86,0.326,3.444,0.217,3.544
					c0.018,0.388-0.163-0.256,0.018,1.212c-0.059-1.169-0.29-3.421-0.618-5.517C142.667,63.222,142.274,61.311,142.305,60.792z"/>
				<path fill="#FFFFFF" d="M140.068,49.385c-0.049,0.705,0.005,1.423,0.205,2.198c0.2,0.744,0.649,1.633,1.037,2.71l-0.972-2.259
					C140.051,51.238,139.925,50.317,140.068,49.385z"/>
				<path fill="#FFFFFF" d="M143.528,64.056c0.09-0.547,0.47,2.214,0.566,2.967l0.147,1.58
					C144.02,67.124,143.678,65.271,143.528,64.056z"/>
				<path fill="#FFFFFF" d="M143.327,86.746c-0.724,3.76,0.43-3.961-0.36,0.518c0.143-0.855,0.272-1.727,0.375-2.588l0.414-0.924
					C143.635,84.755,143.493,85.751,143.327,86.746z"/>
				<path fill="#FFFFFF" d="M141.827,92.4c-0.217,1.059-0.51,2.145-1.174,3.945l0.234-1.029
					C141.063,94.623,141.443,93.851,141.827,92.4z"/>
				<path fill="#FFFFFF" d="M143.569,87.648c-0.287,1.84-0.383,1.543-0.705,2.674C142.991,89.644,143.875,85.796,143.569,87.648z"/>
				<path fill="#FFFFFF" d="M139.075,105.898c0.632-1.682,2.317-4.885,3.398-8.182C141.336,100.98,140.891,102.402,139.075,105.898z
					"/>
				<path fill="#FFFFFF" d="M143.609,122.783c-1.03,1.238-2.211,2.723-2.892,3.613l0.607-0.588
					C142.116,124.822,142.864,123.804,143.609,122.783z"/>
				<path fill="#FFFFFF" d="M154.924,102.386c0.315-1.74-0.498,1.176-1.99,4.076c-1.744,3.924-3.683,7.994-6.05,11.576
					c-0.442,0.748-0.873,1.5-1.338,2.234c1.515-2.059,3.466-5.023,5.18-8.258C152.461,108.783,153.959,105.285,154.924,102.386z"/>
				<path fill="#FFFFFF" d="M154.698,98.878c-1.04,2.965-2.363,6.818-3.35,8.891c1.679-3.471,3.34-8.184,4.06-10.781
					C155.439,96.648,154.97,98.136,154.698,98.878z"/>
				<path fill="#FFFFFF" d="M110.94,147.552c2.532-0.988,5.514-2.295,8.433-3.855c2.93-1.58,5.781-3.418,8.105-5.303
					c-2.308,1.523-2.367,1.555-6.085,3.713c2.594-1.928,5.646-3.461,8.697-5.863c-2.553,1.863,0.677-0.742,2.671-2.541
					c1.961-1.627,4.364-3.893,6.728-6.518c2.375-2.617,4.687-5.59,6.605-8.48c0.8-1.27,2.522-3.979,3.764-6.318
					c1.259-2.334,2.08-4.273,1.632-3.701c1.725-3.848,2.159-4.303,3.309-7.24c1.343-4.484,2.52-8.51,3.402-12.725
					c0.872-4.209,1.404-8.634,1.078-13.685c0.26,0.617,0.063-4.408-0.166-6.365c-0.182-2.135-0.71-5.712-1.343-8.428
					c-0.637-2.714-1.286-4.583-1.167-3.456c0.545,2.845,2.091,8.551,2.158,13.037c0.046,3.833-0.077,1.834-0.374-1.111
					c-0.302-2.951-1.046-6.818-1.239-6.844c0.251,1.077,0.115,1.723,0.663,5.047c-0.557-3.542-0.588-2.781-0.493-1.608
					c0.056,1.183,0.165,2.776-0.189,0.983c0.425,4.057,0.396,5.91,0.377,7.239c-0.032,1.349-0.124,2.194-0.377,4.239
					c-0.093,4.848,0.213,3.518,0.292,4.926c-0.283,5.197-1.455,9.166-2.543,13.512c0.167-1.711-0.369,0.096-1.292,2.889
					c-0.916,2.803-2.387,6.555-3.53,8.932c-1.493,3.059-1.718,3.594-1.9,4.201c-0.212,0.605-0.394,1.273-2.346,4.328
					c-1.086,1.449-0.147-0.135,0.659-1.621c0.799-1.48,1.467-2.863,0.173-0.889c-0.537,0.961-1.091,1.918-1.662,2.863
					c-0.991,1.877-1.757,3.422-3.2,5.523c-0.937,1.199-2.411,2.934-2.519,2.92c1.854-2.332,1.128-1.73-1.011,0.521
					c-0.91,1.131-1.141,1.414-1.568,1.961c2.293-2.035,1.243-0.824-0.812,1.24c-2.066,2.066-5.282,4.779-6.901,6.223
					c-2.402,2.023-4.076,3.131-5.262,3.867c-1.194,0.734-1.951,1.076-2.696,1.4c-1.512,0.621-2.92,1.35-8.477,3.99
					c1.832-0.535,0.01,0.402-2.792,1.514c-2.805,1.146-6.641,2.266-8.587,2.842c-3.342,0.809-4.603,0.863-6.982,1.104
					c-0.919,0.209-3.545,0.553-3.933,0.684c1.926,0.451,10.135,0.387,20.232-2.924C110.73,147.666,110.96,147.566,110.94,147.552z"
					/>
			</g>
		</g>
		<g>
			<path fill="#FFFFFF" d="M14.758,75.952c-0.228,0-0.448-0.005-0.667-0.029c-3.647-0.371-6.302-3.617-5.931-7.26
				C12.069,30.179,44.219,1.158,82.951,1.158c10.29,0,20.275,2.053,29.678,6.099c3.365,1.442,4.914,5.338,3.474,8.702
				c-1.447,3.352-5.346,4.912-8.708,3.466c-7.735-3.332-15.958-5.019-24.443-5.019c-31.904,0-58.397,23.904-61.604,55.597
				C20.995,73.411,18.117,75.952,14.758,75.952z"/>
			<g>
				<path fill="#FFFFFF" d="M19.816,70.442c0.049-0.17,0.085-0.346,0.107-0.508l0.091-0.602l0.161-1.1
					c0.115-0.668,0.202-1.201,0.308-1.639c0.196-0.883,0.337-1.373,0.469-1.713c0.256-0.677,0.395-0.748,0.792-2.098
					c-0.237,1.266-0.453,2.533-0.626,3.811c-0.109,0.629-0.212,1.301-0.319,1.989c-0.108,0.692-0.169,1.449-0.315,2.006
					c-0.308,1.202-1.084,2.229-1.898,2.876c-0.822,0.662-1.649,0.972-2.141,1.1c-0.503,0.113-0.682,0.096-0.4-0.05
					c0.183-0.074,0.993-0.372,1.841-1.072C18.739,72.747,19.542,71.624,19.816,70.442z"/>
				<path fill="#FFFFFF" d="M14.91,75.485c0.655-0.07,0.774-0.063,1.414-0.244c-0.586,0.279-1.237,0.461-1.902,0.557
					C14.592,75.696,14.748,75.6,14.91,75.485z"/>
				<path fill="#FFFFFF" d="M23.097,57.258c0.353-1.147,0.738-2.29,1.153-3.413c0.326-0.771-0.349,1.158-0.271,1.069
					c0.492-1.257,1.034-2.497,1.602-3.719c-1.146,2.493-1.521,3.804-1.787,4.563C23.548,56.532,23.432,56.768,23.097,57.258z"/>
				<path fill="#FFFFFF" d="M53.189,22.615c2.402-1.132-1.676,1.199-2.493,1.905c-1.885,1.155-3.57,2.171-2.178,1.059
					C50.958,23.953,51.962,23.324,53.189,22.615z"/>
				<g>
					<path fill="#FFFFFF" d="M32.648,38.487c-0.319,0.621-1.655,2.507-2.717,4.255c-1.083,1.737-1.893,3.31-1.595,3.019
						c0.252-0.245,0.508-0.491,1.051-1.271c0.628-1.154,1.295-2.298,1.995-3.405c2.917-4.004,2.434-3.063,1.628-1.888
						c-0.765,1.215-1.741,2.756,0.291,0.158l1.629-2.183c1.973-2.553,1.334-1.885,0.02-0.532c3.017-3.613,4.272-4.425,5.03-4.951
						c0.791-0.508,1.165-0.662,3.079-2.32c2.641-2.258,3.16-2.696,3.07-2.827c-0.068-0.124-0.693,0.149-0.059-0.412
						c0.104,0.199,2.729-1.591,6.681-3.648c3.927-2.056,9.25-4.227,14.203-5.491c9.194-2.657,20.259-2.777,31.386-0.173
						c2.355,0.643,5.035,1.527,7.81,2.699l1.04,0.451c0.378,0.167,0.785,0.306,1.193,0.397c0.823,0.209,1.705,0.26,2.564,0.154
						c1.723-0.211,3.398-1.074,4.57-2.413c0.01,0.018,0.039,0.018,0.048,0.042c0.098-0.146,0.149-0.245,0.131-0.256
						c0.883-0.956,1.726-2.635,1.716-4.589c0.026-1.928-0.866-3.992-2.317-5.327c-0.703-0.671-1.548-1.18-2.323-1.499l-2.011-0.843
						c-1.189-0.511-2.031-0.877-2.264-1.086l-1.124-0.349c-5.583-1.732,0.062-0.191-3.125-1.274
						c-2.604-0.736-5.659-1.524-8.437-2.029c-2.765-0.512-5.261-0.763-6.664-0.665c-0.431-0.067,0.147-0.036-0.291-0.103
						C87.398,0.05,85.935,0.003,84.482,0c-0.307,0.092-1.185,0.202-0.461,0.316c-1.015-0.021-1.894,0.105-3.339,0.105
						c-3.642,0.15-0.44-0.202-1.76-0.224c-4.591,0.285-9.481,1.009-14.216,2.165c-4.742,1.147-9.308,2.717-13.346,4.425
						c-0.065-0.161-2.419,0.792-5.124,2.233c-2.717,1.421-5.729,3.389-7.459,4.64c-3.572,2.312-7.062,5.348-10.054,8.481
						c-3.01,3.115-5.512,6.325-7.538,8.829c1.039-1.609,2.666-3.651,4.139-5.306c1.475-1.666,2.751-2.976,2.927-3.32
						c-0.441,0.387-0.873,0.784-1.305,1.189c-1.396,1.414-3.144,3.317-4.614,5.187c-1.498,1.854-2.722,3.662-3.27,4.708
						c1.356-1.739,1.576-1.769,2.077-2.304c-0.97,1.466-1.069,1.762-2.244,3.616c-1.743,2.703-3.423,5.786-3.573,5.7
						c0.76-1.591,1.764-3.214,2.607-4.584c0.072-0.299-0.65,0.755-1.486,2.123c-0.821,1.364-1.749,3.044-2.19,3.894
						c0.959-1.414,0.479-0.086,0.31,0.585c-0.148,0.686-0.122,0.646,2.156-3.242c-0.778,1.449-1.5,2.933-2.182,4.437
						c-0.604,1.794,1.112-1.805,2.891-4.676c1.777-2.869,3.392-5.106,1.33-1.405c-0.328,0.807,0.335-0.118-0.979,2.422
						c0.88-1.308,2.508-3.987,3.155-5.101c0.729-0.807,2.458-3.288,4.242-5.435c1.78-2.156,3.563-3.999,3.826-3.95
						c2.65-3.054,4.951-5.001,7.263-6.723c2.324-1.722,4.672-3.232,7.804-5.143c4.026-2.355,4.766-2.699,4.693-2.799
						c-0.059-0.089-0.893,0.173,0.264-0.551c4.221-2.031,8.538-3.878,11.235-4.831c2.442-0.777,4.008-0.973,2.37-0.483
						c9.284-2.408,19.054-3.068,28.593-1.921c4.77,0.564,9.478,1.609,14.036,3.076c2.282,0.735,4.523,1.581,6.72,2.535
						c1.748,0.722,2.959,2.462,3.068,4.326c0.046,1.507-0.595,2.966-1.641,3.938c-1.051,0.978-2.527,1.471-3.933,1.315
						c-0.753-0.078-1.233-0.287-2.242-0.724c-0.897-0.38-1.812-0.742-2.724-1.091c-1.829-0.699-3.682-1.35-5.604-1.982l1.274,0.434
						c0.169,0.103-0.827-0.163-1.613-0.333c1.254,0.415,2.462,0.855,3.586,1.316c-2.238-0.763-4.555-1.376-6.863-1.821
						c-1.306-0.104-4.617-0.682-8.07-0.891c-3.442-0.253-6.989-0.118-8.632,0.18c-3.249,0.2-5.338,0.515-6.838,0.743
						c-1.509,0.238-2.449,0.413-3.39,0.586c-0.936,0.184-1.875,0.383-3.367,0.778c-1.494,0.394-3.543,0.995-6.623,2.212
						c-6.493,2.803-13.642,7.428-19.628,13.249c-2.184,2.093-4.083,4.11-3.819,3.683c-2.402,2.743-5.442,7.008-7.271,10.314
						C20.916,59.499,28.564,42.99,32.648,38.487z"/>
					<path fill="#FFFFFF" d="M60.827,2.767c0.509-0.376-3.324,0.736-4.597,1.14l-1.633,0.689c-4.069,1.758-4.087,2.07-1.484,1.052
						c0.444-0.267,1.748-0.854,3.265-1.431C57.897,3.651,59.62,3.097,60.827,2.767z"/>
					<path fill="#FFFFFF" d="M96.068,0.536L95.453,0.64c1.798,0.262,3.573,0.615,5.343,1.008
						C100.696,1.478,98.104,0.898,96.068,0.536z"/>
					<path fill="#FFFFFF" d="M9.953,57.374c0.654-2.446,1.238-4.118,1.863-5.807c0.642-1.686,1.305-3.395,2.352-5.853l-0.733,0.778
						c-2.186,4.727-4.126,9.948-5.242,16.121c-0.172,2.116,0.189,0.256,0.676-1.84C9.354,58.667,10.046,56.341,9.953,57.374z"/>
					<path fill="#FFFFFF" d="M14.057,47.239c-1.623,4.283-3.156,9.01-4.146,13.709c-0.508,2.337-0.864,4.666-1.087,6.891
						c-0.156,1.154-0.141,2.07,0.191,2.998c0.31,0.898,0.843,1.676,1.477,2.255c-0.16-0.487-0.788-1.385-1.059-2.703
						c-0.064-0.327-0.108-0.685-0.112-1.045c0-0.19,0.008-0.372,0.023-0.571l0.078-0.717c0.105-0.971,0.227-2.01,0.367-3.072
						c0.522-4.262,1.604-8.93,2.636-11.656c1.133-3.666,1.838-5.844,3.874-10.248C17.754,39.814,14.976,44.973,14.057,47.239z"/>
					<path fill="#FFFFFF" d="M12.013,74.772c0.834,0.475,1.921,0.678,2.457,0.699c0.367,0,0.057-0.057-0.368-0.153
						c-0.437-0.097-1.03-0.31-1.379-0.482c-0.421-0.171-1.152-0.544-1.492-0.742C10.914,73.883,10.855,74.042,12.013,74.772z"/>
				</g>
			</g>
		</g>
	</g>
	<g>
		<g>
			<path fill="#FFFFFF" d="M206.372,32.876h18.567c10.487,0,13.766,7.062,13.766,12.411c0,7.925-6.138,11.071-8.994,11.424v0.149
				c5.639,1.15,9.995,4.213,9.995,12.051c0,12.645-12.492,13.78-15.415,13.78h-17.919V32.876z M217.656,53.137h2.854
				c6.704,0,6.917-5.206,6.917-6.134c0-1.773-1-5.975-6.709-5.975h-3.062V53.137z M217.656,74.276h3.275c1.571,0,7.5,0,7.5-6.431
				c0-4.354-2.429-6.562-6.28-6.562h-4.495V74.276z"/>
			<path fill="#FFFFFF" d="M286.592,32.876h18.27c8.205,0,15.207,3.637,15.207,12.85c0,2.075-0.285,10.279-9.922,12.193v0.149
				c3.645,0.433,5.068,2.435,6.93,8.347l5.125,16.276h-12.266l-3.865-13.34c-1.92-6.773-3.48-6.773-7.768-6.773v20.114h-11.711
				V32.876z M297.879,54.146h3.635c4.488,0,6.85-3,6.85-6.566c0-2.069-0.646-6.283-6.916-6.283h-3.568V54.146z"/>
			<path fill="#FFFFFF" d="M394.227,71.557h-15.633l-3.426,11.134h-11.277l16.555-49.815h12.85l15.975,49.815h-11.984
				L394.227,71.557z M386.803,42.437h-0.152l-5.914,20.705h11.203L386.803,42.437z"/>
			<path fill="#FFFFFF" d="M445.612,32.876h12.561l8.781,36.32h0.131l8.992-36.32h11.984l-15.057,49.815h-12.551L445.612,32.876z"/>
			<path fill="#FFFFFF" d="M532.606,32.876h11.705v49.815h-11.705V32.876z"/>
		</g>
	</g>
</g>
<g>
	<path fill="#FFFFFF" d="M206.537,115.667l2.571-0.227c0.12,1.031,0.404,1.877,0.849,2.537c0.445,0.66,1.136,1.195,2.071,1.602
		c0.938,0.408,1.99,0.611,3.162,0.611c1.038,0,1.955-0.154,2.753-0.463c0.794-0.311,1.388-0.734,1.776-1.273
		c0.387-0.535,0.581-1.125,0.581-1.762c0-0.646-0.185-1.211-0.561-1.691c-0.376-0.482-0.992-0.889-1.853-1.217
		c-0.554-0.215-1.775-0.551-3.667-1.004c-1.892-0.455-3.218-0.883-3.976-1.285c-0.983-0.514-1.715-1.152-2.197-1.916
		c-0.482-0.766-0.725-1.619-0.725-2.564c0-1.037,0.295-2.012,0.886-2.914c0.59-0.904,1.452-1.588,2.583-2.059
		c1.135-0.467,2.395-0.701,3.781-0.701c1.524,0,2.87,0.246,4.035,0.736c1.167,0.494,2.063,1.217,2.69,2.172s0.965,2.037,1.013,3.244
		l-2.612,0.197c-0.14-1.303-0.616-2.287-1.428-2.951c-0.81-0.664-2.004-0.998-3.587-0.998c-1.648,0-2.848,0.305-3.604,0.908
		c-0.754,0.602-1.13,1.33-1.13,2.184c0,0.738,0.267,1.348,0.8,1.826c0.523,0.477,1.893,0.967,4.108,1.467s3.733,0.939,4.558,1.314
		c1.199,0.553,2.084,1.252,2.654,2.1c0.571,0.848,0.858,1.824,0.858,2.926c0,1.098-0.314,2.131-0.943,3.1
		c-0.626,0.969-1.526,1.721-2.701,2.262c-1.177,0.537-2.501,0.807-3.969,0.807c-1.864,0-3.426-0.271-4.685-0.814
		c-1.26-0.543-2.246-1.359-2.965-2.451C206.952,118.279,206.574,117.044,206.537,115.667z"/>
	<path fill="#FFFFFF" d="M251.136,112.255c0-3.418,0.916-6.094,2.754-8.027c1.836-1.936,4.205-2.902,7.107-2.902
		c1.9,0,3.612,0.457,5.141,1.363c1.525,0.908,2.689,2.176,3.489,3.801c0.801,1.623,1.203,3.467,1.203,5.525
		c0,2.088-0.423,3.959-1.266,5.604c-0.844,1.65-2.036,2.898-3.583,3.746c-1.544,0.844-3.212,1.27-4.999,1.27
		c-1.938,0-3.67-0.467-5.198-1.402c-1.525-0.938-2.681-2.215-3.469-3.836C251.528,115.775,251.136,114.062,251.136,112.255z
		 M253.945,112.298c0,2.48,0.668,4.436,2.001,5.863c1.334,1.426,3.007,2.143,5.022,2.143c2.049,0,3.738-0.723,5.063-2.166
		c1.325-1.439,1.986-3.486,1.986-6.137c0-1.676-0.282-3.139-0.849-4.389s-1.396-2.219-2.486-2.908
		c-1.092-0.688-2.315-1.031-3.673-1.031c-1.932,0-3.588,0.662-4.979,1.986C254.641,106.984,253.945,109.199,253.945,112.298z"/>
	<path fill="#FFFFFF" d="M299.795,122.285v-20.594h13.889v2.432H302.52v6.375h9.662v2.432h-9.662v9.355H299.795z"/>
	<path fill="#FFFFFF" d="M347.778,122.285v-18.162h-6.785v-2.432h16.322v2.432h-6.811v18.162H347.778z"/>
	<path fill="#FFFFFF" d="M389.02,122.285l-5.465-20.594h2.797l3.131,13.5c0.336,1.412,0.629,2.818,0.871,4.213
		c0.523-2.199,0.834-3.469,0.928-3.805l3.918-13.908h3.287l2.949,10.424c0.74,2.586,1.273,5.016,1.602,7.289
		c0.26-1.301,0.604-2.795,1.025-4.48l3.23-13.232h2.738l-5.645,20.594h-2.629l-4.34-15.691c-0.363-1.311-0.582-2.113-0.645-2.416
		c-0.215,0.945-0.418,1.752-0.604,2.416l-4.369,15.691H389.02z"/>
	<path fill="#FFFFFF" d="M434.561,122.285l7.906-20.594h2.938l8.426,20.594h-3.104l-2.402-6.238h-8.609l-2.262,6.238H434.561z
		 M440.502,113.83h6.98l-2.15-5.705c-0.654-1.73-1.141-3.156-1.459-4.27c-0.262,1.32-0.633,2.631-1.109,3.934L440.502,113.83z"/>
	<path fill="#FFFFFF" d="M481.366,122.285v-20.594h9.127c1.836,0,3.232,0.186,4.189,0.555c0.953,0.371,1.717,1.025,2.289,1.963
		c0.57,0.936,0.855,1.967,0.855,3.104c0,1.459-0.475,2.691-1.42,3.693s-2.404,1.637-4.381,1.91c0.721,0.346,1.268,0.688,1.643,1.025
		c0.797,0.729,1.551,1.643,2.262,2.738l3.58,5.605h-3.426L493.36,118c-0.795-1.236-1.453-2.182-1.967-2.836
		c-0.514-0.656-0.977-1.115-1.385-1.379c-0.406-0.26-0.822-0.443-1.242-0.547c-0.307-0.066-0.814-0.098-1.516-0.098h-3.16v9.145
		H481.366z M484.09,110.781h5.857c1.244,0,2.217-0.129,2.92-0.387c0.703-0.256,1.236-0.67,1.602-1.238
		c0.365-0.564,0.549-1.182,0.549-1.844c0-0.977-0.355-1.775-1.061-2.402c-0.709-0.629-1.824-0.941-3.352-0.941h-6.516V110.781z"/>
	<path fill="#FFFFFF" d="M527.467,122.285v-20.594h14.889v2.432h-12.164v6.307h11.393v2.416h-11.393v7.008h12.641v2.432H527.467z"/>
</g>
</svg>
