<?xml version="1.0" encoding="UTF-8" standalone="no"?>
<!-- Generator: Adobe Fireworks CS5, Export SVG Extension by Aaron Beall (http://fireworks.abeall.com) . Version: 0.6.1  -->
<!DOCTYPE svg PUBLIC "-//W3C//DTD SVG 1.1//EN" "http://www.w3.org/Graphics/SVG/1.1/DTD/svg11.dtd">
<svg id="Untitled-Page%201" viewBox="0 0 180 120" style="background-color:#ffffff00" version="1.1" xmlns="http://www.w3.org/2000/svg" xmlns:xlink="http://www.w3.org/1999/xlink" xml:space="preserve" x="0px" y="0px" width="180px" height="120px">
	<defs>
		<linearGradient id="gradient1" x1="23.7623%" y1="50%" x2="102.614%" y2="50%">
			<stop stop-color="#ffffff" stop-opacity="1" offset="1%"/>
			<stop stop-color="#999999" stop-opacity="1" offset="99%"/>
		</linearGradient>
		<linearGradient id="gradient2" x1="31.1502%" y1="73.8766%" x2="70.9182%" y2="-22.5595%">
			<stop stop-color="#ffffff" stop-opacity="1" offset="1%"/>
			<stop stop-color="#999999" stop-opacity="1" offset="99%"/>
		</linearGradient>
		<linearGradient id="gradient3" x1="41.6233%" y1="89.6432%" x2="66.7984%" y2="-32.7759%">
			<stop stop-color="#ffffff" stop-opacity="1" offset="1%"/>
			<stop stop-color="#999999" stop-opacity="1" offset="99%"/>
		</linearGradient>
		<linearGradient id="gradient4" x1="45.7103%" y1="20.9052%" x2="69.2475%" y2="126.7876%">
			<stop stop-color="#ffffff" stop-opacity="1" offset="1%"/>
			<stop stop-color="#999999" stop-opacity="1" offset="99%"/>
		</linearGradient>
		<linearGradient id="gradient5" x1="23.7652%" y1="50.002%" x2="102.6138%" y2="50.002%">
			<stop stop-color="#ffffff" stop-opacity="1" offset="1%"/>
			<stop stop-color="#999999" stop-opacity="1" offset="99%"/>
		</linearGradient>
		<linearGradient id="gradient6" x1="23.7611%" y1="49.9907%" x2="102.6124%" y2="49.9907%">
			<stop stop-color="#ffffff" stop-opacity="1" offset="1%"/>
			<stop stop-color="#999999" stop-opacity="1" offset="99%"/>
		</linearGradient>
		<linearGradient id="gradient7" x1="23.7614%" y1="50%" x2="102.6115%" y2="50%">
			<stop stop-color="#ffffff" stop-opacity="1" offset="1%"/>
			<stop stop-color="#999999" stop-opacity="1" offset="99%"/>
		</linearGradient>
		<linearGradient id="gradient8" x1="23.7625%" y1="50.0096%" x2="102.6118%" y2="50.0096%">
			<stop stop-color="#ffffff" stop-opacity="1" offset="1%"/>
			<stop stop-color="#999999" stop-opacity="1" offset="99%"/>
		</linearGradient>
		<linearGradient id="gradient9" x1="23.762%" y1="50%" x2="102.6151%" y2="50%">
			<stop stop-color="#ffffff" stop-opacity="1" offset="1%"/>
			<stop stop-color="#999999" stop-opacity="1" offset="99%"/>
		</linearGradient>
		<linearGradient id="gradient10" x1="23.763%" y1="50%" x2="102.6134%" y2="50%">
			<stop stop-color="#ffffff" stop-opacity="1" offset="1%"/>
			<stop stop-color="#999999" stop-opacity="1" offset="99%"/>
		</linearGradient>
		<linearGradient id="gradient11" x1="23.7623%" y1="50.0043%" x2="102.6147%" y2="50.0043%">
			<stop stop-color="#ffffff" stop-opacity="1" offset="1%"/>
			<stop stop-color="#999999" stop-opacity="1" offset="99%"/>
		</linearGradient>
		<linearGradient id="gradient12" x1="23.7622%" y1="50%" x2="102.6143%" y2="50%">
			<stop stop-color="#ffffff" stop-opacity="1" offset="1%"/>
			<stop stop-color="#999999" stop-opacity="1" offset="99%"/>
		</linearGradient>
		<linearGradient id="gradient13" x1="23.762%" y1="49.9932%" x2="102.6145%" y2="49.9932%">
			<stop stop-color="#ffffff" stop-opacity="1" offset="1%"/>
			<stop stop-color="#999999" stop-opacity="1" offset="99%"/>
		</linearGradient>
		<linearGradient id="gradient14" x1="23.7622%" y1="49.9952%" x2="102.6136%" y2="49.9952%">
			<stop stop-color="#ffffff" stop-opacity="1" offset="1%"/>
			<stop stop-color="#999999" stop-opacity="1" offset="99%"/>
		</linearGradient>
		<linearGradient id="gradient15" x1="53.1339%" y1="58.5453%" x2="91.3523%" y2="-6.5968%">
			<stop stop-color="#ffffff" stop-opacity="1" offset="1%"/>
			<stop stop-color="#999999" stop-opacity="1" offset="99%"/>
		</linearGradient>
		<linearGradient id="gradient16" x1="46.98%" y1="16.1478%" x2="63.1677%" y2="130.918%">
			<stop stop-color="#ffffff" stop-opacity="1" offset="1%"/>
			<stop stop-color="#999999" stop-opacity="1" offset="99%"/>
		</linearGradient>
		<linearGradient id="gradient17" x1="38.3368%" y1="77.0906%" x2="77.0254%" y2="0.771%">
			<stop stop-color="#ffffff" stop-opacity="1" offset="1%"/>
			<stop stop-color="#999999" stop-opacity="1" offset="99%"/>
		</linearGradient>
		<linearGradient id="gradient18" x1="47.7571%" y1="81.5838%" x2="93.6996%" y2="-1.242%">
			<stop stop-color="#ffffff" stop-opacity="1" offset="1%"/>
			<stop stop-color="#999999" stop-opacity="1" offset="99%"/>
		</linearGradient>
		<linearGradient id="gradient19" x1="21.0978%" y1="76.4937%" x2="73.8187%" y2="18.8015%">
			<stop stop-color="#ffffff" stop-opacity="1" offset="1%"/>
			<stop stop-color="#999999" stop-opacity="1" offset="99%"/>
		</linearGradient>
		<linearGradient id="gradient20" x1="30.0803%" y1="66.5469%" x2="62.2999%" y2="4.5202%">
			<stop stop-color="#ffffff" stop-opacity="1" offset="1%"/>
			<stop stop-color="#999999" stop-opacity="1" offset="99%"/>
		</linearGradient>
		<linearGradient id="gradient21" x1="34.8281%" y1="66.032%" x2="59.3724%" y2="-5.383%">
			<stop stop-color="#ffffff" stop-opacity="1" offset="1%"/>
			<stop stop-color="#999999" stop-opacity="1" offset="99%"/>
		</linearGradient>
		<linearGradient id="gradient22" x1="46.9358%" y1="81.2754%" x2="70.5876%" y2="8.3655%">
			<stop stop-color="#ffffff" stop-opacity="1" offset="1%"/>
			<stop stop-color="#999999" stop-opacity="1" offset="99%"/>
		</linearGradient>
		<linearGradient id="gradient23" x1="44.7245%" y1="82.9326%" x2="63.0426%" y2="12.7093%">
			<stop stop-color="#ffffff" stop-opacity="1" offset="1%"/>
			<stop stop-color="#999999" stop-opacity="1" offset="99%"/>
		</linearGradient>
		<linearGradient id="gradient24" x1="47.8959%" y1="53.6116%" x2="59.1643%" y2="-19.2327%">
			<stop stop-color="#ffffff" stop-opacity="1" offset="1%"/>
			<stop stop-color="#999999" stop-opacity="1" offset="99%"/>
		</linearGradient>
		<linearGradient id="gradient25" x1="43.4658%" y1="85.0687%" x2="58.8323%" y2="-23.835%">
			<stop stop-color="#ffffff" stop-opacity="1" offset="1%"/>
			<stop stop-color="#999999" stop-opacity="1" offset="99%"/>
		</linearGradient>
		<linearGradient id="gradient26" x1="30.3371%" y1="91.6097%" x2="60.2009%" y2="17.7469%">
			<stop stop-color="#ffffff" stop-opacity="1" offset="1%"/>
			<stop stop-color="#999999" stop-opacity="1" offset="99%"/>
		</linearGradient>
		<linearGradient id="gradient27" x1="23.7618%" y1="50.008%" x2="102.6139%" y2="50.008%">
			<stop stop-color="#ffffff" stop-opacity="1" offset="1%"/>
			<stop stop-color="#999999" stop-opacity="1" offset="99%"/>
		</linearGradient>
		<linearGradient id="gradient28" x1="23.7624%" y1="50%" x2="102.6164%" y2="50%">
			<stop stop-color="#ffffff" stop-opacity="1" offset="1%"/>
			<stop stop-color="#999999" stop-opacity="1" offset="99%"/>
		</linearGradient>
		<linearGradient id="gradient29" x1="23.7621%" y1="50%" x2="102.6141%" y2="50%">
			<stop stop-color="#ffffff" stop-opacity="1" offset="1%"/>
			<stop stop-color="#999999" stop-opacity="1" offset="99%"/>
		</linearGradient>
		<linearGradient id="gradient30" x1="23.7622%" y1="49.9977%" x2="102.6142%" y2="49.9977%">
			<stop stop-color="#ffffff" stop-opacity="1" offset="1%"/>
			<stop stop-color="#999999" stop-opacity="1" offset="99%"/>
		</linearGradient>
		<linearGradient id="gradient31" x1="23.7634%" y1="50.002%" x2="102.6165%" y2="50.002%">
			<stop stop-color="#ffffff" stop-opacity="1" offset="1%"/>
			<stop stop-color="#999999" stop-opacity="1" offset="99%"/>
		</linearGradient>
		<linearGradient id="gradient32" x1="23.7613%" y1="50.0028%" x2="102.6152%" y2="50.0028%">
			<stop stop-color="#ffffff" stop-opacity="1" offset="1%"/>
			<stop stop-color="#999999" stop-opacity="1" offset="99%"/>
		</linearGradient>
		<linearGradient id="gradient33" x1="23.7624%" y1="50%" x2="102.6166%" y2="50%">
			<stop stop-color="#ffffff" stop-opacity="1" offset="1%"/>
			<stop stop-color="#999999" stop-opacity="1" offset="99%"/>
		</linearGradient>
		<linearGradient id="gradient34" x1="23.7621%" y1="49.9969%" x2="102.6166%" y2="49.9969%">
			<stop stop-color="#ffffff" stop-opacity="1" offset="1%"/>
			<stop stop-color="#999999" stop-opacity="1" offset="99%"/>
		</linearGradient>
		<linearGradient id="gradient35" x1="23.763%" y1="50%" x2="102.6179%" y2="50%">
			<stop stop-color="#ffffff" stop-opacity="1" offset="1%"/>
			<stop stop-color="#999999" stop-opacity="1" offset="99%"/>
		</linearGradient>
		<linearGradient id="gradient36" x1="23.7589%" y1="50%" x2="102.6144%" y2="50%">
			<stop stop-color="#ffffff" stop-opacity="1" offset="1%"/>
			<stop stop-color="#999999" stop-opacity="1" offset="99%"/>
		</linearGradient>
		<linearGradient id="gradient37" x1="23.7553%" y1="50%" x2="102.6109%" y2="50%">
			<stop stop-color="#ffffff" stop-opacity="1" offset="1%"/>
			<stop stop-color="#999999" stop-opacity="1" offset="99%"/>
		</linearGradient>
		<linearGradient id="gradient38" x1="23.762%" y1="50%" x2="102.6154%" y2="50%">
			<stop stop-color="#ffffff" stop-opacity="1" offset="1%"/>
			<stop stop-color="#999999" stop-opacity="1" offset="99%"/>
		</linearGradient>
	</defs>
	<g id="Layer%201">
		<g id="Typografia">
			<path d="M 60.642 115 C 58.3463 115 56.6008 114.4204 55.4055 113.2842 C 54.2393 112.1631 53.6597 110.5171 53.6597 108.3623 L 53.6597 96.4634 C 53.6597 94.3013 54.2393 92.6602 55.4055 91.5347 C 56.5717 90.4185 58.3196 89.8608 60.642 89.8608 C 62.9696 89.8608 64.7128 90.4185 65.8761 91.5347 C 67.0399 92.6602 67.6243 94.3013 67.6243 96.4634 C 67.6243 96.8604 67.3613 97.0581 66.845 97.0581 C 66.3293 97.0581 66.0685 96.8604 66.0685 96.4634 C 66.0685 95.2441 65.8933 94.2744 65.5375 93.5479 C 65.1801 92.8384 64.7394 92.2886 64.2063 91.9141 C 63.6708 91.5347 63.0938 91.2993 62.4559 91.1807 C 61.8301 91.0757 61.2239 91.02 60.642 91.02 C 60.0582 91.02 59.4443 91.0757 58.7991 91.1807 C 58.1539 91.2993 57.5598 91.5347 57.0321 91.9141 C 56.494 92.2886 56.0507 92.8384 55.6953 93.5479 C 55.3401 94.2744 55.1666 95.2441 55.1666 96.4634 L 55.1666 108.3623 C 55.1666 110.2212 55.6294 111.6133 56.5717 112.5371 C 57.5094 113.4053 58.865 113.8452 60.642 113.8452 C 62.4192 113.8452 63.775 113.4053 64.7128 112.5371 C 65.6156 111.6665 66.0685 110.271 66.0685 108.3623 L 66.0685 105.0806 L 59.7728 105.0806 C 59.2518 105.0806 58.9893 104.8789 58.9893 104.4829 C 58.9893 104.0864 59.2518 103.8862 59.7728 103.8862 L 66.845 103.8862 C 67.3613 103.8862 67.6243 104.0864 67.6243 104.4829 L 67.6243 108.3623 C 67.6243 110.5171 67.0399 112.1631 65.8761 113.2842 C 64.679 114.4204 62.9326 115 60.642 115 Z" fill="#ffffff"/>
			<path d="M 82.3582 103.5464 C 83.7797 104.5923 84.4906 106.0669 84.4906 107.9868 L 84.4906 114.3623 C 84.4906 114.7607 84.2325 114.96 83.7115 114.96 C 83.5214 114.96 83.3512 114.9043 83.2054 114.7944 C 83.0618 114.6826 82.9858 114.542 82.9858 114.3623 L 82.9858 107.9868 C 82.9858 106.4434 82.4579 105.2568 81.3892 104.4199 C 80.3252 103.5879 78.818 103.1792 76.8805 103.1792 L 72.5198 103.1792 L 72.5198 114.3623 C 72.5198 114.7607 72.2599 114.96 71.7411 114.96 C 71.5461 114.96 71.3807 114.9043 71.2346 114.7944 C 71.0859 114.6826 71.0106 114.542 71.0106 114.3623 L 71.0106 90.3848 C 71.0106 90.23 71.0859 90.1001 71.2346 89.9941 C 71.3807 89.8794 71.5461 89.8247 71.7411 89.8247 L 76.8805 89.8247 C 79.4655 89.8247 81.3698 90.3555 82.6036 91.4229 C 83.8284 92.4956 84.4443 94.1768 84.4443 96.4634 C 84.4443 98.7241 83.8429 100.4092 82.6503 101.4971 C 82.1318 101.9688 81.4667 102.3428 80.6609 102.6177 C 80.9846 102.7397 81.2817 102.8784 81.5571 103.0264 C 81.8348 103.1792 82.0996 103.3472 82.3582 103.5464 ZM 72.5198 102.0244 L 76.8805 102.0244 C 78.9789 102.0244 80.5173 101.5859 81.4889 100.7119 C 82.4211 99.8882 82.8912 98.4785 82.8912 96.4634 C 82.8912 94.5229 82.4211 93.1245 81.4889 92.2637 C 80.549 91.4087 79.0182 90.98 76.8805 90.98 L 72.5198 90.98 L 72.5198 102.0244 Z" fill="#ffffff"/>
			<path d="M 88.9047 115 C 88.3882 115 88.1252 114.7944 88.1252 114.3984 L 88.1252 90.4185 C 88.1252 90.2734 88.2009 90.1445 88.3492 90.0283 C 88.4928 89.9194 88.673 89.8608 88.9047 89.8608 C 89.1257 89.8608 89.3108 89.9194 89.4617 90.0283 C 89.6052 90.1445 89.676 90.2734 89.676 90.4185 L 89.676 114.3984 C 89.676 114.7944 89.4156 115 88.9047 115 Z" fill="#ffffff"/>
			<path d="M 93.7976 113.3931 C 94.024 113.3931 94.2114 113.4512 94.3549 113.5659 C 94.5013 113.6719 94.5718 113.8057 94.5718 113.9512 L 94.5718 114.3984 C 94.5718 114.7944 94.3164 115 93.7976 115 C 93.2765 115 93.026 114.7944 93.026 114.3984 L 93.026 113.9512 C 93.026 113.8057 93.0941 113.6719 93.2399 113.5659 C 93.3864 113.4512 93.5713 113.3931 93.7976 113.3931 Z" fill="#ffffff"/>
			<path d="M 108.7286 102.4229 C 108.7286 102.5791 108.6578 102.7109 108.509 102.8223 C 108.3633 102.9287 108.176 102.9883 107.952 102.9883 L 98.499 102.9883 L 98.499 114.3984 C 98.499 114.5767 98.4231 114.7163 98.2795 114.8315 C 98.136 114.9404 97.9655 115 97.7709 115 C 97.255 115 96.9943 114.7944 96.9943 114.3984 L 96.9943 90.4185 C 96.9943 90.2734 97.0696 90.1445 97.2131 90.0283 C 97.3618 89.9194 97.5446 89.8608 97.7709 89.8608 L 107.952 89.8608 C 108.176 89.8608 108.3633 89.9194 108.509 90.0283 C 108.6578 90.1445 108.7286 90.2734 108.7286 90.4185 C 108.7286 90.8164 108.4683 91.02 107.952 91.02 L 98.499 91.02 L 98.499 101.8325 L 107.952 101.8325 C 108.4683 101.8325 108.7286 102.0298 108.7286 102.4229 Z" fill="#ffffff"/>
			<path d="M 118.6151 115 C 117.8386 115 117.0376 114.9063 116.217 114.7314 C 115.3939 114.5571 114.6396 114.2285 113.96 113.731 C 113.281 113.2349 112.7358 112.5518 112.3124 111.6982 C 111.8934 110.8384 111.6818 109.7207 111.6818 108.3203 L 111.6818 96.5029 C 111.6818 94.3643 112.2465 92.7217 113.3809 91.5742 C 114.5737 90.4355 116.3217 89.8608 118.6151 89.8608 C 120.9446 89.8608 122.6877 90.4355 123.8521 91.5742 C 125.0154 92.6978 125.5974 94.3423 125.5974 96.5029 L 125.5974 108.3203 C 125.5974 109.7207 125.3857 110.8384 124.9622 111.6982 C 124.5432 112.5518 123.9978 113.2349 123.3162 113.731 C 122.6395 114.2285 121.8868 114.5571 121.062 114.7314 C 120.2411 114.9063 119.4209 115 118.6151 115 ZM 118.6151 91.02 C 116.7767 91.02 115.4354 91.4575 114.593 92.3281 C 113.6508 93.2437 113.1887 94.6348 113.1887 96.5029 L 113.1887 108.3203 C 113.1887 110.2061 113.6508 111.6133 114.593 112.5371 C 115.467 113.4053 116.8065 113.8452 118.6151 113.8452 C 120.3921 113.8452 121.7482 113.4053 122.6877 112.5371 C 123.5909 111.6665 124.0438 110.2622 124.0438 108.3203 L 124.0438 96.5029 C 124.0438 94.5879 123.5909 93.1924 122.6877 92.3281 C 121.7825 91.4575 120.4236 91.02 118.6151 91.02 Z" fill="#ffffff"/>
		</g>
		<path d="M 89.1309 64.6523 L 89.1309 70.0444 L 95.504 74.3325 L 92.0376 76.9521 L 100.7654 77.5093 L 100.9016 75.1558 L 99.2411 69.7666 L 101.0403 69.6304 L 103.9443 68.7129 L 106.8541 67.332 L 108.6555 72.3076 L 111.8374 75.4893 L 116.1321 76.1787 L 120.4213 74.7939 L 124.9912 71.4761 L 125.8214 67.7446 L 123.4674 70.3706 L 120.0078 72.3076 L 115.022 73.2725 L 111.8374 69.8179 L 110.0382 65.5337 L 110.8707 56.4136 L 107.6866 56.7734 L 104.6411 56.9072 L 92.5947 59.2583 L 89.1309 64.6523 Z" fill="url(#gradient1)"/>
		<path d="M 89.6418 29.6001 L 104.2269 14.6626 L 145.7573 12.4502 L 138.1913 15.584 L 133.5773 19.0933 L 112.7163 39.5464 L 108.4683 52.8242 L 105.3323 60.189 L 101.272 69.5874 L 92.4126 68.1152 L 90.3795 69.0386 L 85.0261 69.0386 L 83.1782 74.7471 L 78.9351 74.1958 L 78.1947 76.4067 L 76.7222 76.0352 L 75.9795 80.8311 L 73.7645 82.1187 L 71.9161 81.563 L 69.8911 83.7764 L 70.4458 79.7222 L 73.2113 79.5386 L 74.504 78.9858 L 72.1086 68.1152 L 65.2775 67.375 L 56.9684 52.6323 L 66.7506 36.229 L 79.1201 19.0933 L 84.1061 20.0103 L 86.319 23.1396 L 89.6418 29.6001 L 89.6418 29.6001 Z" fill="url(#gradient2)"/>
		<path d="M 144.8395 16.3223 L 140.5935 17.7998 L 137.6383 15.958 L 108.2881 16.1411 L 93.1478 29.9653 L 85.2085 43.9697 L 113.6392 49.6816 L 115.1168 44.7056 L 116.4092 40.2827 L 115.1168 37.332 L 117.5172 38.2578 L 122.5005 36.9673 L 121.3903 27.938 L 129.1494 30.519 L 131.9146 30.3325 L 133.9448 29.0459 L 133.39 29.4102 L 144.8395 26.2734 L 143.1768 22.5933 L 146.3146 25.9111 L 150.1932 25.9111 L 158.4998 23.8818 L 169.3893 20.9336 L 169.3893 20.9336 " fill="url(#gradient3)"/>
		<path d="M 79.3052 66.6411 L 80.7751 72.9028 L 76.9049 72.3511 L 77.6422 76.0376 L 78.1947 73.4619 L 82.8108 74.0103 L 83.1782 68.4868 L 79.3052 66.6411 Z" fill="url(#gradient4)"/>
		<path d="M 77.9176 68.5181 L 74.3215 70.5942 L 74.8741 79.5786 L 75.9795 80.9629 L 77.9176 68.5181 Z" fill="url(#gradient5)"/>
		<path d="M 74.3215 79.3579 L 76.1207 80.7334 L 74.0416 81.9834 L 73.6255 80.0439 L 74.3215 79.3579 Z" fill="url(#gradient6)"/>
		<path d="M 73.2113 79.5386 L 70.4458 79.6816 L 71.4103 81.5649 L 73.7645 82.1187 L 73.2113 79.5386 Z" fill="url(#gradient7)"/>
		<path d="M 70.5848 80.9629 L 71.4103 81.8472 L 70.0269 83.5024 L 70.5848 80.9629 Z" fill="url(#gradient8)"/>
		<path d="M 89.1309 70.0444 L 98.6863 69.4067 L 100.4877 74.6567 L 96.0594 74.5161 L 89.1309 70.0444 Z" fill="url(#gradient9)"/>
		<path d="M 93.1478 76.5923 L 99.9323 77.147 L 100.9016 75.1558 L 95.504 74.3325 L 93.1478 76.5923 Z" fill="url(#gradient10)"/>
		<path d="M 91.0707 70.7886 L 100.2122 69.4067 L 105.749 65.9463 L 105.1936 65.1152 L 99.6575 68.022 L 91.0707 70.7886 Z" fill="url(#gradient11)"/>
		<path d="M 90.3795 69.0386 L 98.6863 67.332 L 108.6555 62.9077 L 107.6866 61.3843 L 98.1338 66.2275 L 90.3795 69.0386 Z" fill="url(#gradient12)"/>
		<path d="M 99.2411 64.5635 L 113.225 57.375 L 113.7804 58.9023 L 99.2411 64.5635 Z" fill="url(#gradient13)"/>
		<path d="M 110.3182 61.3843 L 98.825 68.2969 L 101.272 69.5874 L 106.8541 67.332 L 108.6555 71.6147 L 111.8374 69.8179 L 109.627 65.6743 L 110.3182 61.3843 Z" fill="url(#gradient14)"/>
		<path d="M 57.1508 52.3989 L 68.6396 46.5981 L 67.5339 59.729 L 57.1508 52.3989 Z" fill="url(#gradient15)"/>
		<path d="M 62.733 59.5444 L 70.4896 65.0791 L 65.506 66.9165 L 62.733 59.5444 Z" fill="url(#gradient16)"/>
		<path d="M 79.0275 19.2266 L 62.2736 25.8647 L 61.1655 30.0083 L 53.2755 35.6787 L 53 39.1289 L 55.3517 40.7881 L 55.2158 39.5464 L 58.1223 37.1958 L 61.859 37.0596 L 65.0438 35.8149 L 66.2902 36.3652 L 56.4574 52.9575 L 65.5964 56.2759 L 90.5186 42.3125 L 79.0275 19.2266 Z" fill="url(#gradient17)"/>
		<g>
			<path d="M 80.9653 46.1865 L 83.1782 67.9277 L 66.3824 67.561 L 63.0574 58.1616 L 80.9653 46.1865 Z" fill="url(#gradient18)"/>
			<path d="M 81.7029 47.1055 L 83.7308 65.3506 L 88.3492 59.6362 L 83.9188 66.4565 L 86.6865 66.8247 L 92.78 64.7998 L 81.7029 47.1055 Z" fill="url(#gradient19)"/>
			<path d="M 82.7694 46.0059 L 93.4108 67.3857 L 112.3217 57.3374 L 111.6035 54.4478 L 85.8199 45.5005 L 82.7694 46.0059 Z" fill="url(#gradient20)"/>
			<path d="M 82.4379 45.0811 L 95.9186 64.7998 L 113.2739 52.2656 L 112.1611 49.502 L 85.3965 44.1548 L 82.4379 45.0811 Z" fill="url(#gradient21)"/>
			<path d="M 85.7617 43.6025 L 114.194 49.3169 L 116.9624 39.9155 L 113.4564 34.7529 L 93.7004 29.6001 L 92.9628 31.0679 L 110.1357 35.6787 L 93.1478 32.5464 L 105.8875 37.8906 L 93.1478 33.6538 L 107.3651 40.2827 L 90.9349 34.1997 L 85.7617 43.6025 Z" fill="url(#gradient22)"/>
			<path d="M 93.8881 29.229 L 121.1154 36.0903 L 129.7017 30.1479 L 128.2217 25.9111 L 132.0536 28.4868 L 128.2217 24.9878 L 107.9176 16.6963 L 93.8881 29.229 Z" fill="url(#gradient23)"/>
			<path d="M 108.2881 16.1411 L 130.9923 25.542 L 133.9448 29.0459 L 135.9728 28.8594 L 146.87 25.542 L 146.3146 22.5933 L 149.8209 27.1973 L 151.1132 26.4653 L 140.5935 17.6177 L 136.7155 16.1411 L 108.2881 16.1411 Z" fill="url(#gradient24)"/>
			<path d="M 141.1415 17.4282 L 150.7457 25.542 L 169.574 21.3052 L 174 22.5933 L 172.1593 20.7485 L 144.0995 16.5098 L 141.1415 17.4282 Z" fill="url(#gradient25)"/>
		</g>
		<path d="M 62.5535 25.8647 L 66.9791 27.7993 L 61.718 30.0083 L 62.5535 25.8647 Z" fill="url(#gradient26)"/>
		<path d="M 61.859 30.1479 L 67.1204 28.9082 L 66.9791 31.8101 L 64.7665 33.8779 L 63.1083 32.7744 L 61.859 33.4644 L 56.7344 34.9834 L 61.859 30.1479 Z" fill="url(#gradient27)"/>
		<path d="M 61.4454 34.2915 L 61.859 37.0596 L 55.7659 37.1958 L 56.4574 35.5405 L 61.4454 34.2915 Z" fill="url(#gradient28)"/>
		<path d="M 67.5339 27.3838 L 72.2422 24.3403 L 81.3792 25.5869 L 79.0275 19.2266 L 63.2418 25.4438 L 67.5339 27.3838 Z" fill="url(#gradient29)"/>
		<path d="M 68.0892 36.5083 L 84.5662 35.5405 L 81.3792 45.7656 L 63.1083 57.2407 L 58.5336 52.1265 L 68.0892 36.5083 Z" fill="url(#gradient30)"/>
		<path d="M 81.2401 20.3325 L 88.439 32.7744 L 83.4583 20.4683 L 81.2401 20.3325 Z" fill="url(#gradient31)"/>
		<path d="M 72.2422 10.9336 L 73.6255 16.8794 L 84.0107 17.0156 L 85.6713 11.2109 L 83.0419 12.8662 L 79.0275 8.3091 L 74.8741 12.7324 L 72.2422 10.9336 Z" fill="url(#gradient32)"/>
		<path d="M 79.1661 9.1406 L 79.4417 16.5972 L 82.9034 16.7891 L 83.1782 13.9736 L 79.1661 9.1406 Z" fill="url(#gradient33)"/>
		<path d="M 74.9208 12.9604 L 75.1978 16.646 L 79.1661 16.5098 L 78.9838 8.7227 L 74.9208 12.9604 Z" fill="url(#gradient34)"/>
		<path d="M 72.3351 11.168 L 73.8105 16.5098 L 75.4733 16.4653 L 74.9208 12.9604 L 72.3351 11.168 Z" fill="url(#gradient35)"/>
		<path d="M 72.8905 9.5059 C 72.8905 9.9888 72.4932 10.3853 72.0088 10.3853 C 71.5293 10.3853 71.1349 9.9888 71.1349 9.5059 C 71.1349 9.021 71.5293 8.6274 72.0088 8.6274 C 72.4932 8.6274 72.8905 9.021 72.8905 9.5059 Z" fill="url(#gradient36)"/>
		<path d="M 79.9526 6.8799 C 79.9526 7.3638 79.5559 7.7549 79.0713 7.7549 C 78.5892 7.7549 78.1947 7.3638 78.1947 6.8799 C 78.1947 6.3965 78.5892 6 79.0713 6 C 79.5559 6 79.9526 6.3965 79.9526 6.8799 Z" fill="url(#gradient37)"/>
		<path d="M 86.8712 10.1978 C 86.8712 10.6763 86.4771 11.0703 85.9928 11.0703 C 85.5107 11.0703 85.121 10.6763 85.121 10.1978 C 85.121 9.7163 85.5107 9.3223 85.9928 9.3223 C 86.4771 9.3223 86.8712 9.7163 86.8712 10.1978 Z" fill="url(#gradient38)"/>
	</g>
</svg>