<?xml version="1.0" encoding="utf-8"?>
<!-- Generator: Adobe Illustrator 16.0.0, SVG Export Plug-In . SVG Version: 6.00 Build 0)  -->
<!DOCTYPE svg PUBLIC "-//W3C//DTD SVG 1.1//EN" "http://www.w3.org/Graphics/SVG/1.1/DTD/svg11.dtd">
<svg version="1.1" id="Camada_1" xmlns="http://www.w3.org/2000/svg" xmlns:xlink="http://www.w3.org/1999/xlink" x="0px" y="0px"
	 width="197.501px" height="115.636px" viewBox="0 0 197.501 115.636" enable-background="new 0 0 197.501 115.636"
	 xml:space="preserve">
<g>
	<g>
		<path fill="#FFFFFF" d="M28.168,81.84h-2.188v11.246h-3.367V68.203h3.367v11.006h1.846l9.229-11.006h3.794l0.034,0.085
			L30.8,80.062L41.601,93l-0.034,0.086h-4.085L28.168,81.84z"/>
		<path fill="#FFFFFF" d="M46.491,93.086h-3.384V68.203h3.384V93.086z"/>
		<path fill="#FFFFFF" d="M113.216,93.086h-2.051V81.635H97.032v11.451h-2.051V68.203h2.051v11.689h14.133V68.203h2.051V93.086z"/>
		<path fill="#FFFFFF" d="M135.726,82.678c0,3.213-0.881,5.811-2.641,7.793s-4.121,2.975-7.084,2.975
			c-2.916,0-5.244-0.992-6.98-2.975c-1.738-1.982-2.607-4.58-2.607-7.793v-4.051c0-3.201,0.865-5.799,2.598-7.793
			c1.732-1.992,4.057-2.99,6.973-2.99c2.963,0,5.326,0.998,7.092,2.99c1.768,1.994,2.65,4.592,2.65,7.793V82.678z M133.69,78.594
			c0-2.689-0.68-4.854-2.041-6.494s-3.25-2.461-5.666-2.461c-2.369,0-4.215,0.82-5.537,2.461s-1.982,3.805-1.982,6.494v4.084
			c0,2.711,0.664,4.889,1.992,6.529c1.326,1.641,3.176,2.461,5.545,2.461c2.426,0,4.314-0.818,5.666-2.453
			c1.35-1.635,2.023-3.814,2.023-6.537V78.594z"/>
		<path fill="#FFFFFF" d="M152.952,87.035c0-1.275-0.506-2.33-1.52-3.16c-1.016-0.832-2.734-1.613-5.162-2.342
			c-2.654-0.729-4.674-1.639-6.059-2.727c-1.383-1.088-2.076-2.566-2.076-4.434c0-1.904,0.775-3.467,2.324-4.691
			s3.527-1.838,5.93-1.838c2.529,0,4.564,0.691,6.102,2.076c1.539,1.385,2.285,3.143,2.238,5.273l-0.033,0.102h-1.914
			c0-1.641-0.596-3.002-1.785-4.084c-1.191-1.082-2.727-1.623-4.607-1.623c-1.936,0-3.455,0.457-4.553,1.375
			c-1.1,0.918-1.65,2.043-1.65,3.375c0,1.266,0.498,2.305,1.496,3.119c0.996,0.814,2.754,1.574,5.271,2.281
			c2.621,0.764,4.621,1.703,5.998,2.82c1.379,1.117,2.068,2.598,2.068,4.443c0,1.938-0.807,3.494-2.418,4.674
			s-3.643,1.77-6.092,1.77c-2.451,0-4.586-0.625-6.41-1.873c-1.822-1.246-2.705-3.066-2.648-5.459l0.035-0.104h1.896
			c0,1.926,0.723,3.359,2.17,4.299s3.1,1.41,4.957,1.41c1.902,0,3.451-0.436,4.648-1.309
			C152.354,89.539,152.952,88.414,152.952,87.035z"/>
		<path fill="#FFFFFF" d="M174.864,69.945h-8.477v23.141h-2.033V69.945h-8.768v-1.742h19.277V69.945z"/>
		<path fill="#FFFFFF" d="M88.136,80.645h-6.145v2.631h5.639v5.605c-0.422,0.525-1.062,0.979-1.922,1.359
			c-0.861,0.381-2.025,0.572-3.496,0.572c-1.914,0-3.486-0.715-4.716-2.145s-1.846-3.25-1.846-5.461v-5.16
			c0-2.188,0.581-3.994,1.743-5.418s2.694-2.137,4.598-2.137c1.799,0,3.189,0.504,4.17,1.514c0.979,1.008,1.469,2.27,1.469,3.785
			h3.23l0.033-0.104c0.047-2.277-0.734-4.154-2.34-5.631c-1.607-1.475-3.795-2.213-6.562-2.213c-2.861,0-5.196,0.951-7.007,2.854
			c-1.812,1.904-2.718,4.365-2.718,7.383v5.127c0,3.02,0.94,5.48,2.82,7.383c1.88,1.904,4.255,2.855,7.125,2.855
			c2.336,0,4.236-0.389,5.701-1.162c1.463-0.775,2.49-1.625,3.084-2.547v-7.484L88.136,80.645z"/>
		<polygon fill="#FFFFFF" points="66.009,68.203 66.009,87.156 65.907,87.189 53.926,68.203 50.56,68.203 50.56,93.086 
			53.926,93.086 53.926,74.115 54.029,74.082 66.009,93.086 69.375,93.086 69.375,70.096 		"/>
	</g>
	<g>
		<path fill="#FFFFFF" d="M98.614,54.534h-0.035h-0.021h-0.264c-6.307,0-11.23,1.982-13.031,2.807
			c-0.68,0.343-0.838,0.606-0.438,1.573c0.299,0.732,0.648,0.762,1.352,0.51c0.967-0.37,5.58-2.222,12.445-2.282
			c6.861,0.06,11.479,1.912,12.438,2.282c0.713,0.252,1.066,0.222,1.371-0.51c0.391-0.967,0.236-1.23-0.441-1.573
			c-1.805-0.825-6.732-2.807-13.029-2.807h-0.268h-0.023h-0.033H98.614z"/>
		<path fill="#FFFFFF" d="M97.065,24.247c0,0.945,0.762,1.7,1.693,1.7c0.939,0,1.697-0.754,1.697-1.7
			c0-0.926-0.758-1.696-1.697-1.696C97.827,22.551,97.065,23.321,97.065,24.247 M77.996,33.771c0-0.731-0.602-1.334-1.341-1.334
			c-0.745,0-1.342,0.603-1.342,1.334c0,0.746,0.597,1.35,1.342,1.35C77.394,35.121,77.996,34.516,77.996,33.771 M87.671,33.327
			c0-0.737-0.605-1.331-1.344-1.331c-0.74,0-1.344,0.594-1.344,1.331c0,0.745,0.604,1.346,1.344,1.346
			C87.065,34.672,87.671,34.071,87.671,33.327 M119.481,33.771c0,0.746,0.6,1.35,1.348,1.35c0.736,0,1.338-0.604,1.338-1.35
			c0-0.731-0.602-1.334-1.338-1.334C120.081,32.437,119.481,33.039,119.481,33.771 M109.81,33.327c0,0.745,0.59,1.346,1.342,1.346
			c0.736,0,1.33-0.601,1.33-1.346c0-0.737-0.594-1.331-1.33-1.331C110.399,31.996,109.81,32.59,109.81,33.327 M98.729,26.841
			l-0.082,0.007c-0.654,0.063-0.697,1.099-1.088,4.627c-0.432,3.824-1.404,7.903-2.379,10.13c-0.871,1.973-2.205,2.486-3.867,1.869
			c-2.098-0.788-3.342-6.11-3.5-6.556c-0.152-0.447-0.338-1.386-0.896-1.272c-0.639,0.125-0.443,0.59-0.074,4.313
			c0.379,3.738-0.148,5.09-1.354,5.366c-0.549,0.134-1.479,0.09-2.521-1.044c-1.164-1.297-3.739-6.275-4.232-7.213
			c-0.213-0.419-0.592-1.153-1.12-0.977c-0.568,0.183-0.072,1.488-0.072,1.488l6.034,16.771c0.514,1.351,1.041,1.275,1.926,0.75
			c0.9-0.526,6.258-2.61,12.869-2.61h0.732c6.611,0,11.977,2.084,12.865,2.61c0.898,0.524,1.418,0.601,1.924-0.75l6.033-16.771
			c0,0,0.498-1.305-0.078-1.488c-0.52-0.176-0.895,0.558-1.117,0.977c-0.49,0.938-3.057,5.917-4.227,7.213
			c-1.041,1.134-1.963,1.178-2.514,1.044c-1.197-0.276-1.734-1.628-1.361-5.366c0.371-3.724,0.572-4.189-0.078-4.313
			c-0.559-0.114-0.736,0.825-0.893,1.272c-0.15,0.446-1.398,5.769-3.498,6.556c-1.668,0.617-3.008,0.104-3.871-1.869
			c-0.971-2.227-1.936-6.306-2.367-10.13c-0.4-3.528-0.445-4.564-1.102-4.627l-0.062-0.007h-0.008H98.729z"/>
	</g>
</g>
</svg>
