<?xml version="1.0" standalone="no"?>
<!-- Generator: Adobe Fireworks CS5, Export SVG Extension by Aaron Beall (http://fireworks.abeall.com) . Version: 0.6.1  -->
<!DOCTYPE svg PUBLIC "-//W3C//DTD SVG 1.1//EN" "http://www.w3.org/Graphics/SVG/1.1/DTD/svg11.dtd">
<svg id="Untitled-Page%201" viewBox="0 0 180 120" style="background-color:#ffffff00" version="1.1"
	xmlns="http://www.w3.org/2000/svg" xmlns:xlink="http://www.w3.org/1999/xlink" xml:space="preserve"
	x="0px" y="0px" width="180px" height="120px"
>
	<defs>
		<linearGradient id="gradient1" x1="23.7623%" y1="50%" x2="102.614%" y2="50%">
			<stop stop-color="#ffffff" stop-opacity="1" offset="1%"/>
			<stop stop-color="#999999" stop-opacity="1" offset="99%"/>
		</linearGradient>
		<linearGradient id="gradient2" x1="31.1502%" y1="73.8766%" x2="70.9182%" y2="-22.5595%">
			<stop stop-color="#ffffff" stop-opacity="1" offset="1%"/>
			<stop stop-color="#999999" stop-opacity="1" offset="99%"/>
		</linearGradient>
		<linearGradient id="gradient3" x1="41.6233%" y1="89.6432%" x2="66.7984%" y2="-32.7759%">
			<stop stop-color="#ffffff" stop-opacity="1" offset="1%"/>
			<stop stop-color="#999999" stop-opacity="1" offset="99%"/>
		</linearGradient>
		<linearGradient id="gradient4" x1="45.7103%" y1="20.9052%" x2="69.2475%" y2="126.7876%">
			<stop stop-color="#ffffff" stop-opacity="1" offset="1%"/>
			<stop stop-color="#999999" stop-opacity="1" offset="99%"/>
		</linearGradient>
		<linearGradient id="gradient5" x1="23.7652%" y1="50.002%" x2="102.6138%" y2="50.002%">
			<stop stop-color="#ffffff" stop-opacity="1" offset="1%"/>
			<stop stop-color="#999999" stop-opacity="1" offset="99%"/>
		</linearGradient>
		<linearGradient id="gradient6" x1="23.7611%" y1="49.9907%" x2="102.6124%" y2="49.9907%">
			<stop stop-color="#ffffff" stop-opacity="1" offset="1%"/>
			<stop stop-color="#999999" stop-opacity="1" offset="99%"/>
		</linearGradient>
		<linearGradient id="gradient7" x1="23.7614%" y1="50%" x2="102.6115%" y2="50%">
			<stop stop-color="#ffffff" stop-opacity="1" offset="1%"/>
			<stop stop-color="#999999" stop-opacity="1" offset="99%"/>
		</linearGradient>
		<linearGradient id="gradient8" x1="23.7625%" y1="50.0096%" x2="102.6118%" y2="50.0096%">
			<stop stop-color="#ffffff" stop-opacity="1" offset="1%"/>
			<stop stop-color="#999999" stop-opacity="1" offset="99%"/>
		</linearGradient>
		<linearGradient id="gradient9" x1="23.762%" y1="50%" x2="102.6151%" y2="50%">
			<stop stop-color="#ffffff" stop-opacity="1" offset="1%"/>
			<stop stop-color="#999999" stop-opacity="1" offset="99%"/>
		</linearGradient>
		<linearGradient id="gradient10" x1="23.763%" y1="50%" x2="102.6134%" y2="50%">
			<stop stop-color="#ffffff" stop-opacity="1" offset="1%"/>
			<stop stop-color="#999999" stop-opacity="1" offset="99%"/>
		</linearGradient>
		<linearGradient id="gradient11" x1="23.7623%" y1="50.0043%" x2="102.6147%" y2="50.0043%">
			<stop stop-color="#ffffff" stop-opacity="1" offset="1%"/>
			<stop stop-color="#999999" stop-opacity="1" offset="99%"/>
		</linearGradient>
		<linearGradient id="gradient12" x1="23.7622%" y1="50%" x2="102.6143%" y2="50%">
			<stop stop-color="#ffffff" stop-opacity="1" offset="1%"/>
			<stop stop-color="#999999" stop-opacity="1" offset="99%"/>
		</linearGradient>
		<linearGradient id="gradient13" x1="23.762%" y1="49.9932%" x2="102.6145%" y2="49.9932%">
			<stop stop-color="#ffffff" stop-opacity="1" offset="1%"/>
			<stop stop-color="#999999" stop-opacity="1" offset="99%"/>
		</linearGradient>
		<linearGradient id="gradient14" x1="23.7622%" y1="49.9952%" x2="102.6136%" y2="49.9952%">
			<stop stop-color="#ffffff" stop-opacity="1" offset="1%"/>
			<stop stop-color="#999999" stop-opacity="1" offset="99%"/>
		</linearGradient>
		<linearGradient id="gradient15" x1="53.1339%" y1="58.5453%" x2="91.3523%" y2="-6.5968%">
			<stop stop-color="#ffffff" stop-opacity="1" offset="1%"/>
			<stop stop-color="#999999" stop-opacity="1" offset="99%"/>
		</linearGradient>
		<linearGradient id="gradient16" x1="46.98%" y1="16.1478%" x2="63.1677%" y2="130.918%">
			<stop stop-color="#ffffff" stop-opacity="1" offset="1%"/>
			<stop stop-color="#999999" stop-opacity="1" offset="99%"/>
		</linearGradient>
		<linearGradient id="gradient17" x1="38.3368%" y1="77.0906%" x2="77.0254%" y2="0.771%">
			<stop stop-color="#ffffff" stop-opacity="1" offset="1%"/>
			<stop stop-color="#999999" stop-opacity="1" offset="99%"/>
		</linearGradient>
		<linearGradient id="gradient18" x1="47.7571%" y1="81.5838%" x2="93.6996%" y2="-1.242%">
			<stop stop-color="#ffffff" stop-opacity="1" offset="1%"/>
			<stop stop-color="#999999" stop-opacity="1" offset="99%"/>
		</linearGradient>
		<linearGradient id="gradient19" x1="21.0978%" y1="76.4937%" x2="73.8187%" y2="18.8015%">
			<stop stop-color="#ffffff" stop-opacity="1" offset="1%"/>
			<stop stop-color="#999999" stop-opacity="1" offset="99%"/>
		</linearGradient>
		<linearGradient id="gradient20" x1="30.0803%" y1="66.5469%" x2="62.2999%" y2="4.5202%">
			<stop stop-color="#ffffff" stop-opacity="1" offset="1%"/>
			<stop stop-color="#999999" stop-opacity="1" offset="99%"/>
		</linearGradient>
		<linearGradient id="gradient21" x1="34.8281%" y1="66.032%" x2="59.3724%" y2="-5.383%">
			<stop stop-color="#ffffff" stop-opacity="1" offset="1%"/>
			<stop stop-color="#999999" stop-opacity="1" offset="99%"/>
		</linearGradient>
		<linearGradient id="gradient22" x1="46.9358%" y1="81.2754%" x2="70.5876%" y2="8.3655%">
			<stop stop-color="#ffffff" stop-opacity="1" offset="1%"/>
			<stop stop-color="#999999" stop-opacity="1" offset="99%"/>
		</linearGradient>
		<linearGradient id="gradient23" x1="44.7245%" y1="82.9326%" x2="63.0426%" y2="12.7093%">
			<stop stop-color="#ffffff" stop-opacity="1" offset="1%"/>
			<stop stop-color="#999999" stop-opacity="1" offset="99%"/>
		</linearGradient>
		<linearGradient id="gradient24" x1="47.8959%" y1="53.6116%" x2="59.1643%" y2="-19.2327%">
			<stop stop-color="#ffffff" stop-opacity="1" offset="1%"/>
			<stop stop-color="#999999" stop-opacity="1" offset="99%"/>
		</linearGradient>
		<linearGradient id="gradient25" x1="43.4658%" y1="85.0687%" x2="58.8323%" y2="-23.835%">
			<stop stop-color="#ffffff" stop-opacity="1" offset="1%"/>
			<stop stop-color="#999999" stop-opacity="1" offset="99%"/>
		</linearGradient>
		<linearGradient id="gradient26" x1="30.3371%" y1="91.6097%" x2="60.2009%" y2="17.7469%">
			<stop stop-color="#ffffff" stop-opacity="1" offset="1%"/>
			<stop stop-color="#999999" stop-opacity="1" offset="99%"/>
		</linearGradient>
		<linearGradient id="gradient27" x1="23.7618%" y1="50.008%" x2="102.6139%" y2="50.008%">
			<stop stop-color="#ffffff" stop-opacity="1" offset="1%"/>
			<stop stop-color="#999999" stop-opacity="1" offset="99%"/>
		</linearGradient>
		<linearGradient id="gradient28" x1="23.7624%" y1="50%" x2="102.6164%" y2="50%">
			<stop stop-color="#ffffff" stop-opacity="1" offset="1%"/>
			<stop stop-color="#999999" stop-opacity="1" offset="99%"/>
		</linearGradient>
		<linearGradient id="gradient29" x1="23.7621%" y1="50%" x2="102.6141%" y2="50%">
			<stop stop-color="#ffffff" stop-opacity="1" offset="1%"/>
			<stop stop-color="#999999" stop-opacity="1" offset="99%"/>
		</linearGradient>
		<linearGradient id="gradient30" x1="23.7622%" y1="49.9977%" x2="102.6142%" y2="49.9977%">
			<stop stop-color="#ffffff" stop-opacity="1" offset="1%"/>
			<stop stop-color="#999999" stop-opacity="1" offset="99%"/>
		</linearGradient>
		<linearGradient id="gradient31" x1="23.7634%" y1="50.002%" x2="102.6165%" y2="50.002%">
			<stop stop-color="#ffffff" stop-opacity="1" offset="1%"/>
			<stop stop-color="#999999" stop-opacity="1" offset="99%"/>
		</linearGradient>
		<linearGradient id="gradient32" x1="23.7613%" y1="50.0028%" x2="102.6152%" y2="50.0028%">
			<stop stop-color="#ffffff" stop-opacity="1" offset="1%"/>
			<stop stop-color="#999999" stop-opacity="1" offset="99%"/>
		</linearGradient>
		<linearGradient id="gradient33" x1="23.7624%" y1="50%" x2="102.6166%" y2="50%">
			<stop stop-color="#ffffff" stop-opacity="1" offset="1%"/>
			<stop stop-color="#999999" stop-opacity="1" offset="99%"/>
		</linearGradient>
		<linearGradient id="gradient34" x1="23.7621%" y1="49.9969%" x2="102.6166%" y2="49.9969%">
			<stop stop-color="#ffffff" stop-opacity="1" offset="1%"/>
			<stop stop-color="#999999" stop-opacity="1" offset="99%"/>
		</linearGradient>
		<linearGradient id="gradient35" x1="23.763%" y1="50%" x2="102.6179%" y2="50%">
			<stop stop-color="#ffffff" stop-opacity="1" offset="1%"/>
			<stop stop-color="#999999" stop-opacity="1" offset="99%"/>
		</linearGradient>
		<linearGradient id="gradient36" x1="23.7589%" y1="50%" x2="102.6144%" y2="50%">
			<stop stop-color="#ffffff" stop-opacity="1" offset="1%"/>
			<stop stop-color="#999999" stop-opacity="1" offset="99%"/>
		</linearGradient>
		<linearGradient id="gradient37" x1="23.7553%" y1="50%" x2="102.6109%" y2="50%">
			<stop stop-color="#ffffff" stop-opacity="1" offset="1%"/>
			<stop stop-color="#999999" stop-opacity="1" offset="99%"/>
		</linearGradient>
		<linearGradient id="gradient38" x1="23.762%" y1="50%" x2="102.6154%" y2="50%">
			<stop stop-color="#ffffff" stop-opacity="1" offset="1%"/>
			<stop stop-color="#999999" stop-opacity="1" offset="99%"/>
		</linearGradient>
	</defs>
	<g id="Layer%201">
		<g visibility="hidden">
			<g id="Typografia">
				<path d="M 60.642 115 C 58.3463 115 56.6008 114.4204 55.4055 113.2842 C 54.2393 112.1631 53.6597 110.5171 53.6597 108.3623 L 53.6597 96.4634 C 53.6597 94.3013 54.2393 92.6602 55.4055 91.5347 C 56.5717 90.4185 58.3196 89.8608 60.642 89.8608 C 62.9696 89.8608 64.7128 90.4185 65.8761 91.5347 C 67.0399 92.6602 67.6243 94.3013 67.6243 96.4634 C 67.6243 96.8604 67.3613 97.0581 66.845 97.0581 C 66.3293 97.0581 66.0685 96.8604 66.0685 96.4634 C 66.0685 95.2441 65.8933 94.2744 65.5375 93.5479 C 65.1801 92.8384 64.7394 92.2886 64.2063 91.9141 C 63.6708 91.5347 63.0938 91.2993 62.4559 91.1807 C 61.8301 91.0757 61.2239 91.02 60.642 91.02 C 60.0582 91.02 59.4443 91.0757 58.7991 91.1807 C 58.1539 91.2993 57.5598 91.5347 57.0321 91.9141 C 56.494 92.2886 56.0507 92.8384 55.6953 93.5479 C 55.3401 94.2744 55.1666 95.2441 55.1666 96.4634 L 55.1666 108.3623 C 55.1666 110.2212 55.6294 111.6133 56.5717 112.5371 C 57.5094 113.4053 58.865 113.8452 60.642 113.8452 C 62.4192 113.8452 63.775 113.4053 64.7128 112.5371 C 65.6156 111.6665 66.0685 110.271 66.0685 108.3623 L 66.0685 105.0806 L 59.7728 105.0806 C 59.2518 105.0806 58.9893 104.8789 58.9893 104.4829 C 58.9893 104.0864 59.2518 103.8862 59.7728 103.8862 L 66.845 103.8862 C 67.3613 103.8862 67.6243 104.0864 67.6243 104.4829 L 67.6243 108.3623 C 67.6243 110.5171 67.0399 112.1631 65.8761 113.2842 C 64.679 114.4204 62.9326 115 60.642 115 Z" fill="#ffffff"/>
				<path d="M 82.3582 103.5464 C 83.7797 104.5923 84.4906 106.0669 84.4906 107.9868 L 84.4906 114.3623 C 84.4906 114.7607 84.2325 114.96 83.7115 114.96 C 83.5214 114.96 83.3512 114.9043 83.2054 114.7944 C 83.0618 114.6826 82.9858 114.542 82.9858 114.3623 L 82.9858 107.9868 C 82.9858 106.4434 82.4579 105.2568 81.3892 104.4199 C 80.3252 103.5879 78.818 103.1792 76.8805 103.1792 L 72.5198 103.1792 L 72.5198 114.3623 C 72.5198 114.7607 72.2599 114.96 71.7411 114.96 C 71.5461 114.96 71.3807 114.9043 71.2346 114.7944 C 71.0859 114.6826 71.0106 114.542 71.0106 114.3623 L 71.0106 90.3848 C 71.0106 90.23 71.0859 90.1001 71.2346 89.9941 C 71.3807 89.8794 71.5461 89.8247 71.7411 89.8247 L 76.8805 89.8247 C 79.4655 89.8247 81.3698 90.3555 82.6036 91.4229 C 83.8284 92.4956 84.4443 94.1768 84.4443 96.4634 C 84.4443 98.7241 83.8429 100.4092 82.6503 101.4971 C 82.1318 101.9688 81.4667 102.3428 80.6609 102.6177 C 80.9846 102.7397 81.2817 102.8784 81.5571 103.0264 C 81.8348 103.1792 82.0996 103.3472 82.3582 103.5464 ZM 72.5198 102.0244 L 76.8805 102.0244 C 78.9789 102.0244 80.5173 101.5859 81.4889 100.7119 C 82.4211 99.8882 82.8912 98.4785 82.8912 96.4634 C 82.8912 94.5229 82.4211 93.1245 81.4889 92.2637 C 80.549 91.4087 79.0182 90.98 76.8805 90.98 L 72.5198 90.98 L 72.5198 102.0244 Z" fill="#ffffff"/>
				<path d="M 88.9047 115 C 88.3882 115 88.1252 114.7944 88.1252 114.3984 L 88.1252 90.4185 C 88.1252 90.2734 88.2009 90.1445 88.3492 90.0283 C 88.4928 89.9194 88.673 89.8608 88.9047 89.8608 C 89.1257 89.8608 89.3108 89.9194 89.4617 90.0283 C 89.6052 90.1445 89.676 90.2734 89.676 90.4185 L 89.676 114.3984 C 89.676 114.7944 89.4156 115 88.9047 115 Z" fill="#ffffff"/>
				<path d="M 93.7976 113.3931 C 94.024 113.3931 94.2114 113.4512 94.3549 113.5659 C 94.5013 113.6719 94.5718 113.8057 94.5718 113.9512 L 94.5718 114.3984 C 94.5718 114.7944 94.3164 115 93.7976 115 C 93.2765 115 93.026 114.7944 93.026 114.3984 L 93.026 113.9512 C 93.026 113.8057 93.0941 113.6719 93.2399 113.5659 C 93.3864 113.4512 93.5713 113.3931 93.7976 113.3931 Z" fill="#ffffff"/>
				<path d="M 108.7286 102.4229 C 108.7286 102.5791 108.6578 102.7109 108.509 102.8223 C 108.3633 102.9287 108.176 102.9883 107.952 102.9883 L 98.499 102.9883 L 98.499 114.3984 C 98.499 114.5767 98.4231 114.7163 98.2795 114.8315 C 98.136 114.9404 97.9655 115 97.7709 115 C 97.255 115 96.9943 114.7944 96.9943 114.3984 L 96.9943 90.4185 C 96.9943 90.2734 97.0696 90.1445 97.2131 90.0283 C 97.3618 89.9194 97.5446 89.8608 97.7709 89.8608 L 107.952 89.8608 C 108.176 89.8608 108.3633 89.9194 108.509 90.0283 C 108.6578 90.1445 108.7286 90.2734 108.7286 90.4185 C 108.7286 90.8164 108.4683 91.02 107.952 91.02 L 98.499 91.02 L 98.499 101.8325 L 107.952 101.8325 C 108.4683 101.8325 108.7286 102.0298 108.7286 102.4229 Z" fill="#ffffff"/>
				<path d="M 118.6151 115 C 117.8386 115 117.0376 114.9063 116.217 114.7314 C 115.3939 114.5571 114.6396 114.2285 113.96 113.731 C 113.281 113.2349 112.7358 112.5518 112.3124 111.6982 C 111.8934 110.8384 111.6818 109.7207 111.6818 108.3203 L 111.6818 96.5029 C 111.6818 94.3643 112.2465 92.7217 113.3809 91.5742 C 114.5737 90.4355 116.3217 89.8608 118.6151 89.8608 C 120.9446 89.8608 122.6877 90.4355 123.8521 91.5742 C 125.0154 92.6978 125.5974 94.3423 125.5974 96.5029 L 125.5974 108.3203 C 125.5974 109.7207 125.3857 110.8384 124.9622 111.6982 C 124.5432 112.5518 123.9978 113.2349 123.3162 113.731 C 122.6395 114.2285 121.8868 114.5571 121.062 114.7314 C 120.2411 114.9063 119.4209 115 118.6151 115 ZM 118.6151 91.02 C 116.7767 91.02 115.4354 91.4575 114.593 92.3281 C 113.6508 93.2437 113.1887 94.6348 113.1887 96.5029 L 113.1887 108.3203 C 113.1887 110.2061 113.6508 111.6133 114.593 112.5371 C 115.467 113.4053 116.8065 113.8452 118.6151 113.8452 C 120.3921 113.8452 121.7482 113.4053 122.6877 112.5371 C 123.5909 111.6665 124.0438 110.2622 124.0438 108.3203 L 124.0438 96.5029 C 124.0438 94.5879 123.5909 93.1924 122.6877 92.3281 C 121.7825 91.4575 120.4236 91.02 118.6151 91.02 Z" fill="#ffffff"/>
			</g>
			<path d="M 89.1309 64.6523 L 89.1309 70.0444 L 95.504 74.3325 L 92.0376 76.9521 L 100.7654 77.5093 L 100.9016 75.1558 L 99.2411 69.7666 L 101.0403 69.6304 L 103.9443 68.7129 L 106.8541 67.332 L 108.6555 72.3076 L 111.8374 75.4893 L 116.1321 76.1787 L 120.4213 74.7939 L 124.9912 71.4761 L 125.8214 67.7446 L 123.4674 70.3706 L 120.0078 72.3076 L 115.022 73.2725 L 111.8374 69.8179 L 110.0382 65.5337 L 110.8707 56.4136 L 107.6866 56.7734 L 104.6411 56.9072 L 92.5947 59.2583 L 89.1309 64.6523 Z" fill="url(#gradient1)"/>
			<path d="M 89.6418 29.6001 L 104.2269 14.6626 L 145.7573 12.4502 L 138.1913 15.584 L 133.5773 19.0933 L 112.7163 39.5464 L 108.4683 52.8242 L 105.3323 60.189 L 101.272 69.5874 L 92.4126 68.1152 L 90.3795 69.0386 L 85.0261 69.0386 L 83.1782 74.7471 L 78.9351 74.1958 L 78.1947 76.4067 L 76.7222 76.0352 L 75.9795 80.8311 L 73.7645 82.1187 L 71.9161 81.563 L 69.8911 83.7764 L 70.4458 79.7222 L 73.2113 79.5386 L 74.504 78.9858 L 72.1086 68.1152 L 65.2775 67.375 L 56.9684 52.6323 L 66.7506 36.229 L 79.1201 19.0933 L 84.1061 20.0103 L 86.319 23.1396 L 89.6418 29.6001 L 89.6418 29.6001 Z" fill="url(#gradient2)"/>
			<path d="M 144.8395 16.3223 L 140.5935 17.7998 L 137.6383 15.958 L 108.2881 16.1411 L 93.1478 29.9653 L 85.2085 43.9697 L 113.6392 49.6816 L 115.1168 44.7056 L 116.4092 40.2827 L 115.1168 37.332 L 117.5172 38.2578 L 122.5005 36.9673 L 121.3903 27.938 L 129.1494 30.519 L 131.9146 30.3325 L 133.9448 29.0459 L 133.39 29.4102 L 144.8395 26.2734 L 143.1768 22.5933 L 146.3146 25.9111 L 150.1932 25.9111 L 158.4998 23.8818 L 169.3893 20.9336 L 169.3893 20.9336 " fill="url(#gradient3)"/>
			<path d="M 79.3052 66.6411 L 80.7751 72.9028 L 76.9049 72.3511 L 77.6422 76.0376 L 78.1947 73.4619 L 82.8108 74.0103 L 83.1782 68.4868 L 79.3052 66.6411 Z" fill="url(#gradient4)"/>
			<path d="M 77.9176 68.5181 L 74.3215 70.5942 L 74.8741 79.5786 L 75.9795 80.9629 L 77.9176 68.5181 Z" fill="url(#gradient5)"/>
			<path d="M 74.3215 79.3579 L 76.1207 80.7334 L 74.0416 81.9834 L 73.6255 80.0439 L 74.3215 79.3579 Z" fill="url(#gradient6)"/>
			<path d="M 73.2113 79.5386 L 70.4458 79.6816 L 71.4103 81.5649 L 73.7645 82.1187 L 73.2113 79.5386 Z" fill="url(#gradient7)"/>
			<path d="M 70.5848 80.9629 L 71.4103 81.8472 L 70.0269 83.5024 L 70.5848 80.9629 Z" fill="url(#gradient8)"/>
			<path d="M 89.1309 70.0444 L 98.6863 69.4067 L 100.4877 74.6567 L 96.0594 74.5161 L 89.1309 70.0444 Z" fill="url(#gradient9)"/>
			<path d="M 93.1478 76.5923 L 99.9323 77.147 L 100.9016 75.1558 L 95.504 74.3325 L 93.1478 76.5923 Z" fill="url(#gradient10)"/>
			<path d="M 91.0707 70.7886 L 100.2122 69.4067 L 105.749 65.9463 L 105.1936 65.1152 L 99.6575 68.022 L 91.0707 70.7886 Z" fill="url(#gradient11)"/>
			<path d="M 90.3795 69.0386 L 98.6863 67.332 L 108.6555 62.9077 L 107.6866 61.3843 L 98.1338 66.2275 L 90.3795 69.0386 Z" fill="url(#gradient12)"/>
			<path d="M 99.2411 64.5635 L 113.225 57.375 L 113.7804 58.9023 L 99.2411 64.5635 Z" fill="url(#gradient13)"/>
			<path d="M 110.3182 61.3843 L 98.825 68.2969 L 101.272 69.5874 L 106.8541 67.332 L 108.6555 71.6147 L 111.8374 69.8179 L 109.627 65.6743 L 110.3182 61.3843 Z" fill="url(#gradient14)"/>
			<path d="M 57.1508 52.3989 L 68.6396 46.5981 L 67.5339 59.729 L 57.1508 52.3989 Z" fill="url(#gradient15)"/>
			<path d="M 62.733 59.5444 L 70.4896 65.0791 L 65.506 66.9165 L 62.733 59.5444 Z" fill="url(#gradient16)"/>
			<path d="M 79.0275 19.2266 L 62.2736 25.8647 L 61.1655 30.0083 L 53.2755 35.6787 L 53 39.1289 L 55.3517 40.7881 L 55.2158 39.5464 L 58.1223 37.1958 L 61.859 37.0596 L 65.0438 35.8149 L 66.2902 36.3652 L 56.4574 52.9575 L 65.5964 56.2759 L 90.5186 42.3125 L 79.0275 19.2266 Z" fill="url(#gradient17)"/>
			<g>
				<path d="M 80.9653 46.1865 L 83.1782 67.9277 L 66.3824 67.561 L 63.0574 58.1616 L 80.9653 46.1865 Z" fill="url(#gradient18)"/>
				<path d="M 81.7029 47.1055 L 83.7308 65.3506 L 88.3492 59.6362 L 83.9188 66.4565 L 86.6865 66.8247 L 92.78 64.7998 L 81.7029 47.1055 Z" fill="url(#gradient19)"/>
				<path d="M 82.7694 46.0059 L 93.4108 67.3857 L 112.3217 57.3374 L 111.6035 54.4478 L 85.8199 45.5005 L 82.7694 46.0059 Z" fill="url(#gradient20)"/>
				<path d="M 82.4379 45.0811 L 95.9186 64.7998 L 113.2739 52.2656 L 112.1611 49.502 L 85.3965 44.1548 L 82.4379 45.0811 Z" fill="url(#gradient21)"/>
				<path d="M 85.7617 43.6025 L 114.194 49.3169 L 116.9624 39.9155 L 113.4564 34.7529 L 93.7004 29.6001 L 92.9628 31.0679 L 110.1357 35.6787 L 93.1478 32.5464 L 105.8875 37.8906 L 93.1478 33.6538 L 107.3651 40.2827 L 90.9349 34.1997 L 85.7617 43.6025 Z" fill="url(#gradient22)"/>
				<path d="M 93.8881 29.229 L 121.1154 36.0903 L 129.7017 30.1479 L 128.2217 25.9111 L 132.0536 28.4868 L 128.2217 24.9878 L 107.9176 16.6963 L 93.8881 29.229 Z" fill="url(#gradient23)"/>
				<path d="M 108.2881 16.1411 L 130.9923 25.542 L 133.9448 29.0459 L 135.9728 28.8594 L 146.87 25.542 L 146.3146 22.5933 L 149.8209 27.1973 L 151.1132 26.4653 L 140.5935 17.6177 L 136.7155 16.1411 L 108.2881 16.1411 Z" fill="url(#gradient24)"/>
				<path d="M 141.1415 17.4282 L 150.7457 25.542 L 169.574 21.3052 L 174 22.5933 L 172.1593 20.7485 L 144.0995 16.5098 L 141.1415 17.4282 Z" fill="url(#gradient25)"/>
			</g>
			<path d="M 62.5535 25.8647 L 66.9791 27.7993 L 61.718 30.0083 L 62.5535 25.8647 Z" fill="url(#gradient26)"/>
			<path d="M 61.859 30.1479 L 67.1204 28.9082 L 66.9791 31.8101 L 64.7665 33.8779 L 63.1083 32.7744 L 61.859 33.4644 L 56.7344 34.9834 L 61.859 30.1479 Z" fill="url(#gradient27)"/>
			<path d="M 61.4454 34.2915 L 61.859 37.0596 L 55.7659 37.1958 L 56.4574 35.5405 L 61.4454 34.2915 Z" fill="url(#gradient28)"/>
			<path d="M 67.5339 27.3838 L 72.2422 24.3403 L 81.3792 25.5869 L 79.0275 19.2266 L 63.2418 25.4438 L 67.5339 27.3838 Z" fill="url(#gradient29)"/>
			<path d="M 68.0892 36.5083 L 84.5662 35.5405 L 81.3792 45.7656 L 63.1083 57.2407 L 58.5336 52.1265 L 68.0892 36.5083 Z" fill="url(#gradient30)"/>
			<path d="M 81.2401 20.3325 L 88.439 32.7744 L 83.4583 20.4683 L 81.2401 20.3325 Z" fill="url(#gradient31)"/>
			<path d="M 72.2422 10.9336 L 73.6255 16.8794 L 84.0107 17.0156 L 85.6713 11.2109 L 83.0419 12.8662 L 79.0275 8.3091 L 74.8741 12.7324 L 72.2422 10.9336 Z" fill="url(#gradient32)"/>
			<path d="M 79.1661 9.1406 L 79.4417 16.5972 L 82.9034 16.7891 L 83.1782 13.9736 L 79.1661 9.1406 Z" fill="url(#gradient33)"/>
			<path d="M 74.9208 12.9604 L 75.1978 16.646 L 79.1661 16.5098 L 78.9838 8.7227 L 74.9208 12.9604 Z" fill="url(#gradient34)"/>
			<path d="M 72.3351 11.168 L 73.8105 16.5098 L 75.4733 16.4653 L 74.9208 12.9604 L 72.3351 11.168 Z" fill="url(#gradient35)"/>
			<path d="M 72.8905 9.5059 C 72.8905 9.9888 72.4932 10.3853 72.0088 10.3853 C 71.5293 10.3853 71.1349 9.9888 71.1349 9.5059 C 71.1349 9.021 71.5293 8.6274 72.0088 8.6274 C 72.4932 8.6274 72.8905 9.021 72.8905 9.5059 Z" fill="url(#gradient36)"/>
			<path d="M 79.9526 6.8799 C 79.9526 7.3638 79.5559 7.7549 79.0713 7.7549 C 78.5892 7.7549 78.1947 7.3638 78.1947 6.8799 C 78.1947 6.3965 78.5892 6 79.0713 6 C 79.5559 6 79.9526 6.3965 79.9526 6.8799 Z" fill="url(#gradient37)"/>
			<path d="M 86.8712 10.1978 C 86.8712 10.6763 86.4771 11.0703 85.9928 11.0703 C 85.5107 11.0703 85.121 10.6763 85.121 10.1978 C 85.121 9.7163 85.5107 9.3223 85.9928 9.3223 C 86.4771 9.3223 86.8712 9.7163 86.8712 10.1978 Z" fill="url(#gradient38)"/>
		</g>
		<g visibility="hidden">
			<g>
				<path d="M 57.2744 64.0879 C 56.5995 63.4346 55.762 63.1025 54.7832 63.1025 C 53.8984 63.1025 52.7725 63.7173 51.2388 65.0356 C 49.9482 66.1455 48.4978 66.8398 46.9255 67.0957 C 46.4187 67.1782 45.9381 67.2158 45.458 67.2158 C 43.4392 67.2158 41.7717 66.5625 40.3577 65.209 C 38.9468 63.8643 38.2625 62.2651 38.2625 60.3203 L 38.2625 51.0073 C 38.2625 49.5601 38.7593 48.3643 39.791 47.3452 C 40.8069 46.3291 42.0317 45.8384 43.5349 45.8384 C 45.0865 45.8384 46.3696 46.3237 47.4492 47.3252 C 48.5056 48.3042 49.0657 49.5498 49.114 51.0073 L 49.114 53.9067 L 57.1393 53.9067 L 57.1393 51.9067 C 57.1393 49.4883 56.5291 47.2827 55.3271 45.353 C 54.7241 44.3867 53.9895 43.4927 53.1421 42.7046 C 50.4969 40.2471 47.2639 39 43.5349 39 C 41.54 39 39.6715 39.3667 37.9922 40.0894 C 37.9102 40.1211 37.8275 40.1587 37.7477 40.1973 L 37.6338 40.248 C 36.2537 40.8892 35.0034 41.7598 33.9175 42.8252 C 33.5818 43.1509 33.2603 43.4985 32.9348 43.8853 C 30.9872 46.2241 30 49.002 30 52.1318 L 30 59.3467 C 30 63.5254 31.5276 67.0859 34.5359 69.937 C 37.2933 72.5283 40.6345 73.9482 44.4761 74.1621 L 44.7412 74.1753 C 44.9773 74.187 45.214 74.1997 45.458 74.1997 C 46.0095 74.1997 46.5427 74.1621 46.9414 74.1294 C 51.0413 73.8027 54.4993 72.064 57.218 68.9683 L 57.3218 68.853 C 57.3999 68.772 57.4766 68.688 57.5305 68.6172 C 57.7623 68.3545 57.9045 68.0698 57.9968 67.8779 C 58.196 67.4409 58.2965 66.9863 58.2965 66.5215 C 58.2965 66.0205 58.1926 65.5479 57.9751 65.0776 C 57.8058 64.7153 57.572 64.3813 57.2744 64.0879 Z" fill="#ffffff"/>
				<path d="M 88.4756 42.7998 C 88.4041 41.7764 88.02 40.9023 87.3318 40.2104 C 86.5547 39.4233 85.5586 39.0229 84.3705 39.0229 C 83.1836 39.0229 82.1923 39.4067 81.4191 40.1587 C 80.636 40.9146 80.2388 41.8828 80.2388 43.0415 L 80.2388 60.9932 C 80.2388 62.7642 79.5969 64.2847 78.333 65.5117 C 77.0444 66.7578 75.5393 67.3643 73.7344 67.3643 C 71.8269 67.3643 70.3 66.7622 69.069 65.519 C 67.8479 64.2944 67.2288 62.772 67.2288 60.9932 L 67.2288 39.8906 L 58.8916 39.8906 L 58.8916 59.8721 C 58.8916 62.7388 59.5795 65.3027 60.9365 67.4927 C 61.563 68.5063 62.2754 69.3892 63.1189 70.188 C 65.9114 72.8496 69.4836 74.1997 73.7344 74.1997 L 73.8372 74.1997 C 75.996 74.1997 77.9744 73.8711 79.7188 73.2275 C 80.2209 73.0439 80.7134 72.8306 81.1824 72.5889 C 86.1589 70.0361 87.7527 65.0908 88.2611 62.3726 C 88.4722 61.2378 88.5002 60.4858 88.5002 60.436 L 88.5002 43.1201 C 88.5002 43.0415 88.4934 42.9688 88.4851 42.897 C 88.48 42.8716 88.479 42.8423 88.4756 42.7998 Z" fill="#ffffff"/>
				<path d="M 140.679 64.0859 C 140.0029 63.4346 139.162 63.1025 138.183 63.1025 C 137.3075 63.1025 136.1426 63.7363 134.6318 65.0337 C 134.3794 65.249 134.0947 65.4644 133.7452 65.7065 C 132.2628 66.7095 130.6066 67.2158 128.8253 67.2158 C 126.8483 67.2158 125.2115 66.5625 123.8175 65.2134 C 122.7355 64.165 122.0886 62.9771 121.8513 61.6055 L 140.7064 61.6055 L 140.7064 52.2065 C 140.7064 48.4766 139.3783 45.3066 136.7554 42.7842 C 134.1356 40.2725 130.8876 39 127.0991 39 C 125.4572 39 123.8834 39.2573 122.4224 39.7656 C 120.5688 40.4087 118.9043 41.4531 117.4755 42.8682 C 114.8798 45.4341 113.5643 48.5757 113.5643 52.2065 L 113.5643 59.3467 C 113.5643 63.6333 115.052 67.2168 117.9835 69.9995 C 120.9061 72.7842 124.5679 74.1997 128.8699 74.1997 C 131.821 74.1997 134.4849 73.5337 136.7891 72.2202 C 138.3505 71.3267 139.7546 70.1406 140.9636 68.6807 C 141.4589 68.0776 141.709 67.3516 141.709 66.5215 C 141.709 65.5728 141.3646 64.7544 140.679 64.0859 ZM 121.7495 51.1582 C 121.7495 49.7144 122.2705 48.5029 123.3369 47.4595 C 124.4093 46.4165 125.6517 45.9111 127.137 45.9111 C 129.7487 45.9111 131.4213 46.9858 132.252 49.1924 C 132.4863 49.832 132.6016 50.4502 132.6016 51.0825 L 132.6016 53.9917 L 121.7495 53.9917 L 121.7495 51.1582 Z" fill="#ffffff"/>
				<path d="M 113.6962 46.6582 C 113.7504 46.2778 113.7754 45.9829 113.7754 45.7651 C 113.7754 43.8467 112.3312 42.2813 109.4822 41.1172 C 107.3798 40.2578 105.2069 40.0747 103.7566 40.0747 C 102.3297 40.0747 101.3689 40.2437 101.3236 40.2524 C 98.061 40.8574 90.473 43.2842 90.473 52.6982 C 90.473 53.356 90.4575 53.918 90.4218 54.4385 C 90.4218 54.5083 90.4155 54.5894 90.4111 54.6548 L 90.4089 71.4585 L 90.4128 71.4585 C 90.4385 73.6084 92.21 75.3438 94.3932 75.3438 C 96.5748 75.3438 98.3469 73.6074 98.3727 71.4556 L 98.3799 71.4556 L 98.3638 53.2339 C 98.3638 51.5708 98.8472 50.2197 99.8375 49.0938 C 100.5845 48.2422 101.547 47.7393 102.7797 47.5513 C 103.0454 47.5122 103.4043 47.4648 103.7866 47.4648 C 105.1697 47.4648 106.6523 47.9155 108.1703 48.793 C 108.734 49.1504 109.4124 49.3325 110.1862 49.3325 C 112.0435 49.3325 113.2533 48.4307 113.6838 46.7197 L 113.6962 46.6582 Z" fill="#ffffff"/>
			</g>
			<g>
				<g>
					<path d="M 100.9951 89.9844 L 101.1743 89.8008 C 101.2791 89.6631 101.3992 89.6475 101.4889 89.771 C 101.6084 89.9082 102.4456 90.9165 103.6558 90.9185 C 105.0613 90.9185 106.2877 89.9248 106.2882 88.6123 C 106.2887 87.481 105.3774 86.9463 104.0465 86.2568 C 102.746 85.584 101.8192 84.9585 101.8197 83.5532 C 101.8204 82.1772 102.7927 80.5586 105.17 80.5596 C 106.4854 80.5596 107.3669 81.3394 107.3669 81.3394 C 107.4124 81.3848 107.5164 81.4766 107.3818 81.6597 L 107.2473 81.8438 C 107.1576 81.9644 107.0524 82.0112 106.9187 81.9209 C 106.8739 81.8892 106.0808 81.2173 105.0791 81.2173 C 103.3312 81.2163 102.5232 82.4839 102.5227 83.4917 C 102.5216 84.5615 103.3138 85.0967 104.4058 85.6313 C 105.9744 86.396 107.0057 87.085 107.0057 88.5352 C 107.0048 90.3374 105.4497 91.5591 103.5958 91.5591 C 102.0708 91.5581 101.1595 90.4893 100.9951 90.3047 C 100.921 90.229 100.8457 90.1538 100.9951 89.9844 Z" fill="#ffffff"/>
					<path d="M 110.043 81.3706 L 107.5018 81.3696 C 107.3519 81.3696 107.3376 81.2783 107.3525 81.1416 L 107.3823 80.9116 C 107.3976 80.7886 107.5018 80.7144 107.5914 80.7144 L 113.3619 80.7153 C 113.4816 80.7153 113.5419 80.8076 113.5264 80.9141 L 113.4965 81.1733 C 113.4816 81.2803 113.392 81.3726 113.2725 81.3726 L 110.7307 81.3706 L 109.3813 91.209 C 109.3671 91.3169 109.2767 91.4082 109.1274 91.4082 L 108.8435 91.4082 C 108.7391 91.4082 108.6637 91.3164 108.6792 91.209 L 110.043 81.3706 Z" fill="#ffffff"/>
					<path d="M 113.6011 80.9141 C 113.6161 80.8076 113.7212 80.7153 113.8109 80.7153 L 114.139 80.7153 C 114.2441 80.7163 114.318 80.8076 114.3038 80.9155 L 113.4044 87.437 C 113.1195 89.4082 113.9866 90.8608 115.7506 90.8618 C 117.5143 90.8618 118.7858 89.4268 119.056 87.4551 L 119.9697 80.917 C 119.9849 80.7944 120.0444 80.7173 120.1945 80.7173 L 120.5082 80.7173 C 120.5978 80.7173 120.6725 80.8096 120.6576 80.917 L 119.7582 87.5176 C 119.4285 89.8545 117.8429 91.564 115.6462 91.564 C 113.5975 91.563 112.3722 89.8516 112.6874 87.5137 L 113.6011 80.9141 Z" fill="#ffffff"/>
					<path d="M 122.1674 80.9175 C 122.1827 80.8096 122.2723 80.7192 122.3618 80.7192 L 125.2477 80.7202 C 127.5348 80.7212 129.2979 82.8145 129.2968 85.3657 C 129.296 88.6978 126.7091 91.4141 123.7783 91.4141 L 120.8931 91.4141 C 120.8036 91.4141 120.7286 91.3213 120.7438 91.2148 L 122.1674 80.9175 ZM 123.734 90.7568 C 126.3049 90.7583 128.5485 88.4229 128.5498 85.3975 C 128.5503 83.1348 127.131 81.377 125.0226 81.377 L 122.7953 81.376 L 121.5063 90.7559 L 123.734 90.7568 Z" fill="#ffffff"/>
					<path d="M 130.8839 80.9204 C 130.8982 80.8145 130.9735 80.7222 131.1079 80.7222 L 131.4366 80.7222 C 131.5417 80.7222 131.616 80.8145 131.6011 80.9219 L 130.1919 91.2168 C 130.1626 91.3408 130.0575 91.4165 129.9528 91.4165 L 129.639 91.4165 C 129.5338 91.4165 129.4594 91.3247 129.4746 91.2168 L 130.8839 80.9204 Z" fill="#ffffff"/>
					<path d="M 138.2405 79.7524 C 140.6029 79.7524 142.3962 81.8926 142.3958 84.5361 C 142.3939 87.9878 139.8218 90.7534 136.7274 90.7524 C 134.3651 90.751 132.5717 88.6431 132.5723 86.0151 C 132.5741 82.562 135.1461 79.752 138.2405 79.7524 ZM 136.8173 90.0786 C 139.3585 90.0806 141.7061 87.6372 141.708 84.6289 C 141.7085 82.3208 140.2437 80.4248 138.151 80.4248 C 135.5948 80.4233 133.2614 82.8965 133.2607 85.9224 C 133.2596 88.2139 134.7238 90.0786 136.8173 90.0786 Z" fill="#ffffff"/>
				</g>
				<g>
					<path d="M 109.1104 92.769 C 109.1245 92.6162 109.2596 92.478 109.394 92.478 L 112.6235 92.479 C 114.9852 92.4805 116.6748 94.6509 116.6735 97.126 C 116.6718 100.4424 114.2938 103.1748 111.1548 103.1748 L 107.9108 103.1733 C 107.7758 103.1733 107.6862 103.0352 107.7161 102.8818 L 109.1104 92.769 ZM 111.2592 101.311 C 113.0836 101.312 114.5939 99.5552 114.595 97.2637 C 114.5958 95.5977 113.6692 94.3286 112.2339 94.3276 L 110.829 94.3276 L 109.8691 101.311 L 111.2592 101.311 Z" fill="#ffffff"/>
					<path d="M 117.8264 92.771 C 117.8413 92.6196 117.9764 92.4814 118.1101 92.4814 L 123.6415 92.4844 C 123.791 92.4844 123.8805 92.6221 123.8657 92.7749 L 123.6865 94.0269 C 123.6709 94.1797 123.5363 94.3179 123.387 94.3179 L 119.5599 94.3169 L 119.2151 96.8203 L 122.3843 96.8218 C 122.5193 96.8218 122.6234 96.9609 122.6083 97.1128 L 122.4285 98.3804 C 122.3992 98.5488 122.264 98.6709 122.1296 98.6709 L 118.9601 98.6699 L 118.5859 101.3442 L 122.4272 101.3447 C 122.5768 101.3447 122.6514 101.4829 122.6365 101.6367 L 122.4716 102.8887 C 122.4572 103.0405 122.3221 103.1782 122.1726 103.1782 L 116.6411 103.1753 C 116.4918 103.1753 116.4022 103.0376 116.432 102.8853 L 117.8264 92.771 Z" fill="#ffffff"/>
					<path d="M 122.6962 101.6821 L 123.28 100.811 C 123.4146 100.5972 123.6244 100.644 123.7432 100.75 C 123.953 100.9331 124.6851 101.5439 125.5969 101.5454 C 126.2699 101.5454 126.9272 101.0117 126.9277 100.248 C 126.9277 99.5752 126.4802 99.1309 125.6429 98.5659 C 124.6569 97.9092 123.4905 97.0366 123.491 95.5098 C 123.4917 93.9805 124.524 92.3315 126.8711 92.3325 C 128.2612 92.3325 129.2777 93.0674 129.5322 93.3271 C 129.7108 93.5103 129.7257 93.7256 129.5765 93.938 L 128.9926 94.7769 C 128.8737 94.9614 128.6788 94.9771 128.4702 94.8086 C 128.2312 94.6104 127.5435 94.1362 126.7816 94.1362 C 126.0189 94.1343 125.5098 94.7305 125.5098 95.3262 C 125.5098 95.938 125.9125 96.2441 126.8102 96.8564 C 127.7968 97.5273 129.1108 98.3682 129.1108 100.0488 C 129.1104 101.8369 127.7489 103.333 125.5366 103.332 C 123.9972 103.332 122.9353 102.4146 122.6962 102.1396 C 122.6072 102.0488 122.5317 101.9121 122.6962 101.6821 Z" fill="#ffffff"/>
					<path d="M 130.5631 93.5957 C 130.5786 93.4443 130.7133 93.3062 130.8475 93.3062 L 132.313 93.3062 C 132.4473 93.3062 132.5519 93.4453 132.5221 93.5977 L 131.1283 103.7104 C 131.1134 103.8647 130.979 104 130.844 104 L 129.3782 104 C 129.2441 104 129.1395 103.8633 129.1696 103.7104 L 130.5631 93.5957 Z" fill="#ffffff"/>
					<path d="M 137.8585 92.3374 C 139.2043 92.3374 140.2062 92.8726 140.9688 93.7891 C 141.0577 93.9121 141.0427 94.0952 140.9082 94.2163 L 140.1157 95.0112 C 139.9366 95.1484 139.7566 95.1484 139.6217 95.0112 C 139.2333 94.6289 138.681 94.248 137.7535 94.248 C 135.96 94.2456 134.4047 96.1401 134.4032 98.3257 C 134.4032 99.9438 135.4037 101.3511 136.7197 101.3511 C 137.4219 101.3521 137.9608 101.168 138.2448 100.9839 L 138.4247 99.6392 L 137.4679 99.6392 C 137.3177 99.6392 137.229 99.5176 137.2438 99.3647 L 137.4087 98.1729 C 137.439 98.0044 137.5575 97.8833 137.7075 97.8833 L 140.3536 97.8843 C 140.4882 97.8843 140.5779 98.0215 140.5634 98.1738 L 140.0686 101.8418 C 140.0376 102.0854 139.9335 102.2231 139.8291 102.3145 C 139.6797 102.4375 138.4987 103.3369 136.4799 103.3359 C 134.0436 103.3359 132.2794 101.2119 132.2806 98.5835 C 132.2819 94.9932 134.7351 92.3364 137.8585 92.3374 Z" fill="#ffffff"/>
					<path d="M 141.9858 92.6123 C 142.0009 92.4614 142.1353 92.3374 142.2701 92.3374 L 142.6587 92.3374 L 147.215 98.9409 L 147.2311 98.9409 L 148.0396 92.7837 C 148.0555 92.6318 148.1746 92.4941 148.3241 92.4941 L 149.7744 92.4941 C 149.9089 92.4941 150.0142 92.6318 149.9984 92.7847 L 148.5743 103.0664 C 148.5596 103.2188 148.4242 103.3423 148.2899 103.3408 L 147.8865 103.3408 L 143.3441 96.541 L 143.33 96.541 L 142.52 102.896 C 142.5045 103.0474 142.3707 103.187 142.2213 103.187 L 140.7859 103.1855 C 140.666 103.1855 140.561 103.063 140.5762 102.9268 L 141.9858 92.6123 Z" fill="#ffffff"/>
				</g>
			</g>
		</g>
		<g>
			<path d="M 112.17 25.2783 C 110.1088 24.7935 108.0294 24.3404 105.8842 24.0277 C 105.8063 24.0158 105.7125 24.0099 105.6346 24 C 102.5825 26.2282 99.7803 28.6938 97.2475 31.3336 C 100.0498 30.9279 102.9041 30.6707 105.8263 30.5638 C 116.009 30.1957 125.6964 31.8481 134.4449 35.0004 C 128.1352 30.6984 120.5251 27.3027 112.17 25.2783 L 112.17 25.2783 Z" fill="#ffffff"/>
			<path d="M 107.63 47.4987 C 119.1589 42.1064 131.2311 39.8287 142.6263 40.3254 C 132.819 36.0333 121.5638 33.7774 109.6653 34.2049 C 103.801 34.4166 98.1364 35.2734 92.7694 36.6804 C 88.3092 37.844 84.0448 39.3914 80.032 41.2812 C 81.9104 43.653 83.9744 45.9259 86.2019 48.0963 C 83.8011 53.8567 82.4928 60.0228 82.4708 66.4223 C 85.9922 62.3241 90.0689 58.5466 94.6489 55.1805 C 98.6138 52.2796 102.9461 49.6912 107.63 47.4987 Z" fill="#ffffff"/>
			<path d="M 152 89.9922 C 151.8582 89.9922 151.7204 89.9962 151.5726 89.9962 C 145.7262 89.9962 141.4877 86.2859 141.4877 81.1726 L 141.4877 81.0598 C 141.4877 76.1681 145.7302 72.3371 151.1591 72.3371 C 151.4467 72.3371 151.7303 72.3489 152 72.3628 L 152 66.4916 C 151.7483 66.4777 151.4907 66.4777 151.229 66.4777 C 140.5989 66.4777 132.5774 72.7922 132.5774 81.1726 L 132.5774 81.2794 C 132.5774 89.454 140.7087 95.8635 151.0932 95.8635 C 151.4107 95.8635 151.6984 95.8556 152 95.8476 L 152 89.9922 Z" fill="#ffffff"/>
			<path d="M 44.5344 77.6779 C 38.2666 76.3541 37.3817 75.7149 37.3817 73.7519 L 37.3817 73.6629 C 37.3817 72.2163 38.9957 71.0627 42.0496 71.0627 C 43.6056 71.0627 45.6449 71.4842 47.0731 72.0066 L 47.0731 65.7436 C 45.7408 65.518 43.7035 65.2528 42.1555 65.2528 C 34.7412 65.2528 29.4561 68.8405 29.4561 74.2684 L 29.4561 74.3495 C 29.4561 80.2861 34.166 81.9483 41.4824 83.4839 C 47.5425 84.7642 48.1177 85.619 48.1177 87.2872 L 48.1177 87.3723 C 48.1177 89.1236 46.1423 90.1921 42.8766 90.1921 C 38.732 90.1921 35.9836 88.7812 32.7239 86.5629 L 28 91.2191 C 32.3583 94.415 37.2259 96 42.7228 96 C 50.5485 96 56.0493 92.6696 56.0493 86.7311 L 56.0493 86.646 C 56.0493 81.4358 51.8988 79.259 44.5344 77.6779 L 44.5344 77.6779 Z" fill="#ffffff"/>
			<path d="M 62.8245 80.3256 C 63.4537 77.1714 65.5949 75.1074 68.8846 75.1074 C 72.2162 75.1074 74.3095 77.2149 74.7829 80.3256 L 62.8245 80.3256 ZM 68.8846 69.535 C 60.7392 69.535 55.0527 75.2954 55.0527 82.2867 L 55.0527 82.3777 C 55.0527 89.8755 61.2625 95.0383 69.6616 95.0383 C 69.9093 95.0383 70.6862 95.0066 70.9259 95.0047 L 70.9259 89.4164 C 70.7282 89.4263 69.9772 89.4599 69.7635 89.4599 C 66.2181 89.4599 63.7134 87.8195 62.9264 84.6633 L 82.2212 84.6633 C 82.2671 84.0182 82.327 83.6085 82.327 82.9179 L 82.327 82.8368 C 82.327 75.8891 78.2204 69.535 68.8846 69.535 L 68.8846 69.535 Z" fill="#ffffff"/>
			<path d="M 107.4902 81.6139 C 107.4902 74.9867 103.3955 69.8121 94.7448 69.8121 C 86.0781 69.8121 81.9855 74.9867 81.9855 81.6139 L 81.9855 94.5851 L 90.007 94.5851 L 90.007 81.135 C 90.1528 78.6812 91.1235 75.7862 94.7448 75.7862 C 98.3521 75.7862 99.4087 78.6812 99.5465 81.135 L 99.5465 94.5851 L 107.4902 94.5851 L 107.4902 81.6139 Z" fill="#ffffff"/>
			<path d="M 120.5251 69.6696 C 120.1736 69.6696 118.9632 69.6775 118.6296 69.6874 L 118.6296 75.614 C 120.1736 75.6299 122.2868 75.8891 123.2276 76.3798 C 124.6198 77.1021 125.3368 78.3171 125.3708 79.9675 C 123.4793 79.7458 121.3361 79.5994 119.4845 79.5539 C 111.9104 79.36 108.1672 81.8394 107.4122 85.813 C 107.3963 85.8822 107.3863 85.9614 107.3723 86.0346 C 107.3683 86.0603 107.3663 86.088 107.3603 86.1117 C 107.3024 86.4917 107.2684 86.8914 107.2684 87.3129 L 107.2684 87.4059 C 107.2684 92.2541 111.5968 94.9057 116.8639 94.9057 C 120.7309 94.9057 123.3913 93.667 125.3188 91.793 L 125.3188 94.6188 L 132.9908 94.6188 L 132.9908 80.2307 C 132.9908 73.5976 129.1798 69.6696 120.5251 69.6696 L 120.5251 69.6696 ZM 125.3948 85.8703 C 124.7037 89.454 120.9725 89.9922 120.1276 90.0318 C 114.0935 90.3465 113.8778 86.2582 115.9112 85.0135 C 118.6356 83.3394 125.4207 84.2833 125.4207 84.2833 C 125.4207 84.5228 125.4827 85.1303 125.3948 85.8703 L 125.3948 85.8703 Z" fill="#ffffff"/>
		</g>
	</g>
</svg>