<?xml version="1.0" encoding="utf-8"?>
<!-- Generator: Adobe Illustrator 15.0.0, SVG Export Plug-In . SVG Version: 6.00 Build 0)  -->
<!DOCTYPE svg PUBLIC "-//W3C//DTD SVG 1.1//EN" "http://www.w3.org/Graphics/SVG/1.1/DTD/svg11.dtd">
<svg version="1.1" id="Layer_1" xmlns="http://www.w3.org/2000/svg" xmlns:xlink="http://www.w3.org/1999/xlink" x="0px" y="0px"
	 width="315px" height="161.627px" viewBox="0 0 315 161.627" enable-background="new 0 0 315 161.627" xml:space="preserve">
<g>
	<path fill="#FFFFFF" d="M145.71,51.442c0,5.187-4.23,9.418-9.42,9.418c-5.187,0-9.418-4.231-9.418-9.418s4.231-9.42,9.418-9.42
		l1.889,0.082c14.99,0,14.99-22.933,0-22.933l-1.889,0.082c-5.187,0-9.418-4.233-9.418-9.42c0-5.188,4.231-9.418,9.418-9.418
		c5.19,0,9.42,4.23,9.42,9.418l-0.077,1.884c0,14.981,22.761,14.981,22.761,0l-0.078-1.884c0-5.188,4.232-9.418,9.42-9.418
		s9.42,4.23,9.42,9.418c0,5.187-4.232,9.42-9.42,9.42l-1.887-0.082c-14.99,0-14.992,22.933,0,22.933l1.887-0.082
		c5.188,0,9.42,4.233,9.42,9.42s-4.232,9.418-9.42,9.418s-9.42-4.231-9.42-9.418l0.078-1.885c0-14.982-22.761-14.982-22.761,0
		L145.71,51.442z"/>
	<path fill-rule="evenodd" clip-rule="evenodd" fill="#FFFFFF" d="M58.964,106.248c3.606,0,4.711,1.383,4.711,4.68v5.457
		c0,3.514-1.178,4.395-4.638,4.395h-3.102v-14.531H58.964z M58.529,86.863c3.605,0,4.712,1.381,4.712,4.68v2.262
		c0,3.512-1.179,4.393-4.64,4.393h-2.666V86.863H58.529z M43.274,102.156v-1.082V77.839h14.173h3.965
		c4.408,0,7.112,0.705,8.825,1.705c5.052,2.762,5.052,7.864,5.052,10.768c-0.016,2.854-0.203,6.039-2.426,8.508
		c-1.307,1.481-2.987,2.309-4.823,2.77c1.226,0.346,2.28,0.764,3.109,1.246c5.224,2.857,5.224,8.131,5.224,11.133v2.6
		c0,3.146,0,6.811-2.508,9.596c-2.785,3.156-7.201,3.453-11.318,3.453h-2.825H43.274V102.156z M1.156,129.617h12.277l1.22-7.764
		h10.794l1.228,7.764h12.278L28.435,77.839H11.671L1.156,129.617z M24.216,112.412h-8.324l4.312-26.357L24.216,112.412z
		 M178.043,86.863c3.604,0,4.709,1.381,4.709,4.68v24.73c0,3.512-1.176,4.393-4.637,4.393h-3.891V86.863H178.043z M162.088,129.617
		h19.416c4.115,0,8.529-0.297,11.316-3.453c2.508-2.785,2.508-6.449,2.508-9.596V90.732c0-3,0-8.273-5.225-11.131
		c-1.77-1.033-4.564-1.762-9.121-1.762h-18.895V129.617z M118.585,129.617h12.28l1.208-7.764h10.803l1.22,7.764h12.288
		l-10.517-51.778h-16.764L118.585,129.617z M133.312,112.412l4.004-26.084l4.332,26.084H133.312z M113.369,129.617h-12.208v-17.715
		c0-3.299-1.107-5.654-4.711-5.654h-2.735v23.369H81.588v-27.461v-1.082V77.839h10.076h4.096h3.966c4.408,0,7.11,0.705,8.825,1.705
		c5.053,2.762,5.053,8.893,5.053,11.795c-0.018,2.855-0.204,6.041-2.429,8.508c-1.306,1.48-2.984,2.311-4.822,2.771
		c0,0-0.131,0.035-0.286,0.059c2.526,0.447,4.182,1.332,5.139,2.318c1.012,1.047,1.572,2.129,1.809,3.057
		c0.236,0.93,0.354,3.484,0.354,7.664V129.617z M96.31,86.863c3.605,0,4.711,1.381,4.711,4.68v2.262
		c0,3.512-1.179,4.393-4.641,4.393h-2.665V86.863H96.31z"/>
	<path fill="#FFFFFF" d="M213.115,83.699c0,0-0.031,0.162,0,0.133c-0.113,7.65-12.82,7.566,0,19.385v26.4h-12.963v-26.4
		c12.82-11.818,0.111-11.734,0-19.385c0.029,0.029,0-0.133,0-0.133c0.08-3.545,2.939-6.391,6.482-6.461
		C210.177,77.308,213.045,80.154,213.115,83.699"/>
	<rect x="218.348" y="106.48" fill="#FFFFFF" width="19.502" height="7.203"/>
	<path fill-rule="evenodd" clip-rule="evenodd" fill="#FFFFFF" d="M274.863,129.617h-12.209v-17.715
		c0-3.299-1.105-5.654-4.711-5.654h-2.734v23.369h-12.127v-27.461v-1.082V77.839h10.076h4.096h3.965
		c4.408,0,7.111,0.705,8.826,1.705c5.053,2.762,5.053,8.893,5.053,11.795c-0.018,2.855-0.203,6.041-2.428,8.508
		c-1.309,1.48-2.984,2.311-4.822,2.771c0,0-0.131,0.035-0.287,0.059c2.527,0.447,4.184,1.332,5.141,2.318
		c1.01,1.047,1.57,2.129,1.807,3.057c0.236,0.93,0.355,3.484,0.355,7.664V129.617z M257.803,86.863c3.607,0,4.713,1.381,4.713,4.68
		v2.262c0,3.513-1.18,4.393-4.641,4.393h-2.666V86.863H257.803z M287.967,104.589c-5.305-3.752-7.221-5.195-7.221-12.486
		c0-10.467,3.316-14.727,16.283-14.727c13.633,0,14.885,5.342,14.59,16.531h-11.936v-3.537c0-2.6-0.223-4.26-3.465-4.26
		c-3.168,0-3.168,2.383-3.168,4.475c0,2.744,0.148,3.754,2.357,5.197l10.76,7.291c4.789,3.25,6.705,4.766,6.705,12.561
		c0,5.56-1.105,8.229-3.316,10.469c-2.137,2.164-5.453,3.896-13.043,3.896c-5.82,0-10.094-1.01-12.82-3.176
		c-3.758-3.104-3.684-7.725-3.537-13.859h12.453v3.971c0,1.227,0,4.113,3.684,4.113c3.906,0,3.979-2.381,3.979-3.609
		c0-3.898-0.072-4.258-4.715-7.508L287.967,104.589z"/>
	<path fill="#FFFFFF" d="M7.934,154.476v-5.393c0-1.533,0-2.144-0.698-2.865c-0.655-0.7-1.467-0.834-2.28-0.834
		c-0.495,0-2.413,0-2.977,1.646c-0.181,0.564-0.181,1.782-0.158,2.257h1.648c-0.023-0.249-0.046-0.496-0.046-0.835
		c0-0.677,0-1.624,1.354-1.624c1.376,0,1.376,1.06,1.376,1.984c-0.948,0.88-1.129,0.993-2.843,2.145
		c-1.173,0.812-1.896,1.397-1.896,3.225c0,0.835,0.114,1.918,1.174,2.551c0.384,0.225,0.835,0.337,1.353,0.337
		c1.535,0,2.076-1.06,2.324-1.556v1.354h2.211C8.002,156.482,7.934,156.235,7.934,154.476 M6.153,153.234
		c0,0.903-0.068,1.67-0.722,2.165c-0.293,0.226-0.632,0.34-0.97,0.34c-1.219,0-1.219-1.173-1.219-1.67
		c0-1.308,0.609-1.782,1.421-2.415c0.88-0.654,0.971-0.722,1.49-1.216V153.234z M14,151.091l-1.262-1.082
		c-0.904-0.746-1.399-1.175-1.399-1.94c0-0.836,0.518-1.241,1.195-1.241c0.204,0,0.722,0.022,0.994,0.562
		c0.179,0.339,0.202,0.654,0.202,1.512h1.602c0-0.947,0-2.074-0.655-2.773c-0.428-0.451-1.217-0.744-2.143-0.744
		c-1.331,0-2.887,0.562-2.887,2.888c0,1.397,0.721,2.052,1.556,2.796l1.376,1.219c0.835,0.722,1.174,1.083,1.174,1.962
		c0,0.903-0.587,1.376-1.286,1.376c-0.633,0-1.083-0.337-1.264-0.787c-0.135-0.361-0.135-1.129-0.135-1.873H9.33
		c0.023,1.284,0.045,2.03,0.317,2.639c0.586,1.399,2.075,1.466,2.684,1.466c0.812,0,1.467-0.112,2.053-0.519
		c0.835-0.564,1.218-1.556,1.218-2.549C15.602,152.422,14.722,151.678,14,151.091 M21.06,151.091l-1.263-1.082
		c-0.903-0.746-1.4-1.175-1.4-1.94c0-0.836,0.519-1.241,1.197-1.241c0.203,0,0.722,0.022,0.992,0.562
		c0.18,0.339,0.202,0.654,0.202,1.512h1.603c0-0.947,0-2.074-0.654-2.773c-0.429-0.451-1.219-0.744-2.143-0.744
		c-1.332,0-2.888,0.562-2.888,2.888c0,1.397,0.723,2.052,1.556,2.796l1.376,1.219c0.835,0.722,1.173,1.083,1.173,1.962
		c0,0.903-0.586,1.376-1.285,1.376c-0.632,0-1.083-0.337-1.264-0.787c-0.135-0.361-0.135-1.129-0.135-1.873h-1.738
		c0.023,1.284,0.046,2.03,0.317,2.639c0.587,1.399,2.076,1.466,2.684,1.466c0.812,0,1.466-0.112,2.053-0.519
		c0.835-0.564,1.218-1.556,1.218-2.549C22.661,152.422,21.782,151.678,21.06,151.091 M27.103,145.384
		c-2.301,0-2.797,1.33-2.978,2.006c-0.202,0.79-0.247,2.573-0.247,4.131c0,2.819,0.022,3.474,0.45,4.239
		c0.519,0.947,1.602,1.309,2.707,1.309c2.347,0,2.798-1.284,2.979-2.007c0.203-0.768,0.248-2.844,0.248-3.701
		c0-3.382,0-3.721-0.384-4.511C29.404,145.878,28.479,145.384,27.103,145.384 M27.013,155.67c-1.173,0-1.196-1.083-1.219-2.076
		c-0.022-0.766-0.022-2.955-0.022-3.292c0-2.323,0-3.431,1.354-3.431c1.06,0,1.195,0.947,1.218,1.602
		c0.023,0.589,0.023,1.919,0.023,2.866C28.367,154.476,28.367,155.67,27.013,155.67 M159.578,145.384
		c-2.302,0-2.796,1.33-2.978,2.006c-0.203,0.79-0.247,2.573-0.247,4.131c0,2.819,0.022,3.474,0.451,4.239
		c0.518,0.947,1.601,1.309,2.706,1.309c2.348,0,2.798-1.284,2.979-2.007c0.201-0.768,0.247-2.844,0.247-3.701
		c0-3.382,0-3.721-0.383-4.511C161.879,145.878,160.954,145.384,159.578,145.384 M159.488,155.67c-1.173,0-1.196-1.083-1.219-2.076
		c-0.021-0.766-0.021-2.955-0.021-3.292c0-2.323,0-3.431,1.354-3.431c1.06,0,1.194,0.947,1.217,1.602
		c0.023,0.589,0.023,1.919,0.023,2.866C160.842,154.476,160.842,155.67,159.488,155.67 M35.131,146.76
		c1.422,0,1.422,0.969,1.422,2.909h1.715c0-2.233,0-4.285-3.091-4.285c-3.204,0-3.316,2.098-3.316,6.112
		c0,1.851,0.045,3.045,0.271,3.791c0.383,1.286,1.489,1.781,2.865,1.781c3.271,0,3.271-2.346,3.271-4.397h-1.715
		c0,1.87-0.112,2.978-1.444,2.978c-1.331,0-1.376-1.151-1.399-1.737c-0.023-0.972-0.023-2.572-0.023-3.023
		C33.687,147.729,33.71,146.76,35.131,146.76 M40.025,156.867h1.783v-11.304h-1.783V156.867z M40.025,143.601h1.783v-2.322h-1.783
		V143.601z M49.769,154.476v-5.393c0-1.533,0-2.144-0.699-2.865c-0.654-0.7-1.467-0.834-2.278-0.834c-0.497,0-2.414,0-2.978,1.646
		c-0.181,0.564-0.181,1.782-0.158,2.257h1.647c-0.023-0.249-0.045-0.496-0.045-0.835c0-0.677,0-1.624,1.353-1.624
		c1.376,0,1.376,1.06,1.376,1.984c-0.947,0.88-1.127,0.993-2.843,2.145c-1.172,0.812-1.894,1.397-1.894,3.225
		c0,0.835,0.113,1.918,1.173,2.551c0.383,0.225,0.835,0.337,1.354,0.337c1.533,0,2.076-1.06,2.323-1.556v1.354h2.212
		C49.837,156.482,49.769,156.235,49.769,154.476 M47.987,153.234c0,0.903-0.066,1.67-0.722,2.165c-0.293,0.226-0.631,0.34-0.97,0.34
		c-1.218,0-1.218-1.173-1.218-1.67c0-1.308,0.61-1.782,1.422-2.415c0.879-0.654,0.97-0.722,1.488-1.216V153.234z M54.866,146.76
		c1.42,0,1.42,0.969,1.42,2.909h1.716c0-2.233,0-4.285-3.092-4.285c-3.202,0-3.316,2.098-3.316,6.112c0,3.474,0,5.323,2.798,5.55
		l-0.677,2.055c0.112,0.044,0.316,0.111,0.452,0.157c0.135-0.113,0.361-0.293,0.654-0.293c0.518,0,0.879,0.429,0.879,0.925
		c0,0.451-0.474,1.06-1.286,1.06c-0.564,0-0.992-0.204-1.218-0.315c-0.09,0.157-0.203,0.405-0.293,0.564
		c0.451,0.201,0.97,0.429,1.737,0.429c1.557,0,2.459-1.015,2.459-2.008c0-0.904-0.745-1.444-1.535-1.444
		c-0.428,0-0.721,0.111-1.014,0.226l0.451-1.332c0.429,0,1.376-0.022,2.166-0.834c0.745-0.768,0.835-1.669,0.835-3.563h-1.716
		c0,1.87-0.111,2.978-1.443,2.978c-1.33,0-1.376-1.151-1.398-1.737c-0.023-0.972-0.023-2.572-0.023-3.023
		C53.422,147.729,53.445,146.76,54.866,146.76 M61.406,143.33c0.247,0,0.473,0.068,1.195,0.34c0.925,0.314,1.016,0.36,1.353,0.36
		c0.565,0,1.602-0.339,1.692-2.03h-0.812c-0.022,0.27-0.044,0.698-0.587,0.698c-0.202,0-0.405-0.067-0.586-0.134
		c-1.42-0.496-1.579-0.564-1.985-0.564c-0.699,0-1.646,0.473-1.714,2.03h0.812C60.797,143.759,60.863,143.33,61.406,143.33
		 M65.737,154.476v-5.393c0-1.533,0-2.144-0.7-2.865c-0.654-0.7-1.465-0.834-2.278-0.834c-0.496,0-2.414,0-2.978,1.646
		c-0.18,0.564-0.18,1.782-0.158,2.257h1.647c-0.023-0.249-0.046-0.496-0.046-0.835c0-0.677,0-1.624,1.354-1.624
		c1.376,0,1.376,1.06,1.376,1.984c-0.947,0.88-1.128,0.993-2.841,2.145c-1.174,0.812-1.896,1.397-1.896,3.225
		c0,0.835,0.113,1.918,1.173,2.551c0.384,0.225,0.834,0.337,1.354,0.337c1.534,0,2.075-1.06,2.324-1.556v1.354h2.21
		C65.805,156.482,65.737,156.235,65.737,154.476 M63.954,153.234c0,0.903-0.067,1.67-0.722,2.165
		c-0.293,0.226-0.631,0.34-0.969,0.34c-1.218,0-1.218-1.173-1.218-1.67c0-1.308,0.608-1.782,1.421-2.415
		c0.88-0.654,0.97-0.722,1.488-1.216V153.234z M70.788,145.384c-2.302,0-2.797,1.33-2.979,2.006
		c-0.202,0.79-0.247,2.573-0.247,4.131c0,2.819,0.022,3.474,0.451,4.239c0.518,0.947,1.601,1.309,2.708,1.309
		c2.345,0,2.796-1.284,2.978-2.007c0.201-0.768,0.246-2.844,0.246-3.701c0-3.382,0-3.721-0.383-4.511
		C73.088,145.878,72.164,145.384,70.788,145.384 M70.697,155.67c-1.173,0-1.195-1.083-1.219-2.076
		c-0.021-0.766-0.021-2.955-0.021-3.292c0-2.323,0-3.431,1.353-3.431c1.061,0,1.196,0.947,1.218,1.602
		c0.023,0.589,0.023,1.919,0.023,2.866C72.051,154.476,72.051,155.67,70.697,155.67 M84.883,145.384
		c-1.286,0-1.895,0.722-2.21,1.127v-5.572h-1.784v15.928h1.671v-1.015c0.406,0.473,1.06,1.217,2.3,1.217
		c0.858,0,2.166-0.405,2.482-2.074c0.204-1.016,0.204-3.791,0.204-5.01c0-0.969,0-2.57-0.474-3.406
		C86.824,146.128,86.17,145.384,84.883,145.384 M85.65,154.273c-0.045,0.383-0.158,1.397-1.285,1.397
		c-0.43,0-1.444-0.136-1.647-1.489c-0.045-0.383-0.045-0.654-0.045-1.713v-2.573c0-1.422,0-1.579,0.09-1.916
		c0.248-0.993,1.038-1.265,1.534-1.265c1.421,0,1.421,1.422,1.421,4.467C85.718,152.4,85.718,153.573,85.65,154.273 M91.084,147.708
		v-2.122h-1.737v11.281h1.851v-5.392c0-2.099,0.136-2.73,0.497-3.271c0.631-0.925,1.623-0.925,2.436-0.925v-1.873
		C92.19,145.292,91.491,146.828,91.084,147.708 M100.964,154.476v-5.393c0-1.533,0-2.144-0.699-2.865
		c-0.654-0.7-1.466-0.834-2.279-0.834c-0.496,0-2.414,0-2.976,1.646c-0.182,0.564-0.182,1.782-0.16,2.257h1.648
		c-0.024-0.249-0.045-0.496-0.045-0.835c0-0.677,0-1.624,1.353-1.624c1.375,0,1.375,1.06,1.375,1.984
		c-0.947,0.88-1.126,0.993-2.841,2.145c-1.173,0.812-1.895,1.397-1.895,3.225c0,0.835,0.112,1.918,1.172,2.551
		c0.385,0.225,0.836,0.337,1.355,0.337c1.533,0,2.075-1.06,2.323-1.556v1.354h2.211
		C101.031,156.482,100.964,156.235,100.964,154.476 M99.181,153.234c0,0.903-0.066,1.67-0.72,2.165
		c-0.294,0.226-0.632,0.34-0.971,0.34c-1.219,0-1.219-1.173-1.219-1.67c0-1.308,0.611-1.782,1.422-2.415
		c0.879-0.654,0.971-0.722,1.488-1.216V153.234z M107.031,151.091l-1.264-1.082c-0.902-0.746-1.399-1.175-1.399-1.94
		c0-0.836,0.519-1.241,1.196-1.241c0.203,0,0.723,0.022,0.992,0.562c0.181,0.339,0.204,0.654,0.204,1.512h1.601
		c0-0.947,0-2.074-0.654-2.773c-0.428-0.451-1.218-0.744-2.143-0.744c-1.332,0-2.886,0.562-2.886,2.888
		c0,1.397,0.72,2.052,1.554,2.796l1.377,1.219c0.835,0.722,1.173,1.083,1.173,1.962c0,0.903-0.587,1.376-1.285,1.376
		c-0.632,0-1.083-0.337-1.265-0.787c-0.135-0.361-0.135-1.129-0.135-1.873h-1.738c0.024,1.284,0.047,2.03,0.319,2.639
		c0.585,1.399,2.074,1.466,2.683,1.466c0.812,0,1.466-0.112,2.053-0.519c0.835-0.564,1.218-1.556,1.218-2.549
		C108.632,152.422,107.752,151.678,107.031,151.091 M110.029,156.867h1.781v-11.304h-1.781V156.867z M110.029,143.601h1.781v-2.322
		h-1.781V143.601z M113.773,156.867h1.826v-15.929h-1.826V156.867z M123.742,151.588c0-2.844,0-3.159-0.09-3.724
		c-0.36-2.459-2.436-2.459-3.158-2.459c-2.91,0-3.113,2.212-3.113,4.625c0,4.535,0.09,4.761,0.293,5.301
		c0.654,1.647,2.212,1.737,2.887,1.737c0.565,0,2.324,0,2.978-1.781c0.203-0.586,0.203-1.15,0.203-1.918h-1.669
		c0,1.15-0.112,2.255-1.422,2.255c-1.285,0-1.376-1.173-1.421-1.602c-0.045-0.404-0.023-1.555-0.023-2.435H123.742z
		 M119.344,147.729c0.113-0.36,0.382-0.947,1.307-0.947c1.355,0,1.377,1.331,1.4,1.94v1.398h-2.844
		C119.207,148.519,119.207,148.158,119.344,147.729 M221.699,151.588c0-2.844,0-3.159-0.09-3.724
		c-0.361-2.459-2.437-2.459-3.159-2.459c-2.909,0-3.112,2.212-3.112,4.625c0,4.535,0.089,4.761,0.293,5.301
		c0.654,1.647,2.211,1.737,2.888,1.737c0.564,0,2.323,0,2.978-1.781c0.203-0.586,0.203-1.15,0.203-1.918h-1.669
		c0,1.15-0.113,2.255-1.422,2.255c-1.286,0-1.376-1.173-1.421-1.602c-0.045-0.404-0.023-1.555-0.023-2.435H221.699z M217.3,147.729
		c0.113-0.36,0.384-0.947,1.309-0.947c1.354,0,1.377,1.331,1.399,1.94v1.398h-2.844C217.164,148.519,217.164,148.158,217.3,147.729
		 M125.545,156.867h1.782v-11.304h-1.782V156.867z M125.545,143.601h1.782v-2.322h-1.782V143.601z M131.048,147.708v-2.122h-1.738
		v11.281h1.852v-5.392c0-2.099,0.135-2.73,0.496-3.271c0.63-0.925,1.623-0.925,2.435-0.925v-1.873
		C132.152,145.292,131.455,146.828,131.048,147.708 M140.928,154.476v-5.393c0-1.533,0-2.144-0.701-2.865
		c-0.654-0.7-1.465-0.834-2.277-0.834c-0.497,0-2.415,0-2.978,1.646c-0.181,0.564-0.181,1.782-0.159,2.257h1.647
		c-0.022-0.249-0.043-0.496-0.043-0.835c0-0.677,0-1.624,1.351-1.624c1.376,0,1.376,1.06,1.376,1.984
		c-0.947,0.88-1.127,0.993-2.841,2.145c-1.173,0.812-1.895,1.397-1.895,3.225c0,0.835,0.111,1.918,1.173,2.551
		c0.383,0.225,0.836,0.337,1.353,0.337c1.535,0,2.077-1.06,2.325-1.556v1.354h2.211
		C140.995,156.482,140.928,156.235,140.928,154.476 M139.144,153.234c0,0.903-0.065,1.67-0.721,2.165
		c-0.293,0.226-0.63,0.34-0.97,0.34c-1.218,0-1.218-1.173-1.218-1.67c0-1.308,0.611-1.782,1.422-2.415
		c0.879-0.654,0.969-0.722,1.487-1.216V153.234z M152.745,146.489c-0.316-0.429-0.857-1.104-2.144-1.104
		c-1.24,0-2.097,0.811-2.413,1.872c-0.271,0.88-0.271,2.978-0.271,4.037c0,3.294,0.068,5.213,1.894,5.686
		c0.226,0.067,0.475,0.09,0.701,0.09c1.534,0,2.12-0.97,2.369-1.398v1.196h1.691v-15.928h-1.827V146.489z M152.789,151.271
		c-0.044,2.866-0.044,4.378-1.579,4.378c-1.33,0-1.399-1.265-1.444-1.737c-0.044-0.7-0.044-1.286-0.044-1.783
		c0-1.826,0-1.826,0.044-3.045c0.045-0.903,0.091-2.279,1.444-2.279C152.835,146.804,152.835,148.565,152.789,151.271
		 M168.6,151.091l-1.264-1.082c-0.901-0.746-1.398-1.175-1.398-1.94c0-0.836,0.519-1.241,1.196-1.241
		c0.202,0,0.723,0.022,0.991,0.562c0.182,0.339,0.204,0.654,0.204,1.512h1.601c0-0.947,0-2.074-0.653-2.773
		c-0.429-0.451-1.219-0.744-2.143-0.744c-1.332,0-2.888,0.562-2.888,2.888c0,1.397,0.723,2.052,1.556,2.796l1.376,1.219
		c0.836,0.722,1.173,1.083,1.173,1.962c0,0.903-0.587,1.376-1.284,1.376c-0.632,0-1.083-0.337-1.265-0.787
		c-0.136-0.361-0.136-1.129-0.136-1.873h-1.736c0.021,1.284,0.046,2.03,0.316,2.639c0.587,1.399,2.074,1.466,2.684,1.466
		c0.812,0,1.467-0.112,2.053-0.519c0.836-0.564,1.219-1.556,1.219-2.549C170.201,152.422,169.322,151.678,168.6,151.091
		 M182.741,154.476v-5.393c0-1.533,0-2.144-0.7-2.865c-0.654-0.7-1.466-0.834-2.279-0.834c-0.494,0-2.413,0-2.978,1.646
		c-0.18,0.564-0.18,1.782-0.157,2.257h1.647c-0.024-0.249-0.046-0.496-0.046-0.835c0-0.677,0-1.624,1.354-1.624
		c1.376,0,1.376,1.06,1.376,1.984c-0.947,0.88-1.129,0.993-2.842,2.145c-1.174,0.812-1.896,1.397-1.896,3.225
		c0,0.835,0.114,1.918,1.175,2.551c0.383,0.225,0.834,0.337,1.353,0.337c1.535,0,2.075-1.06,2.325-1.556v1.354h2.209
		C182.809,156.482,182.741,156.235,182.741,154.476 M180.958,153.234c0,0.903-0.067,1.67-0.722,2.165
		c-0.293,0.226-0.632,0.34-0.969,0.34c-1.219,0-1.219-1.173-1.219-1.67c0-1.308,0.608-1.782,1.42-2.415
		c0.882-0.654,0.971-0.722,1.489-1.216V153.234z M189.552,146.601c-0.249-0.427-0.747-1.217-2.212-1.217
		c-2.098,0-2.505,1.669-2.595,2.098c-0.179,0.744-0.203,1.534-0.203,3.518c0,2.799,0,3.61,0.317,4.445
		c0.429,1.151,1.466,1.49,2.277,1.49c0.857,0,1.668-0.361,2.279-1.242v1.31c0,1.016,0,2.231-1.579,2.231
		c-1.466,0-1.512-0.99-1.534-1.466h-1.647c0,2.302,1.737,2.888,3.067,2.888c0.972,0,2.798-0.247,3.316-1.849
		c0.204-0.632,0.204-1.082,0.204-2.526v-10.695h-1.691V146.601z M189.37,154.181c-0.157,0.835-0.7,1.378-1.556,1.378
		c-0.971,0-1.332-0.679-1.376-1.558c-0.067-0.79-0.067-2.82-0.067-3.925c0-1.783,0-3.408,1.487-3.408
		c1.039,0,1.49,0.768,1.533,1.851c0.024,0.315,0.068,2.82,0.068,2.866C189.46,152.015,189.46,153.663,189.37,154.181
		 M199.386,151.588c0-2.844,0-3.159-0.092-3.724c-0.361-2.459-2.436-2.459-3.157-2.459c-2.912,0-3.113,2.212-3.113,4.625
		c0,4.535,0.09,4.761,0.293,5.301c0.654,1.647,2.21,1.737,2.888,1.737c0.562,0,2.323,0,2.978-1.781
		c0.204-0.586,0.204-1.15,0.204-1.918h-1.67c0,1.15-0.113,2.255-1.422,2.255c-1.286,0-1.376-1.173-1.422-1.602
		c-0.044-0.404-0.021-1.555-0.021-2.435H199.386z M194.986,147.729c0.111-0.36,0.383-0.947,1.308-0.947
		c1.354,0,1.376,1.331,1.398,1.94v1.398h-2.842C194.851,148.519,194.851,148.158,194.986,147.729 M205.316,145.384
		c-1.378,0-2.076,0.834-2.415,1.24v-1.039h-1.715v11.281h1.805v-7.287c0-1.24,0-2.775,1.512-2.775c1.332,0,1.332,1.083,1.332,2.708
		v7.354h1.826v-7.94C207.661,147.369,207.661,145.384,205.316,145.384 M227.729,151.091l-1.265-1.082
		c-0.9-0.746-1.397-1.175-1.397-1.94c0-0.836,0.519-1.241,1.194-1.241c0.203,0,0.723,0.022,0.993,0.562
		c0.182,0.339,0.204,0.654,0.204,1.512h1.601c0-0.947,0-2.074-0.653-2.773c-0.43-0.451-1.219-0.744-2.145-0.744
		c-1.331,0-2.888,0.562-2.888,2.888c0,1.397,0.722,2.052,1.557,2.796l1.377,1.219c0.836,0.722,1.173,1.083,1.173,1.962
		c0,0.903-0.586,1.376-1.286,1.376c-0.63,0-1.083-0.337-1.264-0.787c-0.135-0.361-0.135-1.129-0.135-1.873h-1.736
		c0.021,1.284,0.046,2.03,0.314,2.639c0.589,1.399,2.076,1.466,2.687,1.466c0.812,0,1.466-0.112,2.052-0.519
		c0.836-0.564,1.219-1.556,1.219-2.549C229.33,152.422,228.45,151.678,227.729,151.091 M240.176,146.489
		c-0.317-0.429-0.857-1.104-2.144-1.104c-1.24,0-2.098,0.811-2.413,1.872c-0.271,0.88-0.271,2.978-0.271,4.037
		c0,3.294,0.068,5.213,1.895,5.686c0.226,0.067,0.475,0.09,0.7,0.09c1.533,0,2.12-0.97,2.369-1.398v1.196h1.691v-15.928h-1.827
		V146.489z M240.22,151.271c-0.044,2.866-0.044,4.378-1.577,4.378c-1.332,0-1.4-1.265-1.444-1.737
		c-0.046-0.7-0.046-1.286-0.046-1.783c0-1.826,0-1.826,0.046-3.045c0.044-0.903,0.09-2.279,1.444-2.279
		C240.266,146.804,240.266,148.565,240.22,151.271 M243.985,156.867h1.782v-11.304h-1.782V156.867z M243.985,143.601h1.782v-2.322
		h-1.782V143.601z M252.559,146.601c-0.25-0.427-0.746-1.217-2.213-1.217c-2.097,0-2.504,1.669-2.594,2.098
		c-0.182,0.744-0.203,1.534-0.203,3.518c0,2.799,0,3.61,0.317,4.445c0.427,1.151,1.465,1.49,2.277,1.49
		c0.857,0,1.669-0.361,2.279-1.242v1.31c0,1.016,0,2.231-1.58,2.231c-1.467,0-1.512-0.99-1.533-1.466h-1.647
		c0,2.302,1.737,2.888,3.067,2.888c0.972,0,2.798-0.247,3.316-1.849c0.203-0.632,0.203-1.082,0.203-2.526v-10.695h-1.69V146.601z
		 M252.377,154.181c-0.157,0.835-0.7,1.378-1.558,1.378c-0.969,0-1.33-0.679-1.376-1.558c-0.067-0.79-0.067-2.82-0.067-3.925
		c0-1.783,0-3.408,1.489-3.408c1.037,0,1.489,0.768,1.533,1.851c0.024,0.315,0.068,2.82,0.068,2.866
		C252.467,152.015,252.467,153.663,252.377,154.181 M256.21,156.867h1.783v-11.304h-1.783V156.867z M256.21,143.601h1.783v-2.322
		h-1.783V143.601z M262.322,154.115v-7.175h1.647v-1.376h-1.647v-3.023h-1.805v3.023h-1.398v1.376h1.352v6.25
		c0,2.074,0,2.301,0.227,2.819c0.227,0.52,0.722,1.06,2.301,1.06c0.475,0,0.746-0.066,0.993-0.134v-1.468
		c-0.18,0.046-0.339,0.092-0.632,0.092C262.389,155.559,262.322,154.837,262.322,154.115 M212.386,154.115v-7.175h1.647v-1.376
		h-1.647v-3.023h-1.805v3.023h-1.397v1.376h1.352v6.25c0,2.074,0,2.301,0.226,2.819c0.228,0.52,0.722,1.06,2.301,1.06
		c0.475,0,0.746-0.066,0.993-0.134v-1.468c-0.179,0.046-0.339,0.092-0.632,0.092C212.454,155.559,212.386,154.837,212.386,154.115
		 M271.345,154.476v-5.393c0-1.533,0-2.144-0.7-2.865c-0.654-0.7-1.466-0.834-2.277-0.834c-0.497,0-2.415,0-2.979,1.646
		c-0.18,0.564-0.18,1.782-0.158,2.257h1.647c-0.021-0.249-0.046-0.496-0.046-0.835c0-0.677,0-1.624,1.354-1.624
		c1.376,0,1.376,1.06,1.376,1.984c-0.947,0.88-1.13,0.993-2.842,2.145c-1.175,0.812-1.896,1.397-1.896,3.225
		c0,0.835,0.113,1.918,1.174,2.551c0.384,0.225,0.834,0.337,1.353,0.337c1.536,0,2.076-1.06,2.325-1.556v1.354h2.21
		C271.412,156.482,271.345,156.235,271.345,154.476 M269.562,153.234c0,0.903-0.068,1.67-0.722,2.165
		c-0.294,0.226-0.633,0.34-0.97,0.34c-1.219,0-1.219-1.173-1.219-1.67c0-1.308,0.608-1.782,1.42-2.415
		c0.882-0.654,0.972-0.722,1.49-1.216V153.234z M273.348,143.601h1.783v-2.322h-1.783V143.601z M273.348,156.867h1.783v-11.304
		h-1.783V156.867z M281.176,151.091l-1.263-1.082c-0.903-0.746-1.4-1.175-1.4-1.94c0-0.836,0.521-1.241,1.197-1.241
		c0.203,0,0.722,0.022,0.993,0.562c0.18,0.339,0.201,0.654,0.201,1.512h1.604c0-0.947,0-2.074-0.653-2.773
		c-0.43-0.451-1.219-0.744-2.145-0.744c-1.332,0-2.888,0.562-2.888,2.888c0,1.397,0.722,2.052,1.556,2.796l1.378,1.219
		c0.834,0.722,1.173,1.083,1.173,1.962c0,0.903-0.586,1.376-1.286,1.376c-0.633,0-1.083-0.337-1.265-0.787
		c-0.134-0.361-0.134-1.129-0.134-1.873h-1.737c0.022,1.284,0.045,2.03,0.315,2.639c0.587,1.399,2.076,1.466,2.685,1.466
		c0.812,0,1.466-0.112,2.054-0.519c0.834-0.564,1.217-1.556,1.217-2.549C282.777,152.422,281.897,151.678,281.176,151.091
		 M288.82,151.654h7.512v-1.76h-7.512V151.654z M304.698,147.708v-2.122h-1.737v11.281h1.851v-5.392c0-2.099,0.134-2.73,0.495-3.271
		c0.632-0.925,1.625-0.925,2.437-0.925v-1.873C305.803,145.292,305.105,146.828,304.698,147.708 M312.659,151.091l-1.262-1.082
		c-0.904-0.746-1.4-1.175-1.4-1.94c0-0.836,0.521-1.241,1.196-1.241c0.204,0,0.722,0.022,0.993,0.562
		c0.18,0.339,0.201,0.654,0.201,1.512h1.604c0-0.947,0-2.074-0.654-2.773c-0.429-0.451-1.218-0.744-2.144-0.744
		c-1.332,0-2.889,0.562-2.889,2.888c0,1.397,0.724,2.052,1.557,2.796l1.378,1.219c0.834,0.722,1.173,1.083,1.173,1.962
		c0,0.903-0.587,1.376-1.286,1.376c-0.633,0-1.083-0.337-1.265-0.787c-0.134-0.361-0.134-1.129-0.134-1.873h-1.736
		c0.021,1.284,0.043,2.03,0.313,2.639c0.588,1.399,2.077,1.466,2.686,1.466c0.812,0,1.466-0.112,2.054-0.519
		c0.834-0.564,1.217-1.556,1.217-2.549C314.261,152.422,313.381,151.678,312.659,151.091"/>
</g>
</svg>
