<?xml version="1.0" standalone="no"?>
<!-- Generator: Adobe Fireworks CS5, Export SVG Extension by Aaron Beall (http://fireworks.abeall.com) . Version: 0.6.1  -->
<!DOCTYPE svg PUBLIC "-//W3C//DTD SVG 1.1//EN" "http://www.w3.org/Graphics/SVG/1.1/DTD/svg11.dtd">
<svg id="Untitled-Page%201" viewBox="0 0 180 120" style="background-color:#ffffff00" version="1.1"
  xmlns="http://www.w3.org/2000/svg" xmlns:xlink="http://www.w3.org/1999/xlink" xml:space="preserve"
  x="0px" y="0px" width="180px" height="120px"
>
  <g id="Layer%201">
    <g>
      <path d="M 128.0271 90 L 125.7845 86.2721 C 130.8904 83.7562 130.7948 80.9601 130.7948 78.9565 L 130.7948 48.062 L 136.521 48.062 L 136.521 78.3973 C 136.521 85.8531 131.9403 88.136 128.0271 90 L 128.0271 90 ZM 155.8461 53.0945 C 154.51 52.582 152.8877 52.0228 151.4081 52.0228 C 149.118 52.0228 147.1616 53.0481 147.1616 55.238 C 147.1616 58.0339 148.9269 59.6183 152.8877 61.1094 C 157.9936 63.1132 161 65.2567 161 70.3356 C 161 75.1353 157.1823 79.8882 150.2155 79.8882 C 145.3002 79.8882 141.1012 77.5584 139.8602 76.8596 L 141.8646 72.5257 C 142.8666 73.0849 143.821 73.5976 144.823 74.017 C 146.4933 74.7627 148.4497 75.5079 149.8338 75.5079 C 153.2219 75.5079 154.7966 73.7841 154.7966 70.9416 C 154.7966 68.1459 152.9353 67.074 150.0244 65.9555 C 144.3458 63.6257 140.9101 61.4822 140.9101 56.0303 C 140.9101 51.4637 145.1571 47.6426 151.0744 47.6426 C 155.56 47.6426 159.4728 49.5065 160.4752 50.1123 L 158.1367 54.1663 C 157.4209 53.7935 156.6575 53.4207 155.8461 53.0945 L 155.8461 53.0945 Z" fill="#ffffff"/>
      <path d="M 35.0339 63.1596 C 39.8057 64.511 42.0962 67.2137 42.0962 70.8019 C 42.0962 76.6267 37.5151 79.6553 28.4009 79.6553 C 26.5875 79.6553 20.3839 79.6089 19 79.6089 L 19 48.062 C 20.1453 48.062 26.9214 47.9688 28.9256 47.9688 C 36.9426 47.9688 41.1418 51.1375 41.1418 56.17 C 41.1418 59.3387 39.0423 61.855 35.0339 63.1596 L 35.0339 63.1596 ZM 28.8781 53.0481 C 28.0667 53.0481 27.2556 53.0481 26.8739 53.0945 L 26.8739 61.2959 L 29.0689 61.2959 C 31.0253 61.2959 32.8864 60.3171 32.8864 57.1952 C 32.8864 54.6324 31.6936 53.0481 28.8781 53.0481 L 28.8781 53.0481 ZM 28.9736 66.0954 C 28.1145 66.0954 27.3033 66.1418 26.8739 66.1887 L 26.8739 74.5762 L 29.212 74.5762 C 31.7889 74.5762 33.7931 73.6908 33.7931 70.6154 C 33.7931 68.2856 32.6001 66.0954 28.9736 66.0954 L 28.9736 66.0954 ZM 58.8908 63.4394 C 58.4614 63.2065 57.6978 62.9267 56.648 62.9267 C 55.3119 62.9267 52.9736 64.3714 52.9736 67.7264 L 52.9736 79.6089 L 45.4338 79.6089 L 45.4338 67.4935 C 45.4338 60.131 42.8094 57.7543 42.8094 57.7543 L 48.8697 55.8906 C 48.8697 55.8906 50.3489 57.3349 51.0172 60.0841 C 52.5919 57.1019 54.7869 55.8906 57.7456 55.8906 C 59.0817 55.8906 60.1314 56.17 60.8473 56.4031 L 58.8908 63.4394 L 58.8908 63.4394 ZM 77.4521 79.9815 C 77.4521 79.9815 75.7341 78.3973 75.1616 75.3219 C 74.1118 78.2108 72.0597 79.8882 68.6238 79.8882 C 62.3727 79.8882 59.414 75.275 59.414 68.2856 C 59.414 61.156 64.2815 55.8906 71.3918 55.8906 C 75.3524 55.8906 80.7924 57.2416 80.8878 57.2416 L 80.8878 68.3788 C 80.8878 75.7413 83.5125 78.1175 83.5125 78.1175 L 77.4521 79.9815 L 77.4521 79.9815 ZM 73.3482 61.6685 C 72.9186 61.4822 71.9643 61.2959 71.3918 61.2959 C 68.2899 61.2959 67.431 64.045 67.431 67.8197 C 67.431 71.2678 67.5741 74.4829 69.8646 74.4829 C 71.8213 74.4829 73.3482 70.988 73.3482 67.074 L 73.3482 61.6685 L 73.3482 61.6685 ZM 102.0249 74.25 L 102.0249 79.6089 L 83.7008 79.6089 L 83.7008 75.5079 L 92.7676 61.7151 C 91.5745 61.7618 90.477 61.8084 89.427 61.8084 L 85.037 61.8084 L 84.0823 56.4031 L 101.5957 56.4031 L 101.5957 60.9231 L 93.0062 74.3432 C 93.8171 74.2968 94.6284 74.25 95.4873 74.25 L 102.0249 74.25 L 102.0249 74.25 ZM 109.9443 79.795 C 106.3656 79.795 103.884 77.8382 103.884 74.5298 L 103.884 56.2166 L 111.4235 56.2166 L 111.4235 72.4329 C 111.4235 73.8305 111.8532 74.25 112.7596 74.25 C 113.2368 74.25 113.8571 74.1103 114.0002 74.0635 L 114.6685 78.6767 C 114.573 78.7699 112.521 79.795 109.9443 79.795 L 109.9443 79.795 ZM 122.3498 79.795 C 117.9597 79.795 116.0508 77.1389 116.0508 73.8305 L 116.0508 47.0834 L 123.5903 45.8252 L 123.5903 72.2464 C 123.5903 73.7373 124.0676 74.25 125.4992 74.25 C 126.1671 74.25 127.1215 74.1103 127.8373 73.9706 L 128.5532 78.5834 C 127.5987 79.0029 125.1175 79.795 122.3498 79.795 L 122.3498 79.795 Z" fill="#ffffff"/>
      <path d="M 111.0956 53.8406 L 107.5313 51.6235 L 103.9109 53.7517 L 104.9689 49.7565 L 101.7773 47.0519 L 105.9951 46.7999 L 107.643 43 L 109.1921 46.8393 L 113.4019 47.1955 L 110.1412 49.8204 L 111.0956 53.8406 L 111.0956 53.8406 Z" fill="#ffffff"/>
    </g>
  </g>
</svg>