<?xml version="1.0" encoding="utf-8"?>
<!-- Generator: Adobe Illustrator 16.0.0, SVG Export Plug-In . SVG Version: 6.00 Build 0)  -->
<!DOCTYPE svg PUBLIC "-//W3C//DTD SVG 1.1//EN" "http://www.w3.org/Graphics/SVG/1.1/DTD/svg11.dtd">
<svg version="1.1" id="Layer_1" xmlns="http://www.w3.org/2000/svg" xmlns:xlink="http://www.w3.org/1999/xlink" x="0px" y="0px"
	 width="180px" height="120px" viewBox="0 0 180 120" enable-background="new 0 0 180 120" xml:space="preserve">
<g>
	<path fill="#FFFFFF" d="M16.063,59.037c0.137,1.142,0.137,2.282,0.137,3.427h0.091c1.325-2.331,4.339-3.975,7.171-3.975
		c5.435,0,8.039,3.061,8.039,8.359v13.566h-3.015V68.583c0-4.75-1.324-7.354-5.8-7.354c-0.639,0-6.486,0.411-6.486,8.222v10.963
		h-3.015V63.742c0-1.142-0.137-3.152-0.228-4.705H16.063z"/>
	<path fill="#FFFFFF" d="M48.857,80.963c-6.623,0-11.327-4.798-11.327-11.237s4.704-11.236,11.327-11.236
		c6.668,0,11.373,4.797,11.373,11.236S55.526,80.963,48.857,80.963 M48.857,61.231c-4.933,0-8.039,3.698-8.039,8.494
		s3.106,8.494,8.039,8.494c4.979,0,8.084-3.698,8.084-8.494S53.836,61.231,48.857,61.231"/>
	<polygon fill="#FFFFFF" points="75.166,80.414 71.786,80.414 63.108,59.036 66.716,59.036 73.521,77.034 73.613,77.034 
		80.418,59.036 83.844,59.036 	"/>
	<path fill="#FFFFFF" d="M101.521,67.306v-0.549c0-3.699-1.782-5.525-5.48-5.525c-2.515,0-4.707,0.865-6.534,2.511l-1.827-2.146
		c1.965-2.01,5.027-3.105,9.045-3.105c4.201,0,7.809,2.374,7.809,7.579v9.548c0,1.645,0.186,3.653,0.368,4.797h-2.924
		c-0.183-1.052-0.275-2.33-0.275-3.473h-0.09c-1.737,2.831-4.111,4.021-7.536,4.021c-3.793,0-7.355-2.103-7.355-6.258
		c0-6.943,8.176-7.399,13.291-7.399H101.521z M99.968,69.771c-3.062,0-9.959,0.229-9.959,4.52c0,2.834,2.604,3.929,5.026,3.929
		c4.384,0,6.485-3.105,6.485-6.896v-1.553H99.968z"/>
	<path fill="#FFFFFF" d="M122.62,61.778h-6.167v12.606c0,3.197,1.234,3.835,3.105,3.835c1.052,0,2.193-0.318,3.106-0.822
		l0.137,2.786c-1.094,0.505-2.556,0.779-4.065,0.779c-2.283,0-5.298-1.007-5.298-5.71V61.778h-4.521v-2.741h4.521v-6.029h3.015
		v6.029h6.167V61.778z"/>
	<path fill="#FFFFFF" d="M128.877,70.548c0.365,4.293,3.608,7.672,7.856,7.672c3.195,0,5.661-1.78,6.85-3.698l2.329,1.918
		c-2.511,3.197-5.662,4.523-9.179,4.523c-6.349,0-11.056-4.798-11.056-11.237c0-6.441,4.707-11.236,10.781-11.236
		c6.483,0.045,10.229,4.842,10.229,10.688v1.371H128.877z M143.401,68.082c0-4.066-2.604-6.853-6.942-6.853
		c-3.929,0-7.49,3.335-7.49,6.853H143.401z"/>
	<path fill="#FFFFFF" d="M167.791,64.061c-1.005-1.553-2.969-2.831-5.341-2.831c-4.98-0.091-8.041,3.609-8.041,8.496
		s3.061,8.587,8.041,8.494c2.372,0,4.336-1.278,5.341-2.831l2.466,1.873c-2.097,2.466-4.932,3.654-7.807,3.701
		c-6.989,0.088-11.329-4.798-11.329-11.237c0-6.441,4.34-11.328,11.329-11.236c2.875,0.045,5.71,1.233,7.807,3.699L167.791,64.061z"
		/>
	<path fill="#FFFFFF" d="M118.715,46.708c0.135,1.589,1.337,2.842,2.91,2.842c1.184,0,2.097-0.66,2.538-1.371l0.862,0.71
		c-0.931,1.184-2.098,1.674-3.4,1.674c-2.354,0-4.095-1.776-4.095-4.162c0-2.385,1.741-4.162,3.992-4.162
		c2.401,0.018,3.79,1.794,3.79,3.959v0.507H118.715z M124.095,45.794c0-1.506-0.962-2.537-2.572-2.537
		c-1.455,0-2.771,1.235-2.771,2.537H124.095z"/>
	<path fill="#FFFFFF" d="M135.245,50.362h-1.117v-1.319h-0.036c-0.728,1.065-2.03,1.522-3.076,1.522
		c-2.474,0-4.212-1.776-4.212-4.162s1.738-4.161,4.212-4.161c1.046,0,2.349,0.457,3.076,1.522h0.036v-6.192h1.117V50.362z
		 M131.016,49.551c1.825,0,3.161-1.371,3.161-3.147s-1.336-3.146-3.161-3.146c-1.847,0-2.997,1.37-2.997,3.146
		S129.169,49.551,131.016,49.551"/>
	<path fill="#FFFFFF" d="M138.491,40.212c-0.407,0-0.812-0.338-0.812-0.812c0-0.475,0.405-0.812,0.812-0.812
		c0.406,0,0.812,0.337,0.812,0.812C139.304,39.874,138.897,40.212,138.491,40.212 M139.049,50.362h-1.114v-7.917h1.114V50.362z"/>
	<path fill="#FFFFFF" d="M145.833,43.46h-2.285v4.669c0,1.184,0.46,1.421,1.151,1.421c0.391,0,0.813-0.119,1.152-0.305l0.047,1.031
		c-0.404,0.187-0.946,0.289-1.505,0.289c-0.846,0-1.963-0.372-1.963-2.115v-4.99h-1.673v-1.015h1.673v-2.233h1.117v2.233h2.285
		V43.46z"/>
	<path fill="#FFFFFF" d="M151.142,50.565c-2.45,0-4.192-1.776-4.192-4.162c0-2.385,1.742-4.162,4.192-4.162
		c2.473,0,4.213,1.777,4.213,4.162C155.354,48.789,153.614,50.565,151.142,50.565 M151.142,43.257c-1.825,0-2.976,1.37-2.976,3.146
		c0,1.777,1.15,3.147,2.976,3.147c1.846,0,2.997-1.371,2.997-3.147C154.139,44.627,152.987,43.257,151.142,43.257"/>
	<path fill="#FFFFFF" d="M157.504,44.915c0-0.71-0.034-1.32-0.066-2.469h1.097v1.472h0.037c0.319-0.846,1.149-1.675,2.537-1.675
		c0.319,0,0.591,0.034,0.828,0.102l-0.222,1.1c-0.136-0.05-0.335-0.084-0.642-0.084c-1.692,0-2.454,1.472-2.454,2.537v4.465h-1.115
		V44.915z"/>
	<path fill="#FFFFFF" d="M168.077,45.507v-0.203c0-1.371-0.662-2.047-2.029-2.047c-0.932,0-1.744,0.321-2.421,0.931l-0.675-0.795
		c0.726-0.744,1.858-1.151,3.347-1.151c1.558,0,2.893,0.88,2.893,2.809v3.536c0,0.609,0.067,1.354,0.136,1.776h-1.083
		c-0.067-0.389-0.1-0.863-0.1-1.286h-0.035c-0.643,1.049-1.521,1.489-2.79,1.489c-1.403,0-2.724-0.778-2.724-2.317
		c0-2.572,3.029-2.741,4.923-2.741H168.077z M167.501,46.42c-1.134,0-3.688,0.084-3.688,1.675c0,1.048,0.966,1.455,1.86,1.455
		c1.625,0,2.403-1.151,2.403-2.555V46.42H167.501z"/>
</g>
</svg>
