<?xml version="1.0" encoding="utf-8"?>
<!-- Generator: Adobe Illustrator 16.0.0, SVG Export Plug-In . SVG Version: 6.00 Build 0)  -->
<!DOCTYPE svg PUBLIC "-//W3C//DTD SVG 1.1//EN" "http://www.w3.org/Graphics/SVG/1.1/DTD/svg11.dtd">
<svg version="1.1" id="Layer_1" xmlns="http://www.w3.org/2000/svg" xmlns:xlink="http://www.w3.org/1999/xlink" x="0px" y="0px"
	 width="180px" height="120px" viewBox="0 0 180 120" enable-background="new 0 0 180 120" xml:space="preserve">
<g>
	<path fill="#FFFFFF" d="M180,50.615c0,0.61-0.501,1.111-1.111,1.111h-32.212c-0.612,0-1.111-0.501-1.111-1.111v-6.51
		c0-0.612,0.499-1.113,1.111-1.113h32.212c0.61,0,1.111,0.501,1.111,1.113V50.615z"/>
	<path fill="#FFFFFF" d="M163.219,69.662c-0.612,0-1.112-0.5-1.112-1.111V52.838c0-0.611,0.5-1.112,1.112-1.112h6.722
		c0.612,0,1.113,0.501,1.113,1.112v15.712c0,0.612-0.501,1.111-1.113,1.111H163.219z"/>
	<path fill="#FFFFFF" d="M163.219,51.726c-0.612,0-1.112-0.5-1.112-1.111v-6.51c0-0.612,0.5-1.113,1.112-1.113h6.722
		c0.612,0,1.113,0.501,1.113,1.113v6.51c0,0.611-0.501,1.111-1.113,1.111H163.219z"/>
	<g>
		<path fill="#FFFFFF" d="M180,59.604c0,0.612-0.501,1.112-1.111,1.112h-24.616c-0.612,0-1.112-0.5-1.112-1.112v-6.766
			c0-0.611,0.5-1.112,1.112-1.112h24.616c0.61,0,1.111,0.501,1.111,1.112V59.604z"/>
	</g>
	<g>
		<path fill="#FFFFFF" d="M172.166,60.716c-0.612,0-1.112-0.543-1.112-1.207V35.467c0-0.665,0.5-1.209,1.112-1.209h6.723
			c0.61,0,1.111,0.544,1.111,1.209v24.042c0,0.664-0.501,1.207-1.111,1.207H172.166z"/>
	</g>
	<g>
		<path fill="#FFFFFF" d="M7.284,63.78h3.166v2.892H7.284v7.792c0,1.461,0.366,1.827,1.827,1.827c0.456,0,0.882-0.03,1.339-0.122
			v3.379C9.719,79.67,8.775,79.7,7.923,79.7c-2.649,0-4.962-0.609-4.962-3.744v-9.284H0.343V63.78h2.618v-4.718h4.323V63.78z"/>
		<path fill="#FFFFFF" d="M12.335,68.62c0.244-4.048,3.866-5.266,7.397-5.266c3.135,0,6.91,0.7,6.91,4.475v8.188
			c0,1.431,0.152,2.861,0.548,3.5h-4.383c-0.152-0.487-0.274-1.004-0.304-1.522c-1.37,1.431-3.379,1.948-5.297,1.948
			c-2.983,0-5.357-1.491-5.357-4.718c0-3.562,2.678-4.414,5.357-4.779c2.648-0.395,5.113-0.304,5.113-2.07
			c0-1.856-1.278-2.13-2.799-2.13c-1.644,0-2.71,0.669-2.862,2.374H12.335z M22.319,71.817c-0.73,0.639-2.252,0.669-3.592,0.913
			c-1.339,0.274-2.556,0.73-2.556,2.313c0,1.613,1.248,2.009,2.648,2.009c3.378,0,3.5-2.679,3.5-3.623V71.817z"/>
		<path fill="#FFFFFF" d="M29.99,63.78h4.109v2.922h0.061c0.792-1.979,2.923-3.349,5.022-3.349c0.305,0,0.67,0.061,0.944,0.152
			v4.019c-0.396-0.091-1.035-0.152-1.552-0.152c-3.167,0-4.262,2.283-4.262,5.052v7.093H29.99V63.78z"/>
		<path fill="#FFFFFF" d="M56.958,78.513c0,2.587-0.914,6.97-8.158,6.97c-3.104,0-6.727-1.461-6.94-5.053h4.292
			c0.396,1.613,1.704,2.162,3.227,2.162c2.404,0,3.5-1.644,3.469-3.896v-2.07h-0.061c-0.944,1.644-2.831,2.435-4.718,2.435
			c-4.719,0-6.727-3.592-6.727-7.914c0-4.079,2.343-7.793,6.757-7.793c2.07,0,3.652,0.7,4.688,2.527h0.061V63.78h4.11V78.513z
			 M52.848,71.451c0-2.557-0.882-4.84-3.683-4.84c-2.436,0-3.5,2.13-3.5,4.475c0,2.252,0.853,4.717,3.5,4.717
			C51.63,75.803,52.848,73.704,52.848,71.451z"/>
		<path fill="#FFFFFF" d="M63.988,72.699c0.122,2.739,1.461,3.988,3.866,3.988c1.735,0,3.135-1.066,3.409-2.04h3.804
			c-1.217,3.714-3.804,5.296-7.365,5.296c-4.962,0-8.036-3.409-8.036-8.279c0-4.718,3.257-8.31,8.036-8.31
			c5.357,0,7.944,4.505,7.64,9.345H63.988z M71.02,69.959c-0.396-2.191-1.34-3.348-3.44-3.348c-2.74,0-3.531,2.13-3.592,3.348H71.02
			z"/>
		<path fill="#FFFFFF" d="M83.376,63.78h3.166v2.892h-3.166v7.792c0,1.461,0.365,1.827,1.827,1.827c0.457,0,0.883-0.03,1.339-0.122
			v3.379c-0.73,0.122-1.674,0.152-2.526,0.152c-2.649,0-4.962-0.609-4.962-3.744v-9.284h-2.618V63.78h2.618v-4.718h4.322V63.78z"/>
		<path fill="#FFFFFF" d="M94.09,63.78h3.166v2.892H94.09v7.792c0,1.461,0.365,1.827,1.826,1.827c0.457,0,0.883-0.03,1.339-0.122
			v3.379c-0.73,0.122-1.674,0.152-2.527,0.152c-2.648,0-4.961-0.609-4.961-3.744v-9.284H87.15V63.78h2.618v-4.718h4.322V63.78z"/>
		<path fill="#FFFFFF" d="M99.325,63.78h4.109v2.922h0.061c0.792-1.979,2.922-3.349,5.022-3.349c0.305,0,0.67,0.061,0.944,0.152
			v4.019c-0.396-0.091-1.035-0.152-1.552-0.152c-3.166,0-4.262,2.283-4.262,5.052v7.093h-4.322V63.78z"/>
		<path fill="#FFFFFF" d="M125.928,79.518h-4.109v-2.192h-0.091c-1.096,1.766-2.983,2.618-4.81,2.618
			c-4.597,0-5.753-2.587-5.753-6.483v-9.68h4.323v8.888c0,2.587,0.761,3.866,2.77,3.866c2.344,0,3.349-1.309,3.349-4.505V63.78
			h4.322V79.518z"/>
		<path fill="#FFFFFF" d="M132.562,74.404c0.031,1.887,1.614,2.648,3.318,2.648c1.248,0,2.831-0.487,2.831-2.009
			c0-1.309-1.796-1.765-4.9-2.435c-2.497-0.548-4.992-1.431-4.992-4.2c0-4.019,3.47-5.054,6.849-5.054
			c3.439,0,6.605,1.157,6.94,5.022h-4.109c-0.122-1.674-1.4-2.13-2.953-2.13c-0.974,0-2.405,0.182-2.405,1.461
			c0,1.552,2.436,1.765,4.901,2.344c2.526,0.579,4.992,1.491,4.992,4.413c0,4.14-3.592,5.479-7.183,5.479
			c-3.653,0-7.215-1.369-7.397-5.54H132.562z"/>
		<path fill="#FFFFFF" d="M151.038,63.78h3.166v2.892h-3.166v7.792c0,1.461,0.366,1.827,1.826,1.827c0.457,0,0.883-0.03,1.34-0.122
			v3.379c-0.73,0.122-1.674,0.152-2.526,0.152c-2.648,0-4.961-0.609-4.961-3.744v-9.284h-2.618V63.78h2.618v-4.718h4.321V63.78z"/>
	</g>
	<g>
		<path fill="#FFFFFF" d="M71.014,84.986h0.625v-1.125h0.827v1.125h0.748v0.617h-0.748v2.003c0,0.341,0.029,0.515,0.399,0.515
			c0.117,0,0.233,0,0.349-0.029v0.639c-0.182,0.015-0.356,0.042-0.537,0.042c-0.864,0-1.023-0.333-1.038-0.957v-2.213h-0.625V84.986
			z"/>
		<path fill="#FFFFFF" d="M73.808,84.986h0.777v0.726h0.015c0.094-0.399,0.588-0.827,1.096-0.827c0.188,0,0.24,0.015,0.312,0.022
			v0.798c-0.116-0.015-0.239-0.037-0.356-0.037c-0.565,0-1.015,0.458-1.015,1.285v1.785h-0.828V84.986z"/>
		<path fill="#FFFFFF" d="M76.877,87.076c0,0.588,0.319,1.11,1.009,1.11c0.479,0,0.77-0.21,0.915-0.624h0.784
			c-0.182,0.82-0.878,1.276-1.698,1.276c-1.175,0-1.835-0.819-1.835-1.973c0-1.067,0.696-1.981,1.813-1.981
			c1.183,0,1.908,1.066,1.771,2.191H76.877z M78.807,86.532c-0.029-0.522-0.385-0.994-0.943-0.994c-0.573,0-0.964,0.436-0.987,0.994
			H78.807z"/>
		<path fill="#FFFFFF" d="M80.288,83.557h0.827v0.783h-0.827V83.557z M80.288,84.986h0.827v3.752h-0.827V84.986z"/>
		<path fill="#FFFFFF" d="M82.014,84.986h0.784v0.552l0.015,0.015c0.247-0.414,0.675-0.668,1.168-0.668
			c0.813,0,1.328,0.436,1.328,1.278v2.576h-0.827V86.38c-0.015-0.588-0.247-0.842-0.733-0.842c-0.552,0-0.907,0.436-0.907,0.987
			v2.213h-0.827V84.986z"/>
		<path fill="#FFFFFF" d="M89.321,87.904c0,0.203,0.043,0.283,0.196,0.283c0.05,0,0.116,0,0.203-0.014v0.574
			c-0.124,0.042-0.385,0.093-0.523,0.093c-0.334,0-0.573-0.116-0.639-0.457c-0.326,0.319-0.855,0.457-1.299,0.457
			c-0.675,0-1.284-0.362-1.284-1.095c0-0.937,0.748-1.088,1.444-1.168c0.595-0.108,1.124-0.043,1.124-0.53
			c0-0.428-0.442-0.508-0.776-0.508c-0.464,0-0.791,0.188-0.827,0.595h-0.828c0.059-0.965,0.878-1.248,1.706-1.248
			c0.733,0,1.502,0.298,1.502,1.089V87.904z M88.494,86.858c-0.254,0.167-0.653,0.16-1.016,0.225
			c-0.355,0.059-0.675,0.189-0.675,0.625c0,0.37,0.471,0.479,0.762,0.479c0.363,0,0.929-0.188,0.929-0.71V86.858z"/>
		<path fill="#FFFFFF" d="M90.212,84.986h0.784v0.522h0.021c0.248-0.37,0.56-0.624,1.154-0.624c0.458,0,0.886,0.196,1.052,0.624
			c0.276-0.384,0.631-0.624,1.176-0.624c0.792,0,1.256,0.349,1.256,1.263v2.59h-0.828v-2.191c0-0.596-0.037-1.009-0.683-1.009
			c-0.558,0-0.798,0.37-0.798,1.001v2.199h-0.827v-2.409c0-0.515-0.16-0.791-0.661-0.791c-0.428,0-0.819,0.348-0.819,0.973v2.228
			h-0.828V84.986z"/>
		<path fill="#FFFFFF" d="M97.171,87.076c0,0.588,0.319,1.11,1.009,1.11c0.478,0,0.769-0.21,0.915-0.624h0.783
			c-0.181,0.82-0.878,1.276-1.698,1.276c-1.176,0-1.836-0.819-1.836-1.973c0-1.067,0.697-1.981,1.814-1.981
			c1.183,0,1.908,1.066,1.77,2.191H97.171z M99.102,86.532c-0.029-0.522-0.385-0.994-0.943-0.994c-0.574,0-0.965,0.436-0.987,0.994
			H99.102z"/>
		<path fill="#FFFFFF" d="M100.56,84.986h0.783v0.552l0.015,0.015c0.246-0.414,0.675-0.668,1.167-0.668
			c0.813,0,1.329,0.436,1.329,1.278v2.576h-0.827V86.38c-0.014-0.588-0.247-0.842-0.733-0.842c-0.551,0-0.908,0.436-0.908,0.987
			v2.213h-0.826V84.986z"/>
		<path fill="#FFFFFF" d="M104.347,84.986h0.625v-1.125h0.827v1.125h0.748v0.617h-0.748v2.003c0,0.341,0.029,0.515,0.399,0.515
			c0.115,0,0.232,0,0.348-0.029v0.639c-0.182,0.015-0.356,0.042-0.537,0.042c-0.864,0-1.023-0.333-1.038-0.957v-2.213h-0.625V84.986
			z"/>
		<path fill="#FFFFFF" d="M106.966,86.858c0-1.146,0.689-1.974,1.895-1.974c1.204,0,1.894,0.827,1.894,1.974
			c0,1.154-0.689,1.981-1.894,1.981C107.656,88.839,106.966,88.012,106.966,86.858z M109.927,86.858c0-0.646-0.327-1.32-1.066-1.32
			c-0.741,0-1.067,0.675-1.067,1.32c0,0.653,0.326,1.328,1.067,1.328C109.601,88.187,109.927,87.512,109.927,86.858z"/>
		<path fill="#FFFFFF" d="M114.106,87.076c0,0.588,0.319,1.11,1.008,1.11c0.479,0,0.77-0.21,0.915-0.624h0.784
			c-0.182,0.82-0.878,1.276-1.699,1.276c-1.175,0-1.835-0.819-1.835-1.973c0-1.067,0.696-1.981,1.813-1.981
			c1.183,0,1.909,1.066,1.771,2.191H114.106z M116.036,86.532c-0.029-0.522-0.384-0.994-0.943-0.994
			c-0.573,0-0.965,0.436-0.987,0.994H116.036z"/>
		<path fill="#FFFFFF" d="M119.134,84.986h0.625v-1.125h0.827v1.125h0.748v0.617h-0.748v2.003c0,0.341,0.028,0.515,0.399,0.515
			c0.116,0,0.232,0,0.348-0.029v0.639c-0.181,0.015-0.355,0.042-0.537,0.042c-0.864,0-1.023-0.333-1.037-0.957v-2.213h-0.625V84.986
			z"/>
		<path fill="#FFFFFF" d="M122.574,87.076c0,0.588,0.319,1.11,1.009,1.11c0.478,0,0.769-0.21,0.914-0.624h0.784
			c-0.182,0.82-0.879,1.276-1.698,1.276c-1.176,0-1.836-0.819-1.836-1.973c0-1.067,0.697-1.981,1.814-1.981
			c1.183,0,1.909,1.066,1.77,2.191H122.574z M124.504,86.532c-0.028-0.522-0.385-0.994-0.943-0.994
			c-0.573,0-0.965,0.436-0.987,0.994H124.504z"/>
		<path fill="#FFFFFF" d="M128.495,86.242c-0.066-0.457-0.399-0.704-0.856-0.704c-0.428,0-1.03,0.225-1.03,1.364
			c0,0.624,0.275,1.284,0.994,1.284c0.479,0,0.813-0.319,0.893-0.856h0.827c-0.152,0.972-0.754,1.509-1.719,1.509
			c-1.176,0-1.821-0.834-1.821-1.937c0-1.132,0.617-2.018,1.85-2.018c0.871,0,1.612,0.436,1.691,1.357H128.495z"/>
		<path fill="#FFFFFF" d="M129.996,84.986h0.784v0.552l0.015,0.015c0.247-0.414,0.675-0.668,1.168-0.668
			c0.812,0,1.328,0.436,1.328,1.278v2.576h-0.828V86.38c-0.014-0.588-0.246-0.842-0.732-0.842c-0.551,0-0.907,0.436-0.907,0.987
			v2.213h-0.827V84.986z"/>
		<path fill="#FFFFFF" d="M133.987,86.858c0-1.146,0.688-1.974,1.894-1.974c1.204,0,1.893,0.827,1.893,1.974
			c0,1.154-0.689,1.981-1.893,1.981C134.676,88.839,133.987,88.012,133.987,86.858z M136.947,86.858c0-0.646-0.327-1.32-1.066-1.32
			c-0.741,0-1.067,0.675-1.067,1.32c0,0.653,0.326,1.328,1.067,1.328C136.621,88.187,136.947,87.512,136.947,86.858z"/>
		<path fill="#FFFFFF" d="M138.485,83.557h0.827v5.181h-0.827V83.557z"/>
		<path fill="#FFFFFF" d="M140.038,86.858c0-1.146,0.689-1.974,1.893-1.974c1.206,0,1.894,0.827,1.894,1.974
			c0,1.154-0.688,1.981-1.894,1.981C140.727,88.839,140.038,88.012,140.038,86.858z M142.998,86.858c0-0.646-0.326-1.32-1.067-1.32
			c-0.739,0-1.066,0.675-1.066,1.32c0,0.653,0.327,1.328,1.066,1.328C142.672,88.187,142.998,87.512,142.998,86.858z"/>
		<path fill="#FFFFFF" d="M147.982,88.542c0,1.124-0.66,1.684-1.843,1.684c-0.754,0-1.603-0.291-1.675-1.169h0.827
			c0.102,0.472,0.479,0.552,0.9,0.552c0.667,0,0.965-0.342,0.965-0.958v-0.573h-0.015c-0.232,0.414-0.66,0.661-1.125,0.661
			c-1.191,0-1.684-0.9-1.684-1.974c0-1.009,0.631-1.88,1.698-1.88c0.471,0,0.898,0.196,1.11,0.617h0.015v-0.516h0.826V88.542z
			 M147.156,86.779c0-0.646-0.291-1.241-1.009-1.241c-0.733,0-0.987,0.682-0.987,1.306c0,0.618,0.298,1.241,0.987,1.241
			C146.88,88.085,147.156,87.418,147.156,86.779z"/>
		<path fill="#FFFFFF" d="M148.839,83.557h0.827v0.783h-0.827V83.557z M148.839,84.986h0.827v3.752h-0.827V84.986z"/>
		<path fill="#FFFFFF" d="M153.708,87.904c0,0.203,0.044,0.283,0.195,0.283c0.052,0,0.117,0,0.204-0.014v0.574
			c-0.124,0.042-0.385,0.093-0.523,0.093c-0.333,0-0.573-0.116-0.639-0.457c-0.326,0.319-0.856,0.457-1.299,0.457
			c-0.674,0-1.285-0.362-1.285-1.095c0-0.937,0.748-1.088,1.444-1.168c0.596-0.108,1.125-0.043,1.125-0.53
			c0-0.428-0.442-0.508-0.776-0.508c-0.464,0-0.791,0.188-0.828,0.595H150.5c0.058-0.965,0.878-1.248,1.706-1.248
			c0.732,0,1.502,0.298,1.502,1.089V87.904z M152.881,86.858c-0.254,0.167-0.653,0.16-1.016,0.225
			c-0.356,0.059-0.674,0.189-0.674,0.625c0,0.37,0.471,0.479,0.762,0.479c0.363,0,0.929-0.188,0.929-0.71V86.858z"/>
	</g>
	<path fill="#FFFFFF" d="M172.166,60.694c-0.613,0-1.112-0.513-1.112-1.142v-6.684c0-0.629,0.5-1.143,1.112-1.143h6.721
		c0.612,0,1.113,0.514,1.113,1.143v6.684c0,0.628-0.501,1.142-1.113,1.142H172.166z"/>
</g>
</svg>
