<?xml version="1.0" encoding="utf-8"?>
<!-- Generator: Adobe Illustrator 16.0.0, SVG Export Plug-In . SVG Version: 6.00 Build 0)  -->
<!DOCTYPE svg PUBLIC "-//W3C//DTD SVG 1.1//EN" "http://www.w3.org/Graphics/SVG/1.1/DTD/svg11.dtd">
<svg version="1.1" id="Layer_1" xmlns="http://www.w3.org/2000/svg" xmlns:xlink="http://www.w3.org/1999/xlink" x="0px" y="0px"
	 width="180px" height="120px" viewBox="0 0 180 120" enable-background="new 0 0 180 120" xml:space="preserve">
<g>
	<path fill="#FFFFFF" d="M30.897,106.689V99.53c0-1.886,0.504-3.272,1.513-4.157c1.008-0.887,2.324-1.328,3.949-1.328
		c1.673,0,3.021,0.414,4.046,1.241c1.025,0.829,1.538,1.898,1.538,3.211c0,0.525-0.098,0.882-0.295,1.07
		c-0.197,0.188-0.532,0.284-1.009,0.284c-0.852,0-1.287-0.288-1.304-0.862c-0.099-1.755-1.058-2.633-2.877-2.633
		c-1.969,0-2.954,1.059-2.954,3.174v7.159c0,2.115,1,3.174,3.003,3.174c0.591,0,1.082-0.086,1.476-0.258
		c0.394-0.172,0.675-0.423,0.848-0.752c0.173-0.327,0.292-0.615,0.357-0.86c0.066-0.246,0.115-0.549,0.148-0.909
		c0.049-0.575,0.476-0.861,1.279-0.861c0.476,0,0.816,0.093,1.021,0.281c0.205,0.189,0.308,0.546,0.308,1.07
		c0,1.363-0.516,2.47-1.55,3.323c-1.034,0.852-2.386,1.279-4.059,1.279c-1.624,0-2.936-0.443-3.936-1.329
		C31.397,109.961,30.897,108.576,30.897,106.689z"/>
	<path fill="#FFFFFF" d="M44.206,106.689V99.53c0-1.886,0.5-3.272,1.501-4.157c1-0.887,2.337-1.328,4.009-1.328
		c1.674,0,3.014,0.441,4.024,1.328c1.008,0.885,1.513,2.271,1.513,4.157v7.159c0,1.887-0.504,3.271-1.513,4.158
		c-1.01,0.886-2.35,1.329-4.024,1.329c-1.671,0-3.009-0.443-4.009-1.329C44.706,109.961,44.206,108.576,44.206,106.689z
		 M46.813,106.689c0,2.115,0.967,3.174,2.902,3.174c0.936,0,1.657-0.263,2.166-0.787c0.508-0.524,0.762-1.321,0.762-2.387V99.53
		c0-1.066-0.254-1.861-0.762-2.387c-0.509-0.524-1.23-0.787-2.166-0.787c-1.935,0-2.902,1.059-2.902,3.174V106.689z"/>
	<path fill="#FFFFFF" d="M58.302,111.191V94.881c0-0.23,0.11-0.427,0.333-0.591c0.222-0.164,0.496-0.245,0.824-0.245h4.354
		c1.673,0,3.014,0.441,4.021,1.328c1.009,0.885,1.514,2.271,1.514,4.157v7.012c0,1.887-0.504,3.272-1.514,4.157
		c-1.008,0.886-2.348,1.329-4.021,1.329h-4.354c-0.328,0-0.603-0.083-0.824-0.246C58.413,111.619,58.302,111.422,58.302,111.191z
		 M60.91,109.715h2.903c1.951,0,2.928-1.058,2.928-3.173V99.53c0-2.115-0.978-3.174-2.928-3.174H60.91V109.715z"/>
	<path fill="#FFFFFF" d="M72.399,111.167V94.905c0-0.263,0.115-0.472,0.345-0.628c0.229-0.155,0.499-0.232,0.811-0.232h8.759
		c0.279,0,0.493,0.114,0.64,0.345c0.148,0.228,0.222,0.491,0.222,0.786c0,0.328-0.079,0.608-0.234,0.836
		c-0.157,0.23-0.366,0.345-0.628,0.345h-7.307v5.633h3.789c0.262,0,0.471,0.104,0.627,0.309c0.156,0.205,0.233,0.456,0.233,0.751
		c0,0.262-0.074,0.496-0.221,0.701c-0.148,0.206-0.361,0.308-0.639,0.308h-3.789v5.657h7.307c0.262,0,0.471,0.116,0.628,0.345
		c0.155,0.23,0.234,0.509,0.234,0.838c0,0.294-0.074,0.557-0.222,0.787c-0.147,0.229-0.361,0.344-0.64,0.344h-8.759
		c-0.312,0-0.582-0.078-0.811-0.233C72.514,111.639,72.399,111.43,72.399,111.167z"/>
	<path fill="#FFFFFF" d="M90.187,111.167V95.349c0-0.443,0.123-0.771,0.368-0.983c0.246-0.215,0.558-0.32,0.936-0.32
		c0.476,0,0.864,0.102,1.169,0.308c0.303,0.204,0.603,0.594,0.896,1.169L97,102.039l3.494-6.518c0.295-0.575,0.59-0.965,0.886-1.169
		c0.295-0.206,0.681-0.308,1.156-0.308c0.378,0,0.688,0.105,0.935,0.32c0.246,0.212,0.37,0.54,0.37,0.983v15.818
		c0,0.263-0.128,0.472-0.383,0.628c-0.254,0.155-0.562,0.233-0.922,0.233c-0.345,0-0.647-0.078-0.91-0.233
		c-0.263-0.156-0.394-0.365-0.394-0.628V99.358l-3.297,6.102c-0.246,0.394-0.566,0.591-0.96,0.591c-0.395,0-0.688-0.197-0.886-0.591
		l-3.296-6.249v11.956c0,0.263-0.127,0.472-0.381,0.628c-0.255,0.155-0.562,0.233-0.923,0.233c-0.346,0-0.648-0.078-0.911-0.233
		C90.317,111.639,90.187,111.43,90.187,111.167z"/>
	<path fill="#FFFFFF" d="M107.088,111.167V94.881c0-0.278,0.126-0.488,0.381-0.626c0.255-0.142,0.562-0.21,0.922-0.21
		c0.361,0,0.669,0.068,0.923,0.21c0.255,0.138,0.382,0.348,0.382,0.626v16.286c0,0.263-0.127,0.472-0.382,0.628
		c-0.254,0.155-0.562,0.233-0.923,0.233c-0.344,0-0.647-0.078-0.909-0.233C107.219,111.639,107.088,111.43,107.088,111.167z"/>
	<path fill="#FFFFFF" d="M112.942,111.167V94.905c0-0.574,0.435-0.86,1.304-0.86c0.459,0,0.828,0.102,1.106,0.308
		c0.28,0.204,0.566,0.594,0.861,1.169l5.461,10.652V94.881c0-0.278,0.128-0.488,0.383-0.626c0.253-0.142,0.561-0.21,0.923-0.21
		c0.359,0,0.667,0.068,0.922,0.21c0.254,0.138,0.381,0.348,0.381,0.626v16.286c0,0.263-0.127,0.472-0.381,0.628
		c-0.255,0.155-0.562,0.233-0.922,0.233c-0.69,0-1.207-0.319-1.551-0.959l-5.88-11.194v11.292c0,0.263-0.127,0.472-0.382,0.628
		c-0.253,0.155-0.562,0.233-0.922,0.233c-0.345,0-0.648-0.078-0.91-0.233C113.073,111.639,112.942,111.43,112.942,111.167z"/>
	<path fill="#FFFFFF" d="M127.53,111.167V94.905c0-0.263,0.115-0.472,0.345-0.628c0.229-0.155,0.499-0.232,0.812-0.232h8.758
		c0.278,0,0.491,0.114,0.639,0.345c0.148,0.228,0.223,0.491,0.223,0.786c0,0.328-0.078,0.608-0.234,0.836
		c-0.155,0.23-0.364,0.345-0.627,0.345h-7.308v5.633h3.789c0.264,0,0.472,0.104,0.628,0.309c0.155,0.205,0.234,0.456,0.234,0.751
		c0,0.262-0.075,0.496-0.222,0.701c-0.148,0.206-0.36,0.308-0.641,0.308h-3.789v5.657h7.308c0.263,0,0.472,0.116,0.627,0.345
		c0.156,0.23,0.234,0.509,0.234,0.838c0,0.294-0.074,0.557-0.223,0.787c-0.147,0.229-0.36,0.344-0.639,0.344h-8.758
		c-0.313,0-0.583-0.078-0.812-0.233C127.646,111.639,127.53,111.43,127.53,111.167z"/>
	<path fill="#FFFFFF" d="M140.398,111.167V94.881c0-0.23,0.08-0.427,0.245-0.591c0.163-0.164,0.37-0.245,0.614-0.245h4.675
		c3.772,0,5.658,1.671,5.658,5.02c0,1.389-0.312,2.477-0.936,3.269s-1.467,1.318-2.534,1.58l3.445,6.486
		c0.065,0.115,0.099,0.238,0.099,0.37c0,0.328-0.169,0.632-0.505,0.913c-0.336,0.279-0.693,0.42-1.069,0.42
		c-0.427,0-0.771-0.255-1.034-0.766l-3.592-7.059h-2.484v6.886c0,0.264-0.128,0.474-0.383,0.629
		c-0.253,0.156-0.559,0.235-0.921,0.235c-0.344,0-0.645-0.078-0.898-0.233C140.524,111.639,140.398,111.43,140.398,111.167z
		 M142.98,102.211h2.952c2.034,0,3.05-0.976,3.05-2.926c0-1.953-1.016-2.929-3.05-2.929h-2.952V102.211z"/>
</g>
<g>
	<defs>
		<polygon id="SVGID_1_" points="41.892,81.554 30.921,74.775 72.997,6.657 115.044,74.759 104.067,81.526 72.997,31.209 		"/>
	</defs>
	<use xlink:href="#SVGID_1_"  overflow="visible" fill="#FFFFFF"/>
	<clipPath id="SVGID_2_">
		<use xlink:href="#SVGID_1_"  overflow="visible"/>
	</clipPath>
</g>
<g>
	<defs>
		<polygon id="SVGID_3_" points="95.816,28.961 109.595,6.657 151.641,74.759 140.661,81.526 109.595,31.209 103.432,41.178 		"/>
	</defs>
	<use xlink:href="#SVGID_3_"  overflow="visible" fill="#FFFFFF"/>
	<clipPath id="SVGID_4_">
		<use xlink:href="#SVGID_3_"  overflow="visible"/>
	</clipPath>
</g>
<g>
	<path fill="#FFFFFF" d="M142.674,24.564c-4.924,0-8.93-4.004-8.93-8.925c0-4.916,4.006-8.915,8.93-8.915
		c4.913,0,8.912,3.999,8.912,8.915C151.586,20.561,147.587,24.564,142.674,24.564z M142.674,10.508
		c-2.837,0-5.146,2.302-5.146,5.131c0,2.835,2.309,5.141,5.146,5.141c2.828,0,5.129-2.306,5.129-5.141
		C147.803,12.81,145.502,10.508,142.674,10.508z"/>
</g>
</svg>
